G04*
G04 #@! TF.GenerationSoftware,Altium Limited,Altium Designer,26.5.1 (12)*
G04*
G04 Layer_Physical_Order=2*
G04 Layer_Color=16711680*
G04 Board_Origin=10000000|20450000*
%FSLAX44Y44*%
%MOMM*%
G71*
G04*
G04 #@! TF.SameCoordinates,CA43E853-15E9-4DD9-A235-6E08A6A4922E*
G04*
G04*
G04 #@! TF.FilePolarity,Positive*
G04*
G01*
G75*
%ADD10C,0.2540*%
%ADD16C,6.0000*%
%ADD17C,1.6510*%
%ADD19R,2.0000X2.0000*%
%ADD21R,1.3000X1.3000*%
%ADD22C,1.3000*%
%ADD23C,1.5000*%
%ADD24R,1.5000X1.5000*%
%ADD27C,1.2700*%
%ADD28C,1.3700*%
%ADD29R,1.3700X1.3700*%
%ADD30R,2.1280X2.1280*%
%ADD31C,2.1280*%
%ADD32R,1.5240X1.5240*%
G36*
X25000Y996115D02*
X976515D01*
X976608Y996134D01*
X979759Y995824D01*
X982878Y994877D01*
X985753Y993341D01*
X988200Y991332D01*
X988253Y991253D01*
X989475Y990031D01*
X989638Y989923D01*
X992342Y986627D01*
X994442Y982698D01*
X995736Y978434D01*
X996154Y974192D01*
X996115Y974000D01*
Y961000D01*
Y22071D01*
X996152Y21887D01*
X995725Y18642D01*
X994401Y15447D01*
X992410Y12851D01*
X992253Y12747D01*
X991233Y11727D01*
X991172Y11635D01*
X988056Y8974D01*
X984470Y6776D01*
X980583Y5166D01*
X976493Y4184D01*
X972409Y3863D01*
X972300Y3885D01*
X23000D01*
X22926Y3870D01*
X19986Y4160D01*
X17087Y5039D01*
X14416Y6467D01*
X12132Y8341D01*
X12090Y8404D01*
X8404Y12090D01*
X8341Y12132D01*
X6467Y14416D01*
X5039Y17087D01*
X4160Y19986D01*
X3870Y22926D01*
X3885Y23000D01*
Y38000D01*
Y965000D01*
Y976515D01*
X3866Y976608D01*
X4176Y979759D01*
X5123Y982878D01*
X6659Y985753D01*
X8668Y988200D01*
X8747Y988253D01*
X10676Y990182D01*
X10762Y990312D01*
X13720Y992739D01*
X17230Y994615D01*
X21039Y995771D01*
X24847Y996146D01*
X25000Y996115D01*
D02*
G37*
%LPC*%
G36*
X952561Y982540D02*
X951270D01*
Y951270D01*
X982540D01*
Y952561D01*
X981739Y957620D01*
X980156Y962491D01*
X977831Y967055D01*
X974820Y971198D01*
X971198Y974820D01*
X967055Y977831D01*
X962491Y980156D01*
X957620Y981739D01*
X952561Y982540D01*
D02*
G37*
G36*
X948730D02*
X947439D01*
X942380Y981739D01*
X937509Y980156D01*
X932945Y977831D01*
X928802Y974820D01*
X925180Y971198D01*
X922169Y967055D01*
X919844Y962491D01*
X918261Y957620D01*
X917460Y952561D01*
Y951270D01*
X948730D01*
Y982540D01*
D02*
G37*
G36*
X52561D02*
X51270D01*
Y951270D01*
X82540D01*
Y952561D01*
X81739Y957620D01*
X80156Y962491D01*
X77831Y967055D01*
X74820Y971198D01*
X71198Y974820D01*
X67055Y977831D01*
X62491Y980156D01*
X57620Y981739D01*
X52561Y982540D01*
D02*
G37*
G36*
X48730D02*
X47439D01*
X42380Y981739D01*
X37509Y980156D01*
X32945Y977831D01*
X28802Y974820D01*
X25180Y971198D01*
X22169Y967055D01*
X19844Y962491D01*
X18261Y957620D01*
X17460Y952561D01*
Y951270D01*
X48730D01*
Y982540D01*
D02*
G37*
G36*
X982540Y948730D02*
X951270D01*
Y917460D01*
X952561D01*
X957620Y918261D01*
X962491Y919844D01*
X967055Y922169D01*
X971198Y925180D01*
X974820Y928802D01*
X977831Y932945D01*
X980156Y937509D01*
X981739Y942380D01*
X982540Y947439D01*
Y948730D01*
D02*
G37*
G36*
X948730D02*
X917460D01*
Y947439D01*
X918261Y942380D01*
X919844Y937509D01*
X922169Y932945D01*
X925180Y928802D01*
X928802Y925180D01*
X932945Y922169D01*
X937509Y919844D01*
X942380Y918261D01*
X947439Y917460D01*
X948730D01*
Y948730D01*
D02*
G37*
G36*
X82540D02*
X51270D01*
Y917460D01*
X52561D01*
X57620Y918261D01*
X62491Y919844D01*
X67055Y922169D01*
X71198Y925180D01*
X74820Y928802D01*
X77831Y932945D01*
X80156Y937509D01*
X81739Y942380D01*
X82540Y947439D01*
Y948730D01*
D02*
G37*
G36*
X48730D02*
X17460D01*
Y947439D01*
X18261Y942380D01*
X19844Y937509D01*
X22169Y932945D01*
X25180Y928802D01*
X28802Y925180D01*
X32945Y922169D01*
X37509Y919844D01*
X42380Y918261D01*
X47439Y917460D01*
X48730D01*
Y948730D01*
D02*
G37*
G36*
X702270Y741863D02*
Y734270D01*
X709863D01*
X709284Y736431D01*
X708114Y738459D01*
X706459Y740114D01*
X704431Y741284D01*
X702270Y741863D01*
D02*
G37*
G36*
X699730D02*
X697569Y741284D01*
X695541Y740114D01*
X693886Y738459D01*
X692716Y736431D01*
X692137Y734270D01*
X699730D01*
Y741863D01*
D02*
G37*
G36*
X78735Y749180D02*
X75265D01*
X71913Y748282D01*
X68907Y746547D01*
X66453Y744093D01*
X64718Y741087D01*
X63820Y737735D01*
Y734265D01*
X64718Y730913D01*
X66453Y727907D01*
X68907Y725453D01*
X71913Y723718D01*
X75265Y722820D01*
X78735D01*
X82087Y723718D01*
X85093Y725453D01*
X87547Y727907D01*
X89282Y730913D01*
X90180Y734265D01*
Y737735D01*
X89282Y741087D01*
X87547Y744093D01*
X85093Y746547D01*
X82087Y748282D01*
X78735Y749180D01*
D02*
G37*
G36*
X302170Y742890D02*
X299830D01*
X297569Y742284D01*
X295541Y741114D01*
X293886Y739459D01*
X292716Y737431D01*
X292110Y735170D01*
Y732830D01*
X292716Y730569D01*
X293886Y728541D01*
X295541Y726886D01*
X297569Y725716D01*
X299065Y725315D01*
Y722685D01*
X297569Y722284D01*
X295541Y721114D01*
X293886Y719459D01*
X292716Y717431D01*
X292137Y715270D01*
X301000D01*
X309863D01*
X309284Y717431D01*
X308114Y719459D01*
X306459Y721114D01*
X304431Y722284D01*
X302935Y722685D01*
Y725315D01*
X304431Y725716D01*
X306459Y726886D01*
X308114Y728541D01*
X309284Y730569D01*
X309890Y732830D01*
Y735170D01*
X309284Y737431D01*
X308114Y739459D01*
X306459Y741114D01*
X304431Y742284D01*
X302170Y742890D01*
D02*
G37*
G36*
X299730Y712730D02*
X292137D01*
X292716Y710569D01*
X293886Y708541D01*
X295541Y706886D01*
X297569Y705716D01*
X299730Y705137D01*
Y712730D01*
D02*
G37*
G36*
X309863D02*
X302270D01*
Y705137D01*
X304431Y705716D01*
X306459Y706886D01*
X308114Y708541D01*
X309284Y710569D01*
X309863Y712730D01*
D02*
G37*
G36*
X709863Y731730D02*
X701000D01*
X692137D01*
X692716Y729569D01*
X693886Y727541D01*
X695541Y725886D01*
X697569Y724716D01*
X699065Y724315D01*
Y721685D01*
X697569Y721284D01*
X695541Y720114D01*
X693886Y718459D01*
X692716Y716431D01*
X692110Y714170D01*
Y711830D01*
X692716Y709569D01*
X693886Y707541D01*
X695541Y705886D01*
X697569Y704716D01*
X699830Y704110D01*
X702170D01*
X704431Y704716D01*
X706459Y705886D01*
X708114Y707541D01*
X709284Y709569D01*
X709890Y711830D01*
Y714170D01*
X709284Y716431D01*
X708114Y718459D01*
X706459Y720114D01*
X704431Y721284D01*
X702935Y721685D01*
Y724315D01*
X704431Y724716D01*
X706459Y725886D01*
X708114Y727541D01*
X709284Y729569D01*
X709863Y731730D01*
D02*
G37*
G36*
X78735Y709580D02*
X78270D01*
Y697670D01*
X90180D01*
Y698135D01*
X89282Y701487D01*
X87547Y704493D01*
X85093Y706947D01*
X82087Y708682D01*
X78735Y709580D01*
D02*
G37*
G36*
X75730D02*
X75265D01*
X71913Y708682D01*
X68907Y706947D01*
X66453Y704493D01*
X64718Y701487D01*
X63820Y698135D01*
Y697670D01*
X75730D01*
Y709580D01*
D02*
G37*
G36*
X90180Y695130D02*
X78270D01*
Y683220D01*
X78735D01*
X82087Y684118D01*
X85093Y685853D01*
X87547Y688307D01*
X89282Y691313D01*
X90180Y694665D01*
Y695130D01*
D02*
G37*
G36*
X75730D02*
X63820D01*
Y694665D01*
X64718Y691313D01*
X66453Y688307D01*
X68907Y685853D01*
X71913Y684118D01*
X75265Y683220D01*
X75730D01*
Y695130D01*
D02*
G37*
G36*
X90180Y669980D02*
X63820D01*
Y643620D01*
X90180D01*
Y669980D01*
D02*
G37*
G36*
X677270Y596019D02*
Y588270D01*
X685019D01*
X684424Y590489D01*
X683234Y592551D01*
X681551Y594234D01*
X679489Y595424D01*
X677270Y596019D01*
D02*
G37*
G36*
X674730Y596019D02*
X672511Y595424D01*
X670449Y594234D01*
X668766Y592551D01*
X667576Y590489D01*
X666981Y588270D01*
X674730D01*
Y596019D01*
D02*
G37*
G36*
X502170Y741890D02*
X499830D01*
X497569Y741284D01*
X495541Y740114D01*
X493886Y738459D01*
X492716Y736431D01*
X492665Y736240D01*
X492356D01*
X490869Y735945D01*
X489609Y735103D01*
X447843Y693337D01*
X447001Y692077D01*
X446705Y690590D01*
Y511310D01*
X447001Y509823D01*
X447843Y508563D01*
X452541Y503865D01*
X451860Y501322D01*
Y498678D01*
X452544Y496125D01*
X453866Y493835D01*
X455735Y491966D01*
X458025Y490644D01*
X460578Y489960D01*
X463222D01*
X465775Y490644D01*
X468065Y491966D01*
X469934Y493835D01*
X471256Y496125D01*
X471940Y498678D01*
Y501322D01*
X471256Y503875D01*
X469934Y506165D01*
X468065Y508034D01*
X465775Y509356D01*
X463222Y510040D01*
X460578D01*
X458035Y509359D01*
X454585Y512808D01*
X454775Y515335D01*
X457015Y516627D01*
X458025Y516044D01*
X460578Y515360D01*
X463222D01*
X465775Y516044D01*
X468065Y517366D01*
X469934Y519235D01*
X471256Y521525D01*
X471940Y524078D01*
Y526722D01*
X471256Y529275D01*
X469934Y531565D01*
X468065Y533434D01*
X465775Y534756D01*
X463222Y535440D01*
X460578D01*
X458025Y534756D01*
X457015Y534173D01*
X454475Y535639D01*
Y540561D01*
X457015Y542027D01*
X458025Y541444D01*
X460578Y540760D01*
X463222D01*
X465775Y541444D01*
X468065Y542766D01*
X469934Y544635D01*
X471256Y546925D01*
X471940Y549478D01*
Y552122D01*
X471256Y554675D01*
X469934Y556965D01*
X468065Y558834D01*
X465775Y560156D01*
X463222Y560840D01*
X460578D01*
X458025Y560156D01*
X457015Y559573D01*
X454475Y561039D01*
Y566160D01*
X471940D01*
Y586240D01*
X454475D01*
Y688981D01*
X491841Y726347D01*
X495257Y726171D01*
X495541Y725886D01*
X497569Y724716D01*
X499065Y724315D01*
Y721685D01*
X497569Y721284D01*
X495541Y720114D01*
X493886Y718459D01*
X492716Y716431D01*
X492110Y714170D01*
Y711830D01*
X492716Y709569D01*
X493886Y707541D01*
X495541Y705886D01*
X497569Y704716D01*
X499830Y704110D01*
X502170D01*
X504431Y704716D01*
X506459Y705886D01*
X508114Y707541D01*
X509022Y709115D01*
X526391D01*
X545525Y689981D01*
Y586439D01*
X542985Y584973D01*
X541975Y585556D01*
X539422Y586240D01*
X536778D01*
X534225Y585556D01*
X531935Y584234D01*
X530066Y582365D01*
X528744Y580075D01*
X528060Y577522D01*
Y574878D01*
X528744Y572325D01*
X530066Y570035D01*
X531935Y568166D01*
X534225Y566844D01*
X536778Y566160D01*
X539422D01*
X541975Y566844D01*
X542985Y567427D01*
X545525Y565961D01*
Y561039D01*
X542985Y559573D01*
X541975Y560156D01*
X539422Y560840D01*
X536778D01*
X534225Y560156D01*
X531935Y558834D01*
X530066Y556965D01*
X528744Y554675D01*
X528060Y552122D01*
Y549478D01*
X528744Y546925D01*
X530066Y544635D01*
X531935Y542766D01*
X534225Y541444D01*
X536778Y540760D01*
X539422D01*
X541975Y541444D01*
X542985Y542027D01*
X545525Y540561D01*
Y535639D01*
X542985Y534173D01*
X541975Y534756D01*
X539422Y535440D01*
X536778D01*
X534225Y534756D01*
X531935Y533434D01*
X530066Y531565D01*
X528744Y529275D01*
X528060Y526722D01*
Y524078D01*
X528744Y521525D01*
X530066Y519235D01*
X531935Y517366D01*
X534225Y516044D01*
X536778Y515360D01*
X539422D01*
X541975Y516044D01*
X542985Y516627D01*
X545225Y515335D01*
X545415Y512808D01*
X541965Y509359D01*
X539422Y510040D01*
X536778D01*
X534225Y509356D01*
X531935Y508034D01*
X530066Y506165D01*
X528744Y503875D01*
X528060Y501322D01*
Y498678D01*
X528744Y496125D01*
X530066Y493835D01*
X531935Y491966D01*
X534225Y490644D01*
X536778Y489960D01*
X539422D01*
X541975Y490644D01*
X544265Y491966D01*
X546134Y493835D01*
X547456Y496125D01*
X548140Y498678D01*
Y501322D01*
X547459Y503865D01*
X552157Y508563D01*
X552999Y509823D01*
X553295Y511310D01*
Y518950D01*
X555835Y519631D01*
X555886Y519541D01*
X557541Y517886D01*
X559115Y516978D01*
Y462397D01*
X556769Y461425D01*
X547459Y470735D01*
X548140Y473278D01*
Y475922D01*
X547456Y478475D01*
X546134Y480765D01*
X544265Y482634D01*
X541975Y483956D01*
X539422Y484640D01*
X536778D01*
X534225Y483956D01*
X531935Y482634D01*
X530066Y480765D01*
X528744Y478475D01*
X528060Y475922D01*
Y473278D01*
X528744Y470725D01*
X530066Y468435D01*
X531935Y466566D01*
X534225Y465244D01*
X536778Y464560D01*
X539422D01*
X541965Y465241D01*
X551394Y455812D01*
X551254Y454989D01*
X551242Y454960D01*
X548800Y453085D01*
X547450D01*
X546134Y455365D01*
X544265Y457234D01*
X541975Y458556D01*
X539422Y459240D01*
X536778D01*
X534225Y458556D01*
X531935Y457234D01*
X530066Y455365D01*
X528744Y453075D01*
X528060Y450522D01*
Y447878D01*
X528744Y445325D01*
X530066Y443035D01*
X531935Y441166D01*
X534225Y439844D01*
X536778Y439160D01*
X539422D01*
X541975Y439844D01*
X544265Y441166D01*
X545495Y442397D01*
X548035Y441493D01*
Y431507D01*
X545495Y430603D01*
X544265Y431834D01*
X541975Y433156D01*
X539422Y433840D01*
X536778D01*
X534225Y433156D01*
X531935Y431834D01*
X530066Y429965D01*
X528744Y427675D01*
X528060Y425122D01*
Y422478D01*
X528744Y419925D01*
X530066Y417635D01*
X531935Y415766D01*
X534225Y414444D01*
X536778Y413760D01*
X539422D01*
X541975Y414444D01*
X544265Y415766D01*
X545495Y416997D01*
X548035Y416093D01*
Y399885D01*
X453609D01*
X443747Y409747D01*
X442487Y410589D01*
X441000Y410885D01*
X415686D01*
X415005Y413425D01*
X416628Y414362D01*
X418638Y416372D01*
X420059Y418833D01*
X420795Y421579D01*
Y424421D01*
X420059Y427167D01*
X419913Y427420D01*
X425812Y433318D01*
X426654Y434578D01*
X426950Y436065D01*
Y564935D01*
X426654Y566422D01*
X425812Y567682D01*
X420913Y572580D01*
X421059Y572833D01*
X421795Y575579D01*
Y578421D01*
X421059Y581167D01*
X419638Y583628D01*
X417628Y585638D01*
X415167Y587059D01*
X412421Y587795D01*
X409579D01*
X406833Y587059D01*
X404372Y585638D01*
X402362Y583628D01*
X400941Y581167D01*
X400205Y578421D01*
Y575579D01*
X400941Y572833D01*
X402362Y570372D01*
X404372Y568362D01*
X406833Y566941D01*
X409579Y566205D01*
X412421D01*
X415167Y566941D01*
X415420Y567087D01*
X419180Y563326D01*
Y553470D01*
X416640Y552209D01*
X415167Y553059D01*
X412421Y553795D01*
X409579D01*
X406833Y553059D01*
X404372Y551638D01*
X402362Y549628D01*
X400941Y547167D01*
X400205Y544421D01*
Y541579D01*
X400941Y538833D01*
X402362Y536372D01*
X404372Y534362D01*
X406833Y532941D01*
X409579Y532205D01*
X412421D01*
X415167Y532941D01*
X416640Y533792D01*
X419180Y532530D01*
Y467470D01*
X416640Y466208D01*
X415167Y467059D01*
X412421Y467795D01*
X409579D01*
X406833Y467059D01*
X404372Y465638D01*
X402362Y463628D01*
X400941Y461167D01*
X400205Y458421D01*
Y455579D01*
X400941Y452833D01*
X402362Y450372D01*
X404372Y448362D01*
X406833Y446941D01*
X409579Y446205D01*
X412421D01*
X415167Y446941D01*
X416640Y447791D01*
X419180Y446530D01*
Y437674D01*
X414420Y432913D01*
X414167Y433059D01*
X411421Y433795D01*
X408579D01*
X405833Y433059D01*
X403372Y431638D01*
X401362Y429628D01*
X399941Y427167D01*
X399205Y424421D01*
Y421579D01*
X399941Y418833D01*
X401362Y416372D01*
X403372Y414362D01*
X404995Y413425D01*
X404314Y410885D01*
X316954D01*
X315949Y412030D01*
X315028Y414362D01*
X317038Y416372D01*
X318459Y418833D01*
X319195Y421579D01*
Y424421D01*
X318459Y427167D01*
X317038Y429628D01*
X315028Y431638D01*
X312567Y433059D01*
X309821Y433795D01*
X306979D01*
X304233Y433059D01*
X301772Y431638D01*
X299762Y429628D01*
X298341Y427167D01*
X297605Y424421D01*
Y421579D01*
X298341Y418833D01*
X299762Y416372D01*
X301772Y414362D01*
X304233Y412941D01*
X304515Y412865D01*
Y411600D01*
X304811Y410113D01*
X305653Y408853D01*
X310253Y404253D01*
X311513Y403411D01*
X313000Y403115D01*
X439391D01*
X449253Y393253D01*
X448924Y390418D01*
X433391Y374885D01*
X412575D01*
X412241Y377425D01*
X414167Y377941D01*
X416628Y379362D01*
X418638Y381372D01*
X420059Y383833D01*
X420795Y386579D01*
Y389421D01*
X420059Y392167D01*
X418638Y394628D01*
X416628Y396638D01*
X414167Y398059D01*
X411421Y398795D01*
X408579D01*
X405833Y398059D01*
X403372Y396638D01*
X401362Y394628D01*
X399941Y392167D01*
X399205Y389421D01*
Y386579D01*
X399941Y383833D01*
X401362Y381372D01*
X403372Y379362D01*
X405833Y377941D01*
X407759Y377425D01*
X407425Y374885D01*
X316609D01*
X315051Y376442D01*
X315028Y379362D01*
X317038Y381372D01*
X318459Y383833D01*
X319195Y386579D01*
Y389421D01*
X318459Y392167D01*
X317038Y394628D01*
X315028Y396638D01*
X312567Y398059D01*
X309821Y398795D01*
X306979D01*
X304233Y398059D01*
X301772Y396638D01*
X299762Y394628D01*
X298341Y392167D01*
X297605Y389421D01*
Y386579D01*
X298341Y383833D01*
X299762Y381372D01*
X301772Y379362D01*
X304233Y377941D01*
X304727Y377808D01*
X304756Y377789D01*
X304984Y377696D01*
X305027Y377672D01*
X305033Y377668D01*
X305045Y377645D01*
X305071Y377576D01*
X305102Y377449D01*
X305115Y377347D01*
Y377000D01*
X305411Y375513D01*
X306253Y374253D01*
X312253Y368253D01*
X313513Y367411D01*
X315000Y367115D01*
X435000D01*
X436487Y367411D01*
X437747Y368253D01*
X455609Y386115D01*
X498383D01*
X499355Y383769D01*
X485253Y369667D01*
X484411Y368407D01*
X484115Y366920D01*
Y361243D01*
X484011Y361087D01*
X483715Y359600D01*
Y359540D01*
X475060D01*
Y334460D01*
X497920D01*
X500140Y334460D01*
X502680Y334460D01*
X525540D01*
Y359540D01*
X502680D01*
X500460Y359540D01*
X497920Y359540D01*
X492262D01*
X491885Y360000D01*
Y365311D01*
X507609Y381035D01*
X553920D01*
X555407Y381331D01*
X556667Y382173D01*
X565747Y391253D01*
X566589Y392513D01*
X566885Y394000D01*
Y516978D01*
X568459Y517886D01*
X570114Y519541D01*
X571284Y521569D01*
X571890Y523830D01*
Y526170D01*
X571284Y528431D01*
X570114Y530459D01*
X568459Y532114D01*
X566431Y533284D01*
X564170Y533890D01*
X561830D01*
X559569Y533284D01*
X557541Y532114D01*
X555886Y530459D01*
X555835Y530369D01*
X553295Y531050D01*
Y691590D01*
X552999Y693077D01*
X552157Y694337D01*
X530747Y715747D01*
X529487Y716589D01*
X528000Y716885D01*
X509022D01*
X508114Y718459D01*
X506459Y720114D01*
X504431Y721284D01*
X502935Y721685D01*
Y724315D01*
X504431Y724716D01*
X506459Y725886D01*
X508114Y727541D01*
X509284Y729569D01*
X509890Y731830D01*
Y734170D01*
X509284Y736431D01*
X508114Y738459D01*
X506459Y740114D01*
X504431Y741284D01*
X502170Y741890D01*
D02*
G37*
G36*
X674730Y585730D02*
X666981D01*
X667576Y583511D01*
X668766Y581449D01*
X670449Y579766D01*
X672511Y578576D01*
X674730Y577981D01*
Y585730D01*
D02*
G37*
G36*
X685019D02*
X677270D01*
Y577981D01*
X679489Y578576D01*
X681551Y579766D01*
X683234Y581449D01*
X684424Y583511D01*
X685019Y585730D01*
D02*
G37*
G36*
X652190Y596040D02*
X649810D01*
X647511Y595424D01*
X645449Y594234D01*
X643766Y592551D01*
X642576Y590489D01*
X641960Y588190D01*
Y585810D01*
X642576Y583511D01*
X643766Y581449D01*
X645449Y579766D01*
X647511Y578576D01*
X649810Y577960D01*
X652190D01*
X654489Y578576D01*
X656551Y579766D01*
X658234Y581449D01*
X659424Y583511D01*
X660040Y585810D01*
Y588190D01*
X659424Y590489D01*
X658234Y592551D01*
X656551Y594234D01*
X654489Y595424D01*
X652190Y596040D01*
D02*
G37*
G36*
X932390Y587790D02*
X913610D01*
Y569010D01*
X932390D01*
Y587790D01*
D02*
G37*
G36*
X310821Y587795D02*
X307979D01*
X305233Y587059D01*
X302772Y585638D01*
X300762Y583628D01*
X299341Y581167D01*
X298605Y578421D01*
Y575579D01*
X299341Y572833D01*
X300762Y570372D01*
X302772Y568362D01*
X305233Y566941D01*
X307979Y566205D01*
X310821D01*
X313567Y566941D01*
X316028Y568362D01*
X318038Y570372D01*
X319459Y572833D01*
X320195Y575579D01*
Y578421D01*
X319459Y581167D01*
X318038Y583628D01*
X316028Y585638D01*
X313567Y587059D01*
X310821Y587795D01*
D02*
G37*
G36*
X924270Y562381D02*
Y554270D01*
X932381D01*
X931750Y556624D01*
X930514Y558766D01*
X928766Y560514D01*
X926624Y561750D01*
X924270Y562381D01*
D02*
G37*
G36*
X921730Y562381D02*
X919376Y561750D01*
X917234Y560514D01*
X915486Y558766D01*
X914250Y556624D01*
X913619Y554270D01*
X921730D01*
Y562381D01*
D02*
G37*
G36*
X635040Y596040D02*
X616960D01*
Y577960D01*
X622115D01*
Y574609D01*
X594420Y546913D01*
X594167Y547059D01*
X591421Y547795D01*
X588579D01*
X585833Y547059D01*
X583372Y545638D01*
X581362Y543628D01*
X579941Y541167D01*
X579205Y538421D01*
Y535579D01*
X579941Y532833D01*
X581362Y530372D01*
X583372Y528362D01*
X585833Y526941D01*
X588579Y526205D01*
X591421D01*
X594167Y526941D01*
X596628Y528362D01*
X598638Y530372D01*
X600059Y532833D01*
X600795Y535579D01*
Y538421D01*
X600059Y541167D01*
X599913Y541420D01*
X628747Y570253D01*
X629589Y571513D01*
X629885Y573000D01*
Y577960D01*
X635040D01*
Y596040D01*
D02*
G37*
G36*
X932381Y551730D02*
X924270D01*
Y543619D01*
X926624Y544250D01*
X928766Y545486D01*
X930514Y547234D01*
X931750Y549376D01*
X932381Y551730D01*
D02*
G37*
G36*
X921730D02*
X913619D01*
X914250Y549376D01*
X915486Y547234D01*
X917234Y545486D01*
X919376Y544250D01*
X921730Y543619D01*
Y551730D01*
D02*
G37*
G36*
X693021Y547795D02*
X692870D01*
Y538270D01*
X702395D01*
Y538421D01*
X701659Y541167D01*
X700238Y543628D01*
X698228Y545638D01*
X695767Y547059D01*
X693021Y547795D01*
D02*
G37*
G36*
X690330D02*
X690179D01*
X687433Y547059D01*
X684972Y545638D01*
X682962Y543628D01*
X681541Y541167D01*
X680805Y538421D01*
Y538270D01*
X690330D01*
Y547795D01*
D02*
G37*
G36*
X310821Y553795D02*
X307979D01*
X305233Y553059D01*
X302772Y551638D01*
X300762Y549628D01*
X299341Y547167D01*
X298605Y544421D01*
Y541579D01*
X299341Y538833D01*
X300762Y536372D01*
X302772Y534362D01*
X305233Y532941D01*
X307979Y532205D01*
X310821D01*
X313567Y532941D01*
X316028Y534362D01*
X318038Y536372D01*
X319459Y538833D01*
X320195Y541579D01*
Y544421D01*
X319459Y547167D01*
X318038Y549628D01*
X316028Y551638D01*
X313567Y553059D01*
X310821Y553795D01*
D02*
G37*
G36*
X702395Y535730D02*
X692870D01*
Y526205D01*
X693021D01*
X695767Y526941D01*
X698228Y528362D01*
X700238Y530372D01*
X701659Y532833D01*
X702395Y535579D01*
Y535730D01*
D02*
G37*
G36*
X690330D02*
X680805D01*
Y535579D01*
X681541Y532833D01*
X682962Y530372D01*
X684972Y528362D01*
X687433Y526941D01*
X690179Y526205D01*
X690330D01*
Y535730D01*
D02*
G37*
G36*
X332170Y522890D02*
X329830D01*
X327569Y522284D01*
X325541Y521114D01*
X323886Y519459D01*
X322977Y517885D01*
X293000D01*
X291513Y517589D01*
X290253Y516747D01*
X255391Y481885D01*
X93839D01*
X93727Y481895D01*
X93339Y481992D01*
X92834Y482194D01*
X92222Y482519D01*
X91518Y482976D01*
X90734Y483569D01*
X89900Y484283D01*
X87968Y486194D01*
X87600Y486601D01*
X87547Y486693D01*
X87234Y487006D01*
X86928Y487344D01*
X86801Y487439D01*
X85093Y489147D01*
X82087Y490882D01*
X78735Y491780D01*
X75265D01*
X71913Y490882D01*
X68907Y489147D01*
X66453Y486693D01*
X64718Y483687D01*
X63820Y480335D01*
Y476865D01*
X64718Y473513D01*
X66453Y470507D01*
X68907Y468053D01*
X71913Y466318D01*
X75265Y465420D01*
X78735D01*
X82087Y466318D01*
X85093Y468053D01*
X85758Y468718D01*
X85861Y468777D01*
X88291Y470880D01*
X90370Y472455D01*
X91238Y473026D01*
X92027Y473481D01*
X92702Y473809D01*
X93244Y474013D01*
X93632Y474109D01*
X93703Y474115D01*
X257000D01*
X258487Y474411D01*
X259747Y475253D01*
X294609Y510115D01*
X322977D01*
X323886Y508541D01*
X325541Y506886D01*
X327569Y505716D01*
X329830Y505110D01*
X332170D01*
X334431Y505716D01*
X336459Y506886D01*
X338114Y508541D01*
X339284Y510569D01*
X339890Y512830D01*
Y515170D01*
X339284Y517431D01*
X338114Y519459D01*
X336459Y521114D01*
X334431Y522284D01*
X332170Y522890D01*
D02*
G37*
G36*
X371760Y510160D02*
X362870D01*
Y501270D01*
X371760D01*
Y510160D01*
D02*
G37*
G36*
X360330D02*
X351440D01*
Y501270D01*
X360330D01*
Y510160D01*
D02*
G37*
G36*
X649160D02*
X640270D01*
Y501270D01*
X649160D01*
Y510160D01*
D02*
G37*
G36*
X637730D02*
X628840D01*
Y501270D01*
X637730D01*
Y510160D01*
D02*
G37*
G36*
X649160Y498730D02*
X640270D01*
Y489840D01*
X649160D01*
Y498730D01*
D02*
G37*
G36*
X637730D02*
X628840D01*
Y489840D01*
X637730D01*
Y498730D01*
D02*
G37*
G36*
X623760Y510160D02*
X603440D01*
Y489840D01*
X623760D01*
Y510160D01*
D02*
G37*
G36*
X397160D02*
X376840D01*
Y489840D01*
X397160D01*
Y510160D01*
D02*
G37*
G36*
X371760Y498730D02*
X362870D01*
Y489840D01*
X371760D01*
Y498730D01*
D02*
G37*
G36*
X360330D02*
X351440D01*
Y489840D01*
X360330D01*
Y498730D01*
D02*
G37*
G36*
X332170Y499890D02*
X329830D01*
X327569Y499284D01*
X325541Y498114D01*
X323886Y496459D01*
X322977Y494885D01*
X294000D01*
X292513Y494589D01*
X291253Y493747D01*
X200791Y403285D01*
X90180D01*
Y412580D01*
X63820D01*
Y386220D01*
X90180D01*
Y395515D01*
X202400D01*
X203887Y395811D01*
X205147Y396653D01*
X295609Y487115D01*
X322977D01*
X323886Y485541D01*
X325541Y483886D01*
X327569Y482716D01*
X329830Y482110D01*
X332170D01*
X334431Y482716D01*
X336459Y483886D01*
X338114Y485541D01*
X339284Y487569D01*
X339890Y489830D01*
Y492170D01*
X339284Y494431D01*
X338114Y496459D01*
X336459Y498114D01*
X334431Y499284D01*
X332170Y499890D01*
D02*
G37*
G36*
X463222Y484640D02*
X460578D01*
X458025Y483956D01*
X455735Y482634D01*
X453866Y480765D01*
X452544Y478475D01*
X451860Y475922D01*
Y473278D01*
X452544Y470725D01*
X453866Y468435D01*
X455735Y466566D01*
X458025Y465244D01*
X460578Y464560D01*
X463222D01*
X465775Y465244D01*
X468065Y466566D01*
X469934Y468435D01*
X471256Y470725D01*
X471940Y473278D01*
Y475922D01*
X471256Y478475D01*
X469934Y480765D01*
X468065Y482634D01*
X465775Y483956D01*
X463222Y484640D01*
D02*
G37*
G36*
X693021Y473795D02*
X692870D01*
Y464270D01*
X702395D01*
Y464421D01*
X701659Y467167D01*
X700238Y469628D01*
X698228Y471638D01*
X695767Y473059D01*
X693021Y473795D01*
D02*
G37*
G36*
X690330D02*
X690179D01*
X687433Y473059D01*
X684972Y471638D01*
X682962Y469628D01*
X681541Y467167D01*
X680805Y464421D01*
Y464270D01*
X690330D01*
Y473795D01*
D02*
G37*
G36*
X702395Y461730D02*
X692870D01*
Y452205D01*
X693021D01*
X695767Y452941D01*
X698228Y454362D01*
X700238Y456372D01*
X701659Y458833D01*
X702395Y461579D01*
Y461730D01*
D02*
G37*
G36*
X690330D02*
X680805D01*
Y461579D01*
X681541Y458833D01*
X682962Y456372D01*
X684972Y454362D01*
X687433Y452941D01*
X690179Y452205D01*
X690330D01*
Y461730D01*
D02*
G37*
G36*
X591421Y473795D02*
X588579D01*
X585833Y473059D01*
X583372Y471638D01*
X581362Y469628D01*
X579941Y467167D01*
X579205Y464421D01*
Y461579D01*
X579941Y458833D01*
X581362Y456372D01*
X583372Y454362D01*
X585833Y452941D01*
X588579Y452205D01*
X591421D01*
X594167Y452941D01*
X596628Y454362D01*
X598638Y456372D01*
X600059Y458833D01*
X600795Y461579D01*
Y464421D01*
X600059Y467167D01*
X598638Y469628D01*
X596628Y471638D01*
X594167Y473059D01*
X591421Y473795D01*
D02*
G37*
G36*
X310821Y467795D02*
X307979D01*
X305233Y467059D01*
X302772Y465638D01*
X300762Y463628D01*
X299341Y461167D01*
X298605Y458421D01*
Y455579D01*
X299341Y452833D01*
X300762Y450372D01*
X302772Y448362D01*
X305233Y446941D01*
X307979Y446205D01*
X310821D01*
X313567Y446941D01*
X316028Y448362D01*
X318038Y450372D01*
X319459Y452833D01*
X320195Y455579D01*
Y458421D01*
X319459Y461167D01*
X318038Y463628D01*
X316028Y465638D01*
X313567Y467059D01*
X310821Y467795D01*
D02*
G37*
G36*
X78735Y452180D02*
X78270D01*
Y440270D01*
X90180D01*
Y440735D01*
X89282Y444087D01*
X87547Y447093D01*
X85093Y449547D01*
X82087Y451282D01*
X78735Y452180D01*
D02*
G37*
G36*
X75730D02*
X75265D01*
X71913Y451282D01*
X68907Y449547D01*
X66453Y447093D01*
X64718Y444087D01*
X63820Y440735D01*
Y440270D01*
X75730D01*
Y452180D01*
D02*
G37*
G36*
X463222Y459240D02*
X460578D01*
X458025Y458556D01*
X455735Y457234D01*
X453866Y455365D01*
X452544Y453075D01*
X451860Y450522D01*
Y447878D01*
X452544Y445325D01*
X453866Y443035D01*
X455735Y441166D01*
X458025Y439844D01*
X460578Y439160D01*
X463222D01*
X465775Y439844D01*
X468065Y441166D01*
X469934Y443035D01*
X471256Y445325D01*
X471940Y447878D01*
Y450522D01*
X471256Y453075D01*
X469934Y455365D01*
X468065Y457234D01*
X465775Y458556D01*
X463222Y459240D01*
D02*
G37*
G36*
X90180Y437730D02*
X78270D01*
Y425820D01*
X78735D01*
X82087Y426718D01*
X85093Y428453D01*
X87547Y430907D01*
X89282Y433913D01*
X90180Y437265D01*
Y437730D01*
D02*
G37*
G36*
X75730D02*
X63820D01*
Y437265D01*
X64718Y433913D01*
X66453Y430907D01*
X68907Y428453D01*
X71913Y426718D01*
X75265Y425820D01*
X75730D01*
Y437730D01*
D02*
G37*
G36*
X693021Y438795D02*
X690179D01*
X687433Y438059D01*
X684972Y436638D01*
X682962Y434628D01*
X681541Y432167D01*
X680805Y429421D01*
Y426579D01*
X681541Y423833D01*
X682962Y421372D01*
X684972Y419362D01*
X687433Y417941D01*
X690179Y417205D01*
X693021D01*
X695767Y417941D01*
X698228Y419362D01*
X700238Y421372D01*
X701659Y423833D01*
X702395Y426579D01*
Y429421D01*
X701659Y432167D01*
X700238Y434628D01*
X698228Y436638D01*
X695767Y438059D01*
X693021Y438795D01*
D02*
G37*
G36*
X591421D02*
X588579D01*
X585833Y438059D01*
X583372Y436638D01*
X581362Y434628D01*
X579941Y432167D01*
X579205Y429421D01*
Y426579D01*
X579941Y423833D01*
X581362Y421372D01*
X583372Y419362D01*
X585833Y417941D01*
X588579Y417205D01*
X591421D01*
X594167Y417941D01*
X596628Y419362D01*
X598638Y421372D01*
X600059Y423833D01*
X600795Y426579D01*
Y429421D01*
X600059Y432167D01*
X598638Y434628D01*
X596628Y436638D01*
X594167Y438059D01*
X591421Y438795D01*
D02*
G37*
G36*
X463222Y433840D02*
X460578D01*
X458025Y433156D01*
X455735Y431834D01*
X453866Y429965D01*
X452544Y427675D01*
X451860Y425122D01*
Y422478D01*
X452544Y419925D01*
X453866Y417635D01*
X455735Y415766D01*
X458025Y414444D01*
X460578Y413760D01*
X463222D01*
X465775Y414444D01*
X468065Y415766D01*
X469934Y417635D01*
X471256Y419925D01*
X471940Y422478D01*
Y425122D01*
X471256Y427675D01*
X469934Y429965D01*
X468065Y431834D01*
X465775Y433156D01*
X463222Y433840D01*
D02*
G37*
G36*
X952561Y82540D02*
X951270D01*
Y51270D01*
X982540D01*
Y52561D01*
X981739Y57620D01*
X980156Y62491D01*
X977831Y67055D01*
X974820Y71198D01*
X971198Y74820D01*
X967055Y77831D01*
X962491Y80156D01*
X957620Y81739D01*
X952561Y82540D01*
D02*
G37*
G36*
X948730D02*
X947439D01*
X942380Y81739D01*
X937509Y80156D01*
X932945Y77831D01*
X928802Y74820D01*
X925180Y71198D01*
X922169Y67055D01*
X919844Y62491D01*
X918261Y57620D01*
X917460Y52561D01*
Y51270D01*
X948730D01*
Y82540D01*
D02*
G37*
G36*
X52561D02*
X51270D01*
Y51270D01*
X82540D01*
Y52561D01*
X81739Y57620D01*
X80156Y62491D01*
X77831Y67055D01*
X74820Y71198D01*
X71198Y74820D01*
X67055Y77831D01*
X62491Y80156D01*
X57620Y81739D01*
X52561Y82540D01*
D02*
G37*
G36*
X48730D02*
X47439D01*
X42380Y81739D01*
X37509Y80156D01*
X32945Y77831D01*
X28802Y74820D01*
X25180Y71198D01*
X22169Y67055D01*
X19844Y62491D01*
X18261Y57620D01*
X17460Y52561D01*
Y51270D01*
X48730D01*
Y82540D01*
D02*
G37*
G36*
X982540Y48730D02*
X951270D01*
Y17460D01*
X952561D01*
X957620Y18261D01*
X962491Y19844D01*
X967055Y22169D01*
X971198Y25180D01*
X974820Y28802D01*
X977831Y32945D01*
X980156Y37509D01*
X981739Y42380D01*
X982540Y47439D01*
Y48730D01*
D02*
G37*
G36*
X948730D02*
X917460D01*
Y47439D01*
X918261Y42380D01*
X919844Y37509D01*
X922169Y32945D01*
X925180Y28802D01*
X928802Y25180D01*
X932945Y22169D01*
X937509Y19844D01*
X942380Y18261D01*
X947439Y17460D01*
X948730D01*
Y48730D01*
D02*
G37*
G36*
X82540D02*
X51270D01*
Y17460D01*
X52561D01*
X57620Y18261D01*
X62491Y19844D01*
X67055Y22169D01*
X71198Y25180D01*
X74820Y28802D01*
X77831Y32945D01*
X80156Y37509D01*
X81739Y42380D01*
X82540Y47439D01*
Y48730D01*
D02*
G37*
G36*
X48730D02*
X17460D01*
Y47439D01*
X18261Y42380D01*
X19844Y37509D01*
X22169Y32945D01*
X25180Y28802D01*
X28802Y25180D01*
X32945Y22169D01*
X37509Y19844D01*
X42380Y18261D01*
X47439Y17460D01*
X48730D01*
Y48730D01*
D02*
G37*
%LPD*%
G36*
X495565Y729717D02*
X495384Y729977D01*
X495172Y730210D01*
X494929Y730415D01*
X494654Y730593D01*
X494349Y730744D01*
X494012Y730867D01*
X493645Y730963D01*
X493246Y731031D01*
X492817Y731072D01*
X492356Y731086D01*
Y733626D01*
X492766Y733641D01*
X493144Y733686D01*
X493489Y733760D01*
X493803Y733865D01*
X494085Y733999D01*
X494335Y734163D01*
X494553Y734357D01*
X494738Y734581D01*
X494892Y734835D01*
X495014Y735118D01*
X495565Y729717D01*
D02*
G37*
G36*
X311810Y380445D02*
X311487Y380198D01*
X311202Y379918D01*
X310955Y379603D01*
X310745Y379254D01*
X310574Y378872D01*
X310441Y378455D01*
X310346Y378004D01*
X310289Y377519D01*
X310270Y377000D01*
X307730D01*
X307710Y377483D01*
X307650Y377929D01*
X307550Y378339D01*
X307410Y378713D01*
X307231Y379050D01*
X307011Y379350D01*
X306751Y379614D01*
X306452Y379842D01*
X306112Y380033D01*
X305733Y380188D01*
X312172Y380657D01*
X311810Y380445D01*
D02*
G37*
G36*
X488883Y359027D02*
X488921Y358595D01*
X488984Y358214D01*
X489073Y357884D01*
X489188Y357604D01*
X489327Y357376D01*
X489492Y357198D01*
X489683Y357071D01*
X489899Y356995D01*
X490140Y356969D01*
X485060D01*
X485301Y356995D01*
X485517Y357071D01*
X485708Y357198D01*
X485873Y357376D01*
X486012Y357604D01*
X486127Y357884D01*
X486216Y358214D01*
X486279Y358595D01*
X486317Y359027D01*
X486330Y359510D01*
X488870D01*
X488883Y359027D01*
D02*
G37*
G36*
X628299Y580505D02*
X628083Y580429D01*
X627892Y580302D01*
X627727Y580124D01*
X627588Y579896D01*
X627473Y579616D01*
X627384Y579286D01*
X627321Y578905D01*
X627283Y578473D01*
X627270Y577990D01*
X624730D01*
X624717Y578473D01*
X624679Y578905D01*
X624616Y579286D01*
X624527Y579616D01*
X624412Y579896D01*
X624273Y580124D01*
X624108Y580302D01*
X623917Y580429D01*
X623701Y580505D01*
X623460Y580531D01*
X628540D01*
X628299Y580505D01*
D02*
G37*
G36*
X86095Y484403D02*
X88146Y482375D01*
X89108Y481552D01*
X90029Y480854D01*
X90908Y480284D01*
X91744Y479840D01*
X92539Y479524D01*
X93292Y479333D01*
X94003Y479270D01*
X93858Y476730D01*
X93201Y476670D01*
X92474Y476490D01*
X91678Y476190D01*
X90813Y475771D01*
X89879Y475231D01*
X88875Y474572D01*
X86659Y472893D01*
X84166Y470735D01*
X85006Y485608D01*
X86095Y484403D01*
D02*
G37*
G36*
X87635Y401699D02*
X87711Y401483D01*
X87838Y401292D01*
X88016Y401127D01*
X88244Y400988D01*
X88524Y400873D01*
X88854Y400784D01*
X89235Y400721D01*
X89667Y400683D01*
X90149Y400670D01*
Y398130D01*
X89667Y398117D01*
X89235Y398079D01*
X88854Y398016D01*
X88524Y397927D01*
X88244Y397812D01*
X88016Y397673D01*
X87838Y397508D01*
X87711Y397317D01*
X87635Y397101D01*
X87610Y396860D01*
Y401940D01*
X87635Y401699D01*
D02*
G37*
D10*
X563000Y394000D02*
Y525000D01*
X553920Y384920D02*
X563000Y394000D01*
X506000Y384920D02*
X553920D01*
X488000Y366920D02*
X506000Y384920D01*
X488000Y360000D02*
Y366920D01*
X487600Y359600D02*
X488000Y360000D01*
X487600Y347000D02*
Y359600D01*
X557000Y395184D02*
Y455700D01*
X551816Y390000D02*
X557000Y395184D01*
X550432Y396000D02*
X551920Y397488D01*
X538100Y474600D02*
X557000Y455700D01*
X452000Y396000D02*
X550432D01*
X548800Y449200D02*
X551920Y446080D01*
Y397488D02*
Y446080D01*
X454000Y390000D02*
X551816D01*
X590000Y537000D02*
X626000Y573000D01*
Y587000D01*
X435000Y371000D02*
X454000Y390000D01*
X315000Y371000D02*
X435000D01*
X309000Y377000D02*
X315000Y371000D01*
X309000Y377000D02*
Y387400D01*
X308400Y388000D02*
X309000Y387400D01*
X441000Y407000D02*
X452000Y396000D01*
X538100Y449200D02*
X548800D01*
X313000Y407000D02*
X441000D01*
X308400Y411600D02*
X313000Y407000D01*
X308400Y411600D02*
Y423000D01*
X202400Y399400D02*
X294000Y491000D01*
X331000D01*
X77000Y399400D02*
X202400D01*
X77000Y478600D02*
X77600Y478000D01*
X257000D01*
X293000Y514000D01*
X331000D01*
X423065Y436065D02*
Y564935D01*
X450590Y511310D02*
Y690590D01*
X492356Y732356D01*
X450590Y511310D02*
X461900Y500000D01*
X411000Y577000D02*
X423065Y564935D01*
X410000Y423000D02*
X423065Y436065D01*
X492356Y732356D02*
X500356D01*
X501000Y713000D02*
X528000D01*
X549410Y511310D02*
Y691590D01*
X528000Y713000D02*
X549410Y691590D01*
X500356Y732356D02*
X501000Y733000D01*
X538100Y500000D02*
X549410Y511310D01*
D16*
X950000Y950000D02*
D03*
Y50000D02*
D03*
X50000D02*
D03*
Y950000D02*
D03*
D17*
X590000Y463000D02*
D03*
X691600D02*
D03*
Y537000D02*
D03*
X590000D02*
D03*
X410000Y388000D02*
D03*
X308400D02*
D03*
X410000Y423000D02*
D03*
X308400D02*
D03*
X411000Y457000D02*
D03*
X309400D02*
D03*
X411000Y577000D02*
D03*
X309400D02*
D03*
X411000Y543000D02*
D03*
X309400D02*
D03*
X590000Y428000D02*
D03*
X691600D02*
D03*
D19*
X487600Y347000D02*
D03*
X513000D02*
D03*
D21*
X626000Y587000D02*
D03*
D22*
X651000D02*
D03*
X676000D02*
D03*
D23*
X538100Y500000D02*
D03*
X461900D02*
D03*
Y525400D02*
D03*
X538100D02*
D03*
X461900Y550800D02*
D03*
Y474600D02*
D03*
Y449200D02*
D03*
Y423800D02*
D03*
X538100Y576200D02*
D03*
Y550800D02*
D03*
Y474600D02*
D03*
Y449200D02*
D03*
Y423800D02*
D03*
D24*
X461900Y576200D02*
D03*
D27*
X501000Y713000D02*
D03*
Y733000D02*
D03*
X301000Y714000D02*
D03*
Y734000D02*
D03*
X701000Y713000D02*
D03*
Y733000D02*
D03*
X563000Y525000D02*
D03*
X331000Y491000D02*
D03*
Y514000D02*
D03*
D28*
X923000Y553000D02*
D03*
D29*
Y578400D02*
D03*
D30*
X77000Y656800D02*
D03*
Y399400D02*
D03*
D31*
Y696400D02*
D03*
Y736000D02*
D03*
Y439000D02*
D03*
Y478600D02*
D03*
D32*
X361600Y500000D02*
D03*
X387000D02*
D03*
X639000D02*
D03*
X613600D02*
D03*
M02*
