G04*
G04 #@! TF.GenerationSoftware,Altium Limited,Altium Designer,26.5.1 (12)*
G04*
G04 Layer_Color=8388736*
G04 Board_Origin=10000000|20450000*
%FSLAX44Y44*%
%MOMM*%
G71*
G04*
G04 #@! TF.SameCoordinates,CA43E853-15E9-4DD9-A235-6E08A6A4922E*
G04*
G04*
G04 #@! TF.FilePolarity,Negative*
G04*
G01*
G75*
%ADD16C,6.0000*%
%ADD17C,1.6510*%
%ADD18C,2.0000*%
%ADD19R,2.0000X2.0000*%
%ADD20C,1.5240*%
%ADD21R,1.3000X1.3000*%
%ADD22C,1.3000*%
%ADD23C,1.5000*%
%ADD24R,1.5000X1.5000*%
%ADD25R,2.3320X2.3320*%
%ADD26C,2.3320*%
%ADD27C,1.2700*%
%ADD28C,1.3700*%
%ADD29R,1.3700X1.3700*%
D16*
X950000Y950000D02*
D03*
Y50000D02*
D03*
X50000D02*
D03*
Y950000D02*
D03*
D17*
X590000Y463000D02*
D03*
X691600D02*
D03*
Y537000D02*
D03*
X590000D02*
D03*
X410000Y388000D02*
D03*
X308400D02*
D03*
X410000Y423000D02*
D03*
X308400D02*
D03*
X411000Y457000D02*
D03*
X309400D02*
D03*
X411000Y577000D02*
D03*
X309400D02*
D03*
X411000Y543000D02*
D03*
X309400D02*
D03*
X590000Y428000D02*
D03*
X691600D02*
D03*
D18*
X487600Y347000D02*
D03*
D19*
X513000D02*
D03*
D20*
X361600Y500000D02*
D03*
X387000D02*
D03*
X639000D02*
D03*
X613600D02*
D03*
D21*
X626000Y587000D02*
D03*
D22*
X651000D02*
D03*
X676000D02*
D03*
D23*
X538100Y500000D02*
D03*
X461900D02*
D03*
Y525400D02*
D03*
X538100D02*
D03*
X461900Y550800D02*
D03*
Y474600D02*
D03*
Y449200D02*
D03*
Y423800D02*
D03*
X538100Y576200D02*
D03*
Y550800D02*
D03*
Y474600D02*
D03*
Y449200D02*
D03*
Y423800D02*
D03*
D24*
X461900Y576200D02*
D03*
D25*
X77000Y656800D02*
D03*
Y399400D02*
D03*
D26*
Y696400D02*
D03*
Y736000D02*
D03*
Y439000D02*
D03*
Y478600D02*
D03*
D27*
X501000Y713000D02*
D03*
Y733000D02*
D03*
X301000Y714000D02*
D03*
Y734000D02*
D03*
X701000Y713000D02*
D03*
Y733000D02*
D03*
X563000Y525000D02*
D03*
X331000Y491000D02*
D03*
Y514000D02*
D03*
D28*
X923000Y553000D02*
D03*
D29*
Y578400D02*
D03*
M02*
