M48
;Layer_Color=9474304
;FILE_FORMAT=4:4
METRIC,LZ
;TYPE=PLATED
T01F00S00C0.7000
T02F00S00C0.7112
T03F00S00C0.7620
T04F00S00C0.8000
T05F00S00C0.9000
T06F00S00C1.0000
T07F00S00C1.0200
T08F00S00C1.7780
T09F00S00C3.2000
%
T01
X003084Y00388
Y00423
X003094Y00457
Y00543
Y00577
X00411
Y00543
X00387Y005
X003616
X00411Y00457
X0041Y00423
Y00388
X0059Y00428
Y00463
X006136Y005
X00639
X0059Y00537
X006916
Y00463
Y00428
T02
X00331Y00491
Y00514
X00563Y00525
T03
X00701Y00713
Y00733
X00501
Y00713
X00301Y00714
Y00734
T04
X00626Y00587
X00651
X00676
T05
X004619Y004238
Y004492
Y004746
Y005
Y005254
Y005508
Y005762
X005381
Y005508
Y005254
Y005
Y004746
Y004492
Y004238
T06
X004876Y00347
X00513
T07
X00923Y00553
Y005784
T08
X00077Y003994
Y00439
Y004786
Y006568
Y006964
Y00736
T09
X0095Y0005
X0005
X0095Y0095
X0005
M30
