G04*
G04 #@! TF.GenerationSoftware,Altium Limited,Altium Designer,26.5.1 (12)*
G04*
G04 Layer_Physical_Order=1*
G04 Layer_Color=255*
G04 Board_Origin=11811024|11811023*
%FSLAX44Y44*%
%MOMM*%
G71*
G04*
G04 #@! TF.SameCoordinates,DEDC9F41-5D7C-49D3-A0D0-9BEC21177D59*
G04*
G04*
G04 #@! TF.FilePolarity,Positive*
G04*
G01*
G75*
%ADD22C,1.3000*%
%ADD23C,1.2700*%
%ADD27R,1.3000X1.3000*%
%ADD30C,0.3000*%
%ADD31C,1.5000*%
%ADD32R,1.5000X1.5000*%
%ADD33C,6.0000*%
%ADD34C,2.1280*%
%ADD35C,1.5240*%
%ADD36C,1.6510*%
%ADD37R,2.0000X2.0000*%
%ADD38C,2.0000*%
%ADD39R,2.1280X2.1280*%
%ADD40C,1.6000*%
G36*
X13000Y991646D02*
X987000D01*
X987118Y991670D01*
X988796Y991336D01*
X990319Y990319D01*
X991336Y988796D01*
X991670Y987118D01*
X991646Y987000D01*
Y13000D01*
X991670Y12882D01*
X991336Y11204D01*
X990319Y9681D01*
X988796Y8664D01*
X987118Y8330D01*
X987000Y8354D01*
X13000D01*
X12882Y8330D01*
X11204Y8664D01*
X9681Y9681D01*
X8664Y11204D01*
X8330Y12882D01*
X8354Y13000D01*
Y775000D01*
Y987000D01*
X8330Y987118D01*
X8664Y988796D01*
X9681Y990319D01*
X11204Y991336D01*
X12882Y991670D01*
X13000Y991646D01*
D02*
G37*
%LPC*%
G36*
X952561Y982540D02*
X951270D01*
Y951270D01*
X982540D01*
Y952561D01*
X981739Y957620D01*
X980156Y962491D01*
X977831Y967055D01*
X974820Y971198D01*
X971198Y974820D01*
X967055Y977831D01*
X962491Y980156D01*
X957620Y981739D01*
X952561Y982540D01*
D02*
G37*
G36*
X948730D02*
X947439D01*
X942380Y981739D01*
X937509Y980156D01*
X932945Y977831D01*
X928802Y974820D01*
X925180Y971198D01*
X922169Y967055D01*
X919844Y962491D01*
X918261Y957620D01*
X917460Y952561D01*
Y951270D01*
X948730D01*
Y982540D01*
D02*
G37*
G36*
X52561D02*
X51270D01*
Y951270D01*
X82540D01*
Y952561D01*
X81739Y957620D01*
X80156Y962491D01*
X77831Y967055D01*
X74820Y971198D01*
X71198Y974820D01*
X67055Y977831D01*
X62491Y980156D01*
X57620Y981739D01*
X52561Y982540D01*
D02*
G37*
G36*
X48730D02*
X47439D01*
X42380Y981739D01*
X37509Y980156D01*
X32945Y977831D01*
X28802Y974820D01*
X25180Y971198D01*
X22169Y967055D01*
X19844Y962491D01*
X18261Y957620D01*
X17460Y952561D01*
Y951270D01*
X48730D01*
Y982540D01*
D02*
G37*
G36*
X982540Y948730D02*
X951270D01*
Y917460D01*
X952561D01*
X957620Y918261D01*
X962491Y919844D01*
X967055Y922169D01*
X971198Y925180D01*
X974820Y928802D01*
X977831Y932945D01*
X980156Y937509D01*
X981739Y942380D01*
X982540Y947439D01*
Y948730D01*
D02*
G37*
G36*
X948730D02*
X917460D01*
Y947439D01*
X918261Y942380D01*
X919844Y937509D01*
X922169Y932945D01*
X925180Y928802D01*
X928802Y925180D01*
X932945Y922169D01*
X937509Y919844D01*
X942380Y918261D01*
X947439Y917460D01*
X948730D01*
Y948730D01*
D02*
G37*
G36*
X82540D02*
X51270D01*
Y917460D01*
X52561D01*
X57620Y918261D01*
X62491Y919844D01*
X67055Y922169D01*
X71198Y925180D01*
X74820Y928802D01*
X77831Y932945D01*
X80156Y937509D01*
X81739Y942380D01*
X82540Y947439D01*
Y948730D01*
D02*
G37*
G36*
X48730D02*
X17460D01*
Y947439D01*
X18261Y942380D01*
X19844Y937509D01*
X22169Y932945D01*
X25180Y928802D01*
X28802Y925180D01*
X32945Y922169D01*
X37509Y919844D01*
X42380Y918261D01*
X47439Y917460D01*
X48730D01*
Y948730D01*
D02*
G37*
G36*
X526231Y894350D02*
X523769D01*
X521391Y893713D01*
X519259Y892482D01*
X518565Y891788D01*
X518330Y891635D01*
X517811Y891129D01*
X517364Y890735D01*
X516946Y890406D01*
X516559Y890138D01*
X516207Y889930D01*
X515894Y889777D01*
X515621Y889672D01*
X515388Y889607D01*
X515277Y889588D01*
X334723D01*
X334612Y889607D01*
X334379Y889672D01*
X334106Y889777D01*
X333793Y889930D01*
X333441Y890138D01*
X333091Y890380D01*
X332160Y891158D01*
X331670Y891635D01*
X331435Y891788D01*
X330741Y892482D01*
X328609Y893713D01*
X326231Y894350D01*
X323769D01*
X321391Y893713D01*
X319474Y892606D01*
X319443Y892592D01*
X319414Y892571D01*
X319259Y892482D01*
X319184Y892407D01*
X318796Y892129D01*
X318253Y891770D01*
X317170Y891146D01*
X316758Y890949D01*
X316363Y890788D01*
X316022Y890676D01*
X315740Y890606D01*
X315621Y890588D01*
X216000D01*
X214244Y890239D01*
X212756Y889244D01*
X183099Y859588D01*
X97687D01*
X97671Y859589D01*
X97302Y859675D01*
X96806Y859856D01*
X96196Y860151D01*
X95486Y860570D01*
X94688Y861116D01*
X93838Y861772D01*
X91833Y863551D01*
X90749Y864623D01*
X90507Y864783D01*
X89375Y865915D01*
X86265Y867710D01*
X82796Y868640D01*
X79204D01*
X75735Y867710D01*
X72625Y865915D01*
X70085Y863375D01*
X68290Y860265D01*
X67360Y856796D01*
Y853204D01*
X68290Y849735D01*
X70085Y846625D01*
X72625Y844085D01*
X75735Y842290D01*
X79204Y841360D01*
X82796D01*
X86265Y842290D01*
X89375Y844085D01*
X90507Y845217D01*
X90749Y845377D01*
X91833Y846449D01*
X93838Y848228D01*
X94688Y848884D01*
X95486Y849430D01*
X96196Y849849D01*
X96806Y850144D01*
X97302Y850325D01*
X97671Y850411D01*
X97687Y850412D01*
X185000D01*
X186756Y850761D01*
X188244Y851756D01*
X217901Y881412D01*
X315110D01*
X315203Y881395D01*
X315382Y881340D01*
X315580Y881254D01*
X315807Y881125D01*
X316062Y880943D01*
X316346Y880700D01*
X316655Y880390D01*
X316984Y880007D01*
X317380Y879482D01*
X317399Y879465D01*
X317518Y879259D01*
X319259Y877518D01*
X320762Y876650D01*
X321079Y875170D01*
Y874830D01*
X320762Y873350D01*
X319474Y872606D01*
X319443Y872592D01*
X319414Y872571D01*
X319259Y872482D01*
X319184Y872407D01*
X318796Y872129D01*
X318253Y871770D01*
X317170Y871146D01*
X316758Y870949D01*
X316363Y870788D01*
X316022Y870676D01*
X315740Y870606D01*
X315621Y870588D01*
X217000D01*
X215244Y870239D01*
X213756Y869244D01*
X124900Y780388D01*
X94640D01*
Y789440D01*
X67360D01*
Y762160D01*
X94640D01*
Y771212D01*
X126800D01*
X128556Y771561D01*
X130044Y772556D01*
X218901Y861412D01*
X315110D01*
X315203Y861395D01*
X315382Y861340D01*
X315580Y861254D01*
X315807Y861125D01*
X316062Y860943D01*
X316346Y860700D01*
X316655Y860390D01*
X316984Y860007D01*
X317380Y859482D01*
X317399Y859465D01*
X317518Y859259D01*
X318212Y858565D01*
X318365Y858330D01*
X318871Y857811D01*
X319265Y857364D01*
X319594Y856946D01*
X319862Y856559D01*
X320070Y856207D01*
X320223Y855894D01*
X320328Y855621D01*
X320393Y855388D01*
X320412Y855277D01*
Y843000D01*
X320761Y841244D01*
X321756Y839756D01*
X334756Y826756D01*
X336244Y825761D01*
X338000Y825412D01*
X711000D01*
X712756Y825761D01*
X714244Y826756D01*
X728244Y840756D01*
X729239Y842244D01*
X729588Y844000D01*
Y855277D01*
X729607Y855388D01*
X729672Y855621D01*
X729777Y855894D01*
X729930Y856207D01*
X730138Y856559D01*
X730380Y856909D01*
X731158Y857840D01*
X731635Y858330D01*
X731788Y858565D01*
X732482Y859259D01*
X733713Y861391D01*
X734350Y863769D01*
Y866231D01*
X733713Y868609D01*
X732482Y870741D01*
X730741Y872482D01*
X728674Y873675D01*
X728591Y874022D01*
X728468Y876097D01*
X728609Y876818D01*
X730459Y877886D01*
X732114Y879541D01*
X733284Y881569D01*
X733863Y883730D01*
X725000D01*
X716137D01*
X716716Y881569D01*
X717886Y879541D01*
X719541Y877886D01*
X721391Y876818D01*
X721532Y876097D01*
X721409Y874022D01*
X721326Y873675D01*
X719259Y872482D01*
X717518Y870741D01*
X716287Y868609D01*
X715650Y866231D01*
Y863769D01*
X716287Y861391D01*
X717518Y859259D01*
X718212Y858565D01*
X718365Y858330D01*
X718871Y857811D01*
X719265Y857364D01*
X719594Y856946D01*
X719862Y856559D01*
X720070Y856207D01*
X720223Y855894D01*
X720328Y855621D01*
X720393Y855388D01*
X720412Y855277D01*
Y845900D01*
X709100Y834588D01*
X339901D01*
X329588Y844901D01*
Y855277D01*
X329607Y855388D01*
X329672Y855621D01*
X329777Y855894D01*
X329930Y856207D01*
X330138Y856559D01*
X330381Y856909D01*
X331158Y857840D01*
X331635Y858330D01*
X331788Y858565D01*
X332482Y859259D01*
X333713Y861391D01*
X334350Y863769D01*
Y866231D01*
X333713Y868609D01*
X332482Y870741D01*
X330741Y872482D01*
X329238Y873350D01*
X328921Y874830D01*
Y875170D01*
X329238Y876650D01*
X330741Y877518D01*
X331435Y878212D01*
X331670Y878365D01*
X332189Y878871D01*
X332636Y879265D01*
X333054Y879595D01*
X333441Y879862D01*
X333793Y880070D01*
X334106Y880223D01*
X334379Y880328D01*
X334612Y880393D01*
X334723Y880412D01*
X515277D01*
X515388Y880393D01*
X515621Y880328D01*
X515894Y880223D01*
X516207Y880070D01*
X516559Y879862D01*
X516909Y879620D01*
X517840Y878842D01*
X518330Y878365D01*
X518565Y878212D01*
X519259Y877518D01*
X521326Y876325D01*
X521409Y875978D01*
X521532Y873903D01*
X521391Y873182D01*
X519541Y872114D01*
X517886Y870459D01*
X516716Y868431D01*
X516137Y866270D01*
X525000D01*
X533863D01*
X533284Y868431D01*
X532114Y870459D01*
X530459Y872114D01*
X528609Y873182D01*
X528468Y873903D01*
X528591Y875978D01*
X528674Y876325D01*
X530741Y877518D01*
X532482Y879259D01*
X533713Y881391D01*
X534350Y883769D01*
Y886231D01*
X533713Y888609D01*
X532482Y890741D01*
X530741Y892482D01*
X528609Y893713D01*
X526231Y894350D01*
D02*
G37*
G36*
X726270Y893863D02*
Y886270D01*
X733863D01*
X733284Y888431D01*
X732114Y890459D01*
X730459Y892114D01*
X728431Y893284D01*
X726270Y893863D01*
D02*
G37*
G36*
X723730D02*
X721569Y893284D01*
X719541Y892114D01*
X717886Y890459D01*
X716716Y888431D01*
X716137Y886270D01*
X723730D01*
Y893863D01*
D02*
G37*
G36*
X533863Y863730D02*
X526270D01*
Y856137D01*
X528431Y856716D01*
X530459Y857886D01*
X532114Y859541D01*
X533284Y861569D01*
X533863Y863730D01*
D02*
G37*
G36*
X523730D02*
X516137D01*
X516716Y861569D01*
X517886Y859541D01*
X519541Y857886D01*
X521569Y856716D01*
X523730Y856137D01*
Y863730D01*
D02*
G37*
G36*
X82735Y828580D02*
X82270D01*
Y816670D01*
X94180D01*
Y817135D01*
X93282Y820487D01*
X91547Y823493D01*
X89093Y825947D01*
X86087Y827682D01*
X82735Y828580D01*
D02*
G37*
G36*
X79730D02*
X79265D01*
X75913Y827682D01*
X72907Y825947D01*
X70453Y823493D01*
X68718Y820487D01*
X67820Y817135D01*
Y816670D01*
X79730D01*
Y828580D01*
D02*
G37*
G36*
X94180Y814130D02*
X82270D01*
Y802220D01*
X82735D01*
X86087Y803118D01*
X89093Y804853D01*
X91547Y807307D01*
X93282Y810313D01*
X94180Y813665D01*
Y814130D01*
D02*
G37*
G36*
X79730D02*
X67820D01*
Y813665D01*
X68718Y810313D01*
X70453Y807307D01*
X72907Y804853D01*
X75913Y803118D01*
X79265Y802220D01*
X79730D01*
Y814130D01*
D02*
G37*
G36*
X533000Y795588D02*
X480000D01*
X478244Y795239D01*
X476756Y794244D01*
X446517Y764005D01*
X445231Y764350D01*
X442769D01*
X440391Y763713D01*
X438259Y762482D01*
X436518Y760741D01*
X435287Y758609D01*
X434650Y756231D01*
Y753769D01*
X435287Y751391D01*
X436518Y749259D01*
X438259Y747518D01*
X440391Y746287D01*
X442769Y745650D01*
X445231D01*
X447609Y746287D01*
X449741Y747518D01*
X449850Y747627D01*
X453196Y746731D01*
X453287Y746391D01*
X454518Y744259D01*
X456259Y742518D01*
X458391Y741287D01*
X460769Y740650D01*
X463231D01*
X464517Y740995D01*
X469756Y735756D01*
X471244Y734761D01*
X473000Y734412D01*
X500000D01*
Y726000D01*
X526000D01*
Y728773D01*
X529000Y730015D01*
X530418Y728597D01*
X533382Y726886D01*
X536688Y726000D01*
X540112D01*
X543418Y726886D01*
X546382Y728597D01*
X548803Y731018D01*
X550514Y733982D01*
X550629Y734412D01*
X607650D01*
Y732769D01*
X608234Y730588D01*
X608244Y730325D01*
X606441Y727588D01*
X598000D01*
X596244Y727239D01*
X594756Y726244D01*
X581756Y713244D01*
X580761Y711756D01*
X580412Y710000D01*
Y678901D01*
X577239Y675728D01*
X573305D01*
X572232Y677587D01*
X570277Y679542D01*
X567883Y680924D01*
X565212Y681640D01*
X562448D01*
X559777Y680924D01*
X557383Y679542D01*
X555428Y677587D01*
X554046Y675193D01*
X553330Y672522D01*
Y669758D01*
X554046Y667087D01*
X555428Y664693D01*
X557383Y662738D01*
X559777Y661356D01*
X562448Y660640D01*
X565212D01*
X567883Y661356D01*
X570277Y662738D01*
X572232Y664693D01*
X573305Y666552D01*
X579140D01*
X580896Y666901D01*
X582384Y667896D01*
X588244Y673756D01*
X589239Y675244D01*
X589588Y677000D01*
Y708100D01*
X599901Y718412D01*
X737412D01*
Y708901D01*
X725395Y696884D01*
X722395Y698126D01*
Y699421D01*
X721659Y702167D01*
X720238Y704628D01*
X718228Y706638D01*
X715767Y708059D01*
X713021Y708795D01*
X712870D01*
Y698000D01*
X711600D01*
Y696730D01*
X700805D01*
Y696579D01*
X701541Y693833D01*
X702962Y691372D01*
X704972Y689362D01*
X707433Y687941D01*
X708783Y687579D01*
X710151Y684700D01*
X710146Y684219D01*
X709725Y683588D01*
X679000D01*
X677244Y683239D01*
X675756Y682244D01*
X667866Y674354D01*
X666871Y672866D01*
X666522Y671110D01*
Y658761D01*
X665277Y658042D01*
X663508Y656273D01*
X662258Y654107D01*
X661610Y651691D01*
Y649189D01*
X662258Y646773D01*
X663508Y644607D01*
X665277Y642838D01*
X667443Y641587D01*
X669859Y640940D01*
X672361D01*
X674777Y641587D01*
X676943Y642838D01*
X678712Y644607D01*
X679963Y646773D01*
X680610Y649189D01*
Y651691D01*
X679963Y654107D01*
X678712Y656273D01*
X676943Y658042D01*
X675698Y658761D01*
Y669210D01*
X680900Y674412D01*
X714000D01*
X715756Y674761D01*
X717244Y675756D01*
X734640Y693152D01*
X737412Y692003D01*
Y505997D01*
X734640Y504848D01*
X725244Y514244D01*
X723756Y515239D01*
X722000Y515588D01*
X699838D01*
X680638Y534788D01*
X681010Y536177D01*
Y538678D01*
X680363Y541094D01*
X679112Y543261D01*
X677343Y545029D01*
X675177Y546280D01*
X672761Y546927D01*
X670259D01*
X667843Y546280D01*
X665677Y545029D01*
X663908Y543261D01*
X662657Y541094D01*
X662010Y538678D01*
Y536177D01*
X662382Y534788D01*
X658782Y531188D01*
X656010Y532336D01*
Y546927D01*
X637010D01*
Y542016D01*
X621427D01*
X619797Y541691D01*
X613244Y548244D01*
X611756Y549239D01*
X610000Y549588D01*
X572809D01*
X572232Y550587D01*
X570277Y552542D01*
X567883Y553924D01*
X565212Y554640D01*
X562448D01*
X559777Y553924D01*
X557383Y552542D01*
X555428Y550587D01*
X554046Y548193D01*
X553330Y545522D01*
Y542758D01*
X554046Y540087D01*
X555428Y537693D01*
X557383Y535738D01*
X559777Y534356D01*
X562448Y533640D01*
X565212D01*
X567883Y534356D01*
X570277Y535738D01*
X572232Y537693D01*
X573614Y540087D01*
X573701Y540412D01*
X608100D01*
X614756Y533756D01*
X616244Y532761D01*
X618000Y532412D01*
X621000D01*
X622756Y532761D01*
X622873Y532839D01*
X637010D01*
Y527928D01*
X649978D01*
X651443Y524927D01*
X650398Y523588D01*
X622000D01*
X620693Y523328D01*
X573305D01*
X572232Y525187D01*
X570277Y527142D01*
X567883Y528524D01*
X565212Y529240D01*
X562448D01*
X559777Y528524D01*
X557383Y527142D01*
X555428Y525187D01*
X554046Y522793D01*
X553330Y520122D01*
Y517358D01*
X554046Y514687D01*
X555428Y512293D01*
X557383Y510338D01*
X559777Y508956D01*
X562448Y508240D01*
X565212D01*
X567883Y508956D01*
X570277Y510338D01*
X572232Y512293D01*
X573305Y514152D01*
X621740D01*
X623047Y514412D01*
X653083D01*
X654838Y514761D01*
X656327Y515756D01*
X668871Y528300D01*
X670259Y527928D01*
X672761D01*
X674149Y528300D01*
X694693Y507756D01*
X696182Y506761D01*
X697937Y506412D01*
X703503D01*
X704745Y503412D01*
X703962Y502628D01*
X702541Y500167D01*
X701805Y497421D01*
Y497270D01*
X712600D01*
X723395D01*
Y497421D01*
X722863Y499405D01*
X725521Y500991D01*
X730412Y496100D01*
Y388900D01*
X723259Y381748D01*
X719393Y382124D01*
X718511Y383006D01*
X715944Y384488D01*
X713082Y385255D01*
X710118D01*
X707256Y384488D01*
X704689Y383006D01*
X702594Y380911D01*
X701112Y378344D01*
X700345Y375482D01*
Y372518D01*
X701112Y369656D01*
X702594Y367089D01*
X704689Y364994D01*
X707256Y363512D01*
X710118Y362745D01*
X713082D01*
X715944Y363512D01*
X718511Y364994D01*
X720606Y367089D01*
X722088Y369656D01*
X722183Y370009D01*
X722598D01*
X724353Y370359D01*
X725842Y371353D01*
X734640Y380152D01*
X737412Y379003D01*
Y362901D01*
X723443Y348932D01*
X723442Y348932D01*
X722950Y349201D01*
X722395Y349559D01*
X721815Y349987D01*
X720397Y351214D01*
X719640Y351959D01*
X719400Y352117D01*
X718511Y353006D01*
X715944Y354488D01*
X713082Y355255D01*
X710118D01*
X707256Y354488D01*
X704689Y353006D01*
X702594Y350911D01*
X701112Y348344D01*
X700345Y345482D01*
Y342518D01*
X701112Y339656D01*
X702594Y337089D01*
X703997Y335686D01*
X704137Y335497D01*
X704647Y335036D01*
X704689Y334994D01*
X704702Y334987D01*
X704923Y334786D01*
X705567Y334148D01*
X706112Y333547D01*
X706561Y332990D01*
X706914Y332481D01*
X707177Y332028D01*
X707357Y331638D01*
X707466Y331315D01*
X707512Y331093D01*
Y287733D01*
X707467Y287507D01*
X707352Y287140D01*
X707163Y286687D01*
X706891Y286156D01*
X706533Y285556D01*
X706103Y284920D01*
X704901Y283381D01*
X704173Y282548D01*
X704093Y282410D01*
X703594Y281911D01*
X702112Y279344D01*
X701345Y276482D01*
Y273518D01*
X702112Y270656D01*
X703594Y268089D01*
X705689Y265994D01*
X708256Y264512D01*
X711118Y263745D01*
X714082D01*
X716944Y264512D01*
X719511Y265994D01*
X721606Y268089D01*
X723088Y270656D01*
X723855Y273518D01*
Y276482D01*
X723088Y279344D01*
X721606Y281911D01*
X720203Y283314D01*
X720063Y283503D01*
X719553Y283964D01*
X719511Y284006D01*
X719499Y284013D01*
X719277Y284214D01*
X718633Y284852D01*
X718088Y285453D01*
X717639Y286010D01*
X717286Y286520D01*
X717023Y286973D01*
X716843Y287362D01*
X716734Y287685D01*
X716688Y287907D01*
Y331267D01*
X716733Y331493D01*
X716848Y331860D01*
X717037Y332313D01*
X717309Y332844D01*
X717667Y333445D01*
X718097Y334080D01*
X719299Y335619D01*
X719796Y336187D01*
X721150Y337468D01*
X721785Y337991D01*
X722395Y338441D01*
X722950Y338799D01*
X723442Y339068D01*
X723864Y339254D01*
X724210Y339366D01*
X724435Y339412D01*
X725000D01*
X726756Y339761D01*
X728244Y340756D01*
X745244Y357756D01*
X746239Y359244D01*
X746588Y361000D01*
Y707000D01*
Y721243D01*
X746239Y722998D01*
X745244Y724487D01*
X743487Y726244D01*
X741998Y727239D01*
X740243Y727588D01*
X627559D01*
X625756Y730325D01*
X625766Y730588D01*
X626350Y732769D01*
Y735231D01*
X625713Y737609D01*
X624482Y739741D01*
X622741Y741482D01*
X620609Y742713D01*
X618231Y743350D01*
X615769D01*
X613391Y742713D01*
X613147Y742572D01*
X612149Y743239D01*
X610393Y743588D01*
X550629D01*
X550514Y744018D01*
X548803Y746982D01*
X546382Y749403D01*
X543418Y751114D01*
X540112Y752000D01*
X536688D01*
X533382Y751114D01*
X530418Y749403D01*
X529000Y747985D01*
X526000Y749227D01*
Y752000D01*
X500000D01*
Y743588D01*
X474901D01*
X471005Y747483D01*
X471350Y748769D01*
Y751231D01*
X470713Y753609D01*
X469482Y755741D01*
X467741Y757482D01*
X465609Y758713D01*
X463231Y759350D01*
X460769D01*
X458391Y758713D01*
X456674Y761186D01*
X481900Y786412D01*
X499180D01*
X500600Y784000D01*
Y758000D01*
X526600D01*
Y760773D01*
X529600Y762015D01*
X531018Y760597D01*
X533982Y758886D01*
X537289Y758000D01*
X540712D01*
X544018Y758886D01*
X546982Y760597D01*
X549403Y763018D01*
X551114Y765982D01*
X552000Y769288D01*
Y772711D01*
X551114Y776018D01*
X549403Y778982D01*
X546982Y781403D01*
X545404Y782314D01*
X545212Y782484D01*
X544737Y782762D01*
X544447Y782972D01*
X544219Y783175D01*
X544042Y783374D01*
X543903Y783572D01*
X543791Y783782D01*
X543700Y784016D01*
X543628Y784291D01*
X543588Y784561D01*
Y785000D01*
X543239Y786756D01*
X542244Y788244D01*
X536244Y794244D01*
X534756Y795239D01*
X533000Y795588D01*
D02*
G37*
G36*
X329882Y723255D02*
X326918D01*
X324056Y722488D01*
X321489Y721006D01*
X319394Y718911D01*
X317912Y716344D01*
X317145Y713482D01*
Y710518D01*
X317912Y707656D01*
X319394Y705089D01*
X321489Y702994D01*
X324056Y701512D01*
X326918Y700745D01*
X329882D01*
X332744Y701512D01*
X335311Y702994D01*
X337406Y705089D01*
X338888Y707656D01*
X339655Y710518D01*
Y713482D01*
X338888Y716344D01*
X337406Y718911D01*
X335311Y721006D01*
X332744Y722488D01*
X329882Y723255D01*
D02*
G37*
G36*
X710330Y708795D02*
X710179D01*
X707433Y708059D01*
X704972Y706638D01*
X702962Y704628D01*
X701541Y702167D01*
X700805Y699421D01*
Y699270D01*
X710330D01*
Y708795D01*
D02*
G37*
G36*
X611482Y709255D02*
X608518D01*
X605656Y708488D01*
X603089Y707006D01*
X600994Y704911D01*
X599512Y702344D01*
X598745Y699482D01*
Y696518D01*
X598805Y696294D01*
X596756Y694244D01*
X595761Y692756D01*
X595412Y691000D01*
Y664901D01*
X584196Y653684D01*
X580840Y650328D01*
X573305D01*
X572232Y652187D01*
X570277Y654142D01*
X567883Y655524D01*
X565212Y656240D01*
X562448D01*
X559777Y655524D01*
X557383Y654142D01*
X555428Y652187D01*
X554046Y649793D01*
X553330Y647122D01*
Y644358D01*
X554046Y641687D01*
X555428Y639293D01*
X557383Y637338D01*
X559777Y635956D01*
X562448Y635240D01*
X565212D01*
X567883Y635956D01*
X570277Y637338D01*
X572232Y639293D01*
X573305Y641152D01*
X582740D01*
X584496Y641501D01*
X585984Y642496D01*
X589341Y645852D01*
X636610D01*
Y640940D01*
X655610D01*
Y659940D01*
X636610D01*
Y655028D01*
X602436D01*
X601288Y657800D01*
X603244Y659756D01*
X604239Y661244D01*
X604588Y663000D01*
Y684838D01*
X607588Y686994D01*
X608518Y686745D01*
X611482D01*
X614344Y687512D01*
X616911Y688994D01*
X619006Y691089D01*
X620488Y693656D01*
X621255Y696518D01*
Y699482D01*
X620488Y702344D01*
X619006Y704911D01*
X616911Y707006D01*
X614344Y708488D01*
X611482Y709255D01*
D02*
G37*
G36*
X414000Y764588D02*
X306000D01*
X304244Y764239D01*
X302756Y763244D01*
X282756Y743244D01*
X281761Y741756D01*
X281412Y740000D01*
Y699000D01*
X281761Y697244D01*
X282756Y695756D01*
X297756Y680756D01*
X299244Y679761D01*
X301000Y679412D01*
X316653D01*
X317994Y677089D01*
X320089Y674994D01*
X322656Y673512D01*
X325518Y672745D01*
X328482D01*
X331344Y673512D01*
X333911Y674994D01*
X336006Y677089D01*
X337488Y679656D01*
X338255Y682518D01*
Y685482D01*
X337488Y688344D01*
X336006Y690911D01*
X333911Y693006D01*
X331344Y694488D01*
X328482Y695255D01*
X325518D01*
X322656Y694488D01*
X320089Y693006D01*
X317994Y690911D01*
X316653Y688588D01*
X302901D01*
X290588Y700900D01*
Y738100D01*
X293045Y740556D01*
X296000Y739269D01*
Y737552D01*
X296750Y734754D01*
X298198Y732246D01*
X300246Y730198D01*
X302754Y728750D01*
X305552Y728000D01*
X308448D01*
X311246Y728750D01*
X313754Y730198D01*
X315802Y732246D01*
X317250Y734754D01*
X318000Y737552D01*
Y740448D01*
X317353Y742864D01*
X321900Y747412D01*
X410099D01*
X425412Y732100D01*
Y722347D01*
X423089Y721006D01*
X420994Y718911D01*
X419512Y716344D01*
X418745Y713482D01*
Y710518D01*
X419512Y707656D01*
X420994Y705089D01*
X423089Y702994D01*
X425656Y701512D01*
X428518Y700745D01*
X431482D01*
X434344Y701512D01*
X436911Y702994D01*
X439006Y705089D01*
X440488Y707656D01*
X441255Y710518D01*
Y713482D01*
X440488Y716344D01*
X439006Y718911D01*
X436911Y721006D01*
X434588Y722347D01*
Y729004D01*
X437360Y730152D01*
X464412Y703100D01*
Y689770D01*
X464761Y688014D01*
X465756Y686526D01*
X477130Y675151D01*
Y660640D01*
X498130D01*
Y681640D01*
X483619D01*
X473588Y691671D01*
Y705000D01*
X473239Y706756D01*
X472244Y708244D01*
X417244Y763244D01*
X415756Y764239D01*
X414000Y764588D01*
D02*
G37*
G36*
X430082Y695255D02*
X427118D01*
X424256Y694488D01*
X421689Y693006D01*
X419594Y690911D01*
X418112Y688344D01*
X417345Y685482D01*
Y682518D01*
X418112Y679656D01*
X419594Y677089D01*
X421689Y674994D01*
X424012Y673653D01*
Y655500D01*
X422099Y653588D01*
X414014D01*
X412898Y655521D01*
X410921Y657498D01*
X408499Y658896D01*
X405798Y659620D01*
X403002D01*
X400301Y658896D01*
X397879Y657498D01*
X395902Y655521D01*
X394504Y653099D01*
X393780Y650398D01*
Y647602D01*
X394504Y644901D01*
X395902Y642479D01*
X397879Y640502D01*
X400301Y639104D01*
X403002Y638380D01*
X405798D01*
X408499Y639104D01*
X410921Y640502D01*
X412898Y642479D01*
X414014Y644412D01*
X422099D01*
X431756Y634756D01*
X433244Y633761D01*
X435000Y633412D01*
X478400D01*
X480155Y633761D01*
X481644Y634756D01*
X483112Y636224D01*
X483577Y635956D01*
X486248Y635240D01*
X489012D01*
X491683Y635956D01*
X494077Y637338D01*
X496032Y639293D01*
X497414Y641687D01*
X498130Y644358D01*
Y647122D01*
X497414Y649793D01*
X496032Y652187D01*
X494077Y654142D01*
X491683Y655524D01*
X489012Y656240D01*
X486248D01*
X483577Y655524D01*
X481183Y654142D01*
X479228Y652187D01*
X477846Y649793D01*
X477130Y647122D01*
Y644358D01*
X474546Y642588D01*
X436900D01*
X430489Y649000D01*
X431844Y650356D01*
X432839Y651844D01*
X433188Y653600D01*
Y673653D01*
X435511Y674994D01*
X437606Y677089D01*
X439088Y679656D01*
X439855Y682518D01*
Y685482D01*
X439088Y688344D01*
X437606Y690911D01*
X435511Y693006D01*
X432944Y694488D01*
X430082Y695255D01*
D02*
G37*
G36*
X697380Y659459D02*
Y651710D01*
X705129D01*
X704534Y653929D01*
X703344Y655991D01*
X701661Y657674D01*
X699599Y658864D01*
X697380Y659459D01*
D02*
G37*
G36*
X694840Y659458D02*
X692621Y658864D01*
X690559Y657674D01*
X688876Y655991D01*
X687686Y653929D01*
X687091Y651710D01*
X694840D01*
Y659458D01*
D02*
G37*
G36*
Y649170D02*
X687091D01*
X687686Y646951D01*
X688876Y644889D01*
X690559Y643206D01*
X692621Y642016D01*
X694840Y641421D01*
Y649170D01*
D02*
G37*
G36*
X705129D02*
X697380D01*
Y641421D01*
X699599Y642016D01*
X701661Y643206D01*
X703344Y644889D01*
X704534Y646951D01*
X705129Y649170D01*
D02*
G37*
G36*
X380398Y659620D02*
X377602D01*
X374901Y658896D01*
X372479Y657498D01*
X370502Y655521D01*
X369104Y653099D01*
X368380Y650398D01*
Y647602D01*
X369104Y644901D01*
X370502Y642479D01*
X372479Y640502D01*
X374901Y639104D01*
X377602Y638380D01*
X380398D01*
X383099Y639104D01*
X385521Y640502D01*
X387498Y642479D01*
X388896Y644901D01*
X389620Y647602D01*
Y650398D01*
X388896Y653099D01*
X387498Y655521D01*
X385521Y657498D01*
X383099Y658896D01*
X380398Y659620D01*
D02*
G37*
G36*
X488952Y630380D02*
X488900D01*
Y621610D01*
X497670D01*
Y621662D01*
X496986Y624215D01*
X495664Y626505D01*
X493795Y628374D01*
X491505Y629696D01*
X488952Y630380D01*
D02*
G37*
G36*
X486360D02*
X486308D01*
X483755Y629696D01*
X481465Y628374D01*
X479596Y626505D01*
X478274Y624215D01*
X477590Y621662D01*
Y621610D01*
X486360D01*
Y630380D01*
D02*
G37*
G36*
X565212Y630840D02*
X562448D01*
X559777Y630124D01*
X557383Y628742D01*
X555428Y626787D01*
X554046Y624393D01*
X553330Y621722D01*
Y618958D01*
X554046Y616287D01*
X555428Y613893D01*
X557383Y611938D01*
X559777Y610556D01*
X562448Y609840D01*
X565212D01*
X567883Y610556D01*
X570277Y611938D01*
X572232Y613893D01*
X573496Y616082D01*
X583762D01*
X584552Y614710D01*
X584859Y613082D01*
X583518Y611741D01*
X582287Y609609D01*
X581650Y607231D01*
Y604769D01*
X582287Y602391D01*
X582768Y601558D01*
X581182Y598558D01*
X573731D01*
X573614Y598993D01*
X572232Y601387D01*
X570277Y603342D01*
X567883Y604724D01*
X565212Y605440D01*
X562448D01*
X559777Y604724D01*
X557383Y603342D01*
X555428Y601387D01*
X554046Y598993D01*
X553330Y596322D01*
Y593558D01*
X554046Y590887D01*
X555428Y588493D01*
X557383Y586538D01*
X559777Y585156D01*
X562448Y584440D01*
X565212D01*
X567883Y585156D01*
X569448Y586059D01*
X570217Y585813D01*
X571352Y584334D01*
X570885Y583251D01*
X570616Y582815D01*
X567286Y579484D01*
X565212Y580040D01*
X562448D01*
X559777Y579324D01*
X557383Y577942D01*
X555428Y575987D01*
X554046Y573593D01*
X553330Y570922D01*
Y568158D01*
X554046Y565487D01*
X555428Y563093D01*
X557383Y561138D01*
X559777Y559756D01*
X562448Y559040D01*
X565212D01*
X567883Y559756D01*
X570277Y561138D01*
X572232Y563093D01*
X573614Y565487D01*
X574330Y568158D01*
Y570922D01*
X573774Y572996D01*
X577191Y576412D01*
X591852D01*
X592518Y575259D01*
X594259Y573518D01*
X596391Y572287D01*
X598769Y571650D01*
X601231D01*
X603609Y572287D01*
X605741Y573518D01*
X607482Y575259D01*
X608713Y577391D01*
X609350Y579769D01*
Y582231D01*
X608713Y584609D01*
X607689Y586382D01*
X608109Y587775D01*
X609084Y589382D01*
X623975D01*
X624104Y588901D01*
X625502Y586479D01*
X627479Y584502D01*
X629901Y583104D01*
X632602Y582380D01*
X635398D01*
X638099Y583104D01*
X640521Y584502D01*
X642498Y586479D01*
X643896Y588901D01*
X644620Y591602D01*
Y594398D01*
X643896Y597099D01*
X642498Y599521D01*
X640521Y601498D01*
X638099Y602896D01*
X635398Y603620D01*
X632602D01*
X629901Y602896D01*
X627479Y601498D01*
X625502Y599521D01*
X624946Y598558D01*
X600818D01*
X599232Y601558D01*
X599713Y602391D01*
X600350Y604769D01*
Y607231D01*
X599713Y609609D01*
X598482Y611741D01*
X597141Y613082D01*
X597448Y614710D01*
X598238Y616082D01*
X604893D01*
X605368Y615259D01*
X607109Y613518D01*
X609241Y612287D01*
X611619Y611650D01*
X614081D01*
X616459Y612287D01*
X618591Y613518D01*
X620332Y615259D01*
X621563Y617391D01*
X622200Y619769D01*
Y622231D01*
X621563Y624609D01*
X620332Y626741D01*
X618591Y628482D01*
X616459Y629713D01*
X614081Y630350D01*
X611619D01*
X609241Y629713D01*
X607109Y628482D01*
X605368Y626741D01*
X604512Y625258D01*
X573115D01*
X572232Y626787D01*
X570277Y628742D01*
X567883Y630124D01*
X565212Y630840D01*
D02*
G37*
G36*
X497670Y619070D02*
X488900D01*
Y610300D01*
X488952D01*
X491505Y610984D01*
X493795Y612306D01*
X495664Y614175D01*
X496986Y616465D01*
X497670Y619018D01*
Y619070D01*
D02*
G37*
G36*
X486360D02*
X477590D01*
Y619018D01*
X478274Y616465D01*
X479596Y614175D01*
X481465Y612306D01*
X483755Y610984D01*
X486308Y610300D01*
X486360D01*
Y619070D01*
D02*
G37*
G36*
X380338Y605160D02*
X380270D01*
Y596270D01*
X389160D01*
Y596338D01*
X388468Y598922D01*
X387130Y601238D01*
X385238Y603130D01*
X382922Y604468D01*
X380338Y605160D01*
D02*
G37*
G36*
X377730D02*
X377662D01*
X375078Y604468D01*
X372762Y603130D01*
X370870Y601238D01*
X369532Y598922D01*
X368840Y596338D01*
Y596270D01*
X377730D01*
Y605160D01*
D02*
G37*
G36*
X660738Y603160D02*
X660670D01*
Y594270D01*
X669560D01*
Y594338D01*
X668868Y596922D01*
X667530Y599238D01*
X665638Y601130D01*
X663322Y602468D01*
X660738Y603160D01*
D02*
G37*
G36*
X658130D02*
X658062D01*
X655478Y602468D01*
X653162Y601130D01*
X651270Y599238D01*
X649932Y596922D01*
X649240Y594338D01*
Y594270D01*
X658130D01*
Y603160D01*
D02*
G37*
G36*
X389160Y593730D02*
X380270D01*
Y584840D01*
X380338D01*
X382922Y585532D01*
X385238Y586870D01*
X387130Y588762D01*
X388468Y591078D01*
X389160Y593662D01*
Y593730D01*
D02*
G37*
G36*
X377730D02*
X368840D01*
Y593662D01*
X369532Y591078D01*
X370870Y588762D01*
X372762Y586870D01*
X375078Y585532D01*
X377662Y584840D01*
X377730D01*
Y593730D01*
D02*
G37*
G36*
X405798Y605620D02*
X403002D01*
X400301Y604896D01*
X397879Y603498D01*
X395902Y601521D01*
X394504Y599099D01*
X393780Y596398D01*
Y593602D01*
X394504Y590901D01*
X395902Y588479D01*
X397879Y586502D01*
X400301Y585104D01*
X403002Y584380D01*
X405798D01*
X408499Y585104D01*
X410921Y586502D01*
X412898Y588479D01*
X414285Y590882D01*
X477849D01*
X479228Y588493D01*
X481183Y586538D01*
X483577Y585156D01*
X486248Y584440D01*
X489012D01*
X491683Y585156D01*
X494077Y586538D01*
X496032Y588493D01*
X497414Y590887D01*
X498130Y593558D01*
Y596322D01*
X497414Y598993D01*
X496032Y601387D01*
X494077Y603342D01*
X491683Y604724D01*
X489012Y605440D01*
X486248D01*
X483577Y604724D01*
X481183Y603342D01*
X479228Y601387D01*
X478461Y600058D01*
X413743D01*
X412898Y601521D01*
X410921Y603498D01*
X408499Y604896D01*
X405798Y605620D01*
D02*
G37*
G36*
X669560Y591730D02*
X660670D01*
Y582840D01*
X660738D01*
X663322Y583532D01*
X665638Y584870D01*
X667530Y586762D01*
X668868Y589078D01*
X669560Y591662D01*
Y591730D01*
D02*
G37*
G36*
X658130D02*
X649240D01*
Y591662D01*
X649932Y589078D01*
X651270Y586762D01*
X653162Y584870D01*
X655478Y583532D01*
X658062Y582840D01*
X658130D01*
Y591730D01*
D02*
G37*
G36*
X488952Y579580D02*
X488900D01*
Y570810D01*
X497670D01*
Y570862D01*
X496986Y573415D01*
X495664Y575705D01*
X493795Y577574D01*
X491505Y578896D01*
X488952Y579580D01*
D02*
G37*
G36*
X486360D02*
X486308D01*
X483755Y578896D01*
X481465Y577574D01*
X479596Y575705D01*
X478274Y573415D01*
X477590Y570862D01*
Y570810D01*
X486360D01*
Y579580D01*
D02*
G37*
G36*
X497670Y568270D02*
X488900D01*
Y559500D01*
X488952D01*
X491505Y560184D01*
X493795Y561506D01*
X495664Y563375D01*
X496986Y565665D01*
X497670Y568218D01*
Y568270D01*
D02*
G37*
G36*
X486360D02*
X477590D01*
Y568218D01*
X478274Y565665D01*
X479596Y563375D01*
X481465Y561506D01*
X483755Y560184D01*
X486308Y559500D01*
X486360D01*
Y568270D01*
D02*
G37*
G36*
X184082Y578255D02*
X181118D01*
X178256Y577488D01*
X175689Y576006D01*
X173594Y573911D01*
X172112Y571344D01*
X171345Y568482D01*
Y565518D01*
X172112Y562656D01*
X173594Y560089D01*
X175689Y557994D01*
X178256Y556512D01*
X181118Y555745D01*
X184082D01*
X186944Y556512D01*
X189511Y557994D01*
X191606Y560089D01*
X193088Y562656D01*
X193855Y565518D01*
Y568482D01*
X193088Y571344D01*
X191606Y573911D01*
X189511Y576006D01*
X186944Y577488D01*
X184082Y578255D01*
D02*
G37*
G36*
X429082Y575255D02*
X426118D01*
X423256Y574488D01*
X420689Y573006D01*
X418594Y570911D01*
X417112Y568344D01*
X416345Y565482D01*
Y562518D01*
X417112Y559656D01*
X418594Y557089D01*
X420689Y554994D01*
X423256Y553512D01*
X426118Y552745D01*
X429082D01*
X431944Y553512D01*
X434511Y554994D01*
X436606Y557089D01*
X438088Y559656D01*
X438855Y562518D01*
Y565482D01*
X438088Y568344D01*
X436606Y570911D01*
X434511Y573006D01*
X431944Y574488D01*
X429082Y575255D01*
D02*
G37*
G36*
X489012Y554640D02*
X486248D01*
X483577Y553924D01*
X481183Y552542D01*
X479228Y550587D01*
X478155Y548728D01*
X461659D01*
X459903Y548379D01*
X458415Y547384D01*
X455902Y544872D01*
X455246Y545250D01*
X452448Y546000D01*
X449552D01*
X446754Y545250D01*
X444246Y543802D01*
X442198Y541754D01*
X441710Y540910D01*
X438491Y541334D01*
X438488Y541344D01*
X437006Y543911D01*
X434911Y546006D01*
X432344Y547488D01*
X429482Y548255D01*
X426518D01*
X423656Y547488D01*
X421089Y546006D01*
X418994Y543911D01*
X417512Y541344D01*
X416745Y538482D01*
Y535518D01*
X417512Y532656D01*
X418994Y530089D01*
X421089Y527994D01*
X423656Y526512D01*
X426518Y525745D01*
X429482D01*
X432072Y526439D01*
X434152Y524360D01*
Y520640D01*
X422099Y508588D01*
X413614D01*
X412498Y510521D01*
X410521Y512498D01*
X408099Y513896D01*
X405398Y514620D01*
X402602D01*
X399901Y513896D01*
X397479Y512498D01*
X395502Y510521D01*
X394104Y508099D01*
X393380Y505398D01*
Y502602D01*
X394104Y499901D01*
X395502Y497479D01*
X397479Y495502D01*
X399901Y494104D01*
X402602Y493380D01*
X405398D01*
X408099Y494104D01*
X410521Y495502D01*
X412498Y497479D01*
X413614Y499412D01*
X424000D01*
X425756Y499761D01*
X427244Y500756D01*
X440640Y514152D01*
X478155D01*
X479228Y512293D01*
X481183Y510338D01*
X483577Y508956D01*
X486248Y508240D01*
X489012D01*
X491683Y508956D01*
X494077Y510338D01*
X496032Y512293D01*
X497414Y514687D01*
X498130Y517358D01*
Y520122D01*
X497414Y522793D01*
X496032Y525187D01*
X494077Y527142D01*
X491683Y528524D01*
X489012Y529240D01*
X486248D01*
X483577Y528524D01*
X481183Y527142D01*
X479228Y525187D01*
X478155Y523328D01*
X458784D01*
X457921Y525733D01*
X457884Y526328D01*
X459802Y528246D01*
X461250Y530754D01*
X462000Y533552D01*
Y536448D01*
X461774Y537291D01*
X463720Y539552D01*
X478155D01*
X479228Y537693D01*
X481183Y535738D01*
X483577Y534356D01*
X486248Y533640D01*
X489012D01*
X491683Y534356D01*
X494077Y535738D01*
X496032Y537693D01*
X497414Y540087D01*
X498130Y542758D01*
Y545522D01*
X497414Y548193D01*
X496032Y550587D01*
X494077Y552542D01*
X491683Y553924D01*
X489012Y554640D01*
D02*
G37*
G36*
X697780Y546446D02*
Y538697D01*
X705529D01*
X704934Y540917D01*
X703744Y542978D01*
X702061Y544661D01*
X699999Y545851D01*
X697780Y546446D01*
D02*
G37*
G36*
X695240Y546446D02*
X693021Y545851D01*
X690959Y544661D01*
X689276Y542978D01*
X688086Y540917D01*
X687491Y538697D01*
X695240D01*
Y546446D01*
D02*
G37*
G36*
X705529Y536157D02*
X697780D01*
Y528409D01*
X699999Y529003D01*
X702061Y530194D01*
X703744Y531877D01*
X704934Y533938D01*
X705529Y536157D01*
D02*
G37*
G36*
X695240D02*
X687491D01*
X688086Y533938D01*
X689276Y531877D01*
X690959Y530194D01*
X693021Y529003D01*
X695240Y528409D01*
Y536157D01*
D02*
G37*
G36*
X327482Y575255D02*
X324518D01*
X321656Y574488D01*
X319089Y573006D01*
X316994Y570911D01*
X315512Y568344D01*
X314745Y565482D01*
Y562518D01*
X315512Y559656D01*
X316994Y557089D01*
X319089Y554994D01*
X321612Y553537D01*
Y547232D01*
X319489Y546006D01*
X317394Y543911D01*
X315912Y541344D01*
X315145Y538482D01*
Y535518D01*
X315912Y532656D01*
X317394Y530089D01*
X319489Y527994D01*
X322056Y526512D01*
X324918Y525745D01*
X327882D01*
X330472Y526439D01*
X356156Y500756D01*
X357644Y499761D01*
X359400Y499412D01*
X368986D01*
X370102Y497479D01*
X372079Y495502D01*
X374501Y494104D01*
X377202Y493380D01*
X379998D01*
X382699Y494104D01*
X385121Y495502D01*
X387098Y497479D01*
X388496Y499901D01*
X389220Y502602D01*
Y505398D01*
X388496Y508099D01*
X387098Y510521D01*
X385121Y512498D01*
X382699Y513896D01*
X379998Y514620D01*
X377202D01*
X374501Y513896D01*
X372079Y512498D01*
X370102Y510521D01*
X368986Y508588D01*
X361301D01*
X336961Y532928D01*
X337655Y535518D01*
Y538482D01*
X336888Y541344D01*
X335406Y543911D01*
X333311Y546006D01*
X330788Y547463D01*
Y553768D01*
X332911Y554994D01*
X335006Y557089D01*
X336488Y559656D01*
X337255Y562518D01*
Y565482D01*
X336488Y568344D01*
X335006Y570911D01*
X332911Y573006D01*
X330344Y574488D01*
X327482Y575255D01*
D02*
G37*
G36*
X723395Y494730D02*
X713870D01*
Y485205D01*
X714021D01*
X716767Y485941D01*
X719228Y487362D01*
X721238Y489372D01*
X722659Y491833D01*
X723395Y494579D01*
Y494730D01*
D02*
G37*
G36*
X711330D02*
X701805D01*
Y494579D01*
X702541Y491833D01*
X703962Y489372D01*
X705972Y487362D01*
X708433Y485941D01*
X711179Y485205D01*
X711330D01*
Y494730D01*
D02*
G37*
G36*
X612482Y507255D02*
X609518D01*
X606656Y506488D01*
X604089Y505006D01*
X601994Y502911D01*
X600512Y500344D01*
X599745Y497482D01*
Y494518D01*
X600512Y491656D01*
X601994Y489089D01*
X604089Y486994D01*
X606656Y485512D01*
X609518Y484745D01*
X612482D01*
X615344Y485512D01*
X617911Y486994D01*
X620006Y489089D01*
X621488Y491656D01*
X622255Y494518D01*
Y497482D01*
X621488Y500344D01*
X620006Y502911D01*
X617911Y505006D01*
X615344Y506488D01*
X612482Y507255D01*
D02*
G37*
G36*
X932640Y509640D02*
X905360D01*
Y482360D01*
X932640D01*
Y509640D01*
D02*
G37*
G36*
X82482Y578255D02*
X79518D01*
X76656Y577488D01*
X74089Y576006D01*
X71994Y573911D01*
X70512Y571344D01*
X69745Y568482D01*
Y565518D01*
X70512Y562656D01*
X71994Y560089D01*
X72862Y559221D01*
X72999Y559003D01*
X74468Y557450D01*
X74991Y556815D01*
X75441Y556205D01*
X75799Y555650D01*
X76068Y555158D01*
X76254Y554736D01*
X76366Y554390D01*
X76412Y554165D01*
Y512687D01*
X76410Y512671D01*
X76325Y512302D01*
X76144Y511806D01*
X75849Y511196D01*
X75430Y510486D01*
X74884Y509688D01*
X74228Y508838D01*
X72449Y506833D01*
X71377Y505749D01*
X71217Y505507D01*
X70085Y504375D01*
X68290Y501265D01*
X67360Y497796D01*
Y494204D01*
X68290Y490735D01*
X70085Y487625D01*
X72625Y485085D01*
X75735Y483290D01*
X79204Y482360D01*
X82796D01*
X86265Y483290D01*
X89375Y485085D01*
X91915Y487625D01*
X93710Y490735D01*
X94640Y494204D01*
Y497796D01*
X93710Y501265D01*
X91915Y504375D01*
X90783Y505507D01*
X90623Y505749D01*
X89551Y506833D01*
X87772Y508838D01*
X87116Y509688D01*
X86569Y510486D01*
X86151Y511196D01*
X85856Y511806D01*
X85675Y512302D01*
X85590Y512671D01*
X85588Y512687D01*
Y554165D01*
X85634Y554390D01*
X85746Y554736D01*
X85932Y555158D01*
X86201Y555650D01*
X86559Y556205D01*
X86987Y556785D01*
X88214Y558203D01*
X88959Y558960D01*
X89116Y559200D01*
X90006Y560089D01*
X91488Y562656D01*
X92255Y565518D01*
Y568482D01*
X91488Y571344D01*
X90006Y573911D01*
X87911Y576006D01*
X85344Y577488D01*
X82482Y578255D01*
D02*
G37*
G36*
X920735Y469580D02*
X920270D01*
Y457670D01*
X932180D01*
Y458135D01*
X931282Y461487D01*
X929547Y464493D01*
X927093Y466947D01*
X924087Y468682D01*
X920735Y469580D01*
D02*
G37*
G36*
X917730D02*
X917265D01*
X913913Y468682D01*
X910907Y466947D01*
X908453Y464493D01*
X906718Y461487D01*
X905820Y458135D01*
Y457670D01*
X917730D01*
Y469580D01*
D02*
G37*
G36*
X82735D02*
X82270D01*
Y457670D01*
X94180D01*
Y458135D01*
X93282Y461487D01*
X91547Y464493D01*
X89093Y466947D01*
X86087Y468682D01*
X82735Y469580D01*
D02*
G37*
G36*
X79730D02*
X79265D01*
X75913Y468682D01*
X72907Y466947D01*
X70453Y464493D01*
X68718Y461487D01*
X67820Y458135D01*
Y457670D01*
X79730D01*
Y469580D01*
D02*
G37*
G36*
X535000Y482588D02*
X471000D01*
X469244Y482239D01*
X467756Y481244D01*
X444861Y458350D01*
X442769D01*
X440391Y457713D01*
X438259Y456482D01*
X436518Y454741D01*
X435287Y452609D01*
X434650Y450231D01*
Y447769D01*
X435287Y445391D01*
X436518Y443259D01*
X438259Y441518D01*
X440391Y440287D01*
X441783Y439914D01*
X442765Y437460D01*
X442764Y436652D01*
X431672Y425561D01*
X429082Y426255D01*
X426118D01*
X423256Y425488D01*
X420689Y424006D01*
X418594Y421911D01*
X417112Y419344D01*
X416345Y416482D01*
Y413518D01*
X417112Y410656D01*
X418594Y408089D01*
X420689Y405994D01*
X423256Y404512D01*
X426118Y403745D01*
X429082D01*
X431944Y404512D01*
X434511Y405994D01*
X436606Y408089D01*
X437454Y409557D01*
X440668Y409843D01*
X465036Y385476D01*
X466524Y384481D01*
X468280Y384132D01*
X478210D01*
Y378220D01*
X499210D01*
Y399220D01*
X478210D01*
Y393308D01*
X470181D01*
X445244Y418244D01*
X443756Y419239D01*
X442767Y419436D01*
X441379Y422291D01*
X473500Y454412D01*
X502000D01*
Y447000D01*
X502000Y444000D01*
X502000Y443000D01*
Y435588D01*
X470000D01*
X468244Y435239D01*
X466756Y434244D01*
X464517Y432005D01*
X463231Y432350D01*
X460769D01*
X458391Y431713D01*
X456259Y430482D01*
X454518Y428741D01*
X453287Y426609D01*
X452650Y424231D01*
Y421769D01*
X453287Y419391D01*
X454518Y417259D01*
X456259Y415518D01*
X458391Y414287D01*
X460769Y413650D01*
X463231D01*
X465609Y414287D01*
X467741Y415518D01*
X469482Y417259D01*
X470713Y419391D01*
X471350Y421769D01*
Y424231D01*
X473812Y426412D01*
X502000D01*
Y418000D01*
X528000D01*
Y420773D01*
X531000Y422015D01*
X532418Y420597D01*
X535382Y418886D01*
X538689Y418000D01*
X542112D01*
X545418Y418886D01*
X548382Y420597D01*
X550803Y423018D01*
X552514Y425982D01*
X552629Y426412D01*
X575000D01*
X576756Y426761D01*
X578244Y427756D01*
X598483Y447995D01*
X599769Y447650D01*
X602231D01*
X604609Y448287D01*
X606741Y449518D01*
X608482Y451259D01*
X609713Y453391D01*
X610350Y455769D01*
Y458231D01*
X609713Y460609D01*
X608482Y462741D01*
X606741Y464482D01*
X604609Y465713D01*
X602231Y466350D01*
X599769D01*
X597391Y465713D01*
X595259Y464482D01*
X593518Y462741D01*
X592287Y460609D01*
X591650Y458231D01*
Y455769D01*
X591995Y454483D01*
X573100Y435588D01*
X552629D01*
X552514Y436018D01*
X550803Y438982D01*
X548382Y441403D01*
X545418Y443114D01*
X544175Y443447D01*
Y446553D01*
X545418Y446886D01*
X548382Y448597D01*
X550803Y451018D01*
X552514Y453982D01*
X553400Y457289D01*
Y460712D01*
X552514Y464018D01*
X550803Y466982D01*
X548382Y469403D01*
X545588Y471016D01*
Y472000D01*
X545239Y473756D01*
X544244Y475244D01*
X538244Y481244D01*
X536756Y482239D01*
X535000Y482588D01*
D02*
G37*
G36*
X932180Y455130D02*
X920270D01*
Y443220D01*
X920735D01*
X924087Y444118D01*
X927093Y445853D01*
X929547Y448307D01*
X931282Y451313D01*
X932180Y454665D01*
Y455130D01*
D02*
G37*
G36*
X917730D02*
X905820D01*
Y454665D01*
X906718Y451313D01*
X908453Y448307D01*
X910907Y445853D01*
X913913Y444118D01*
X917265Y443220D01*
X917730D01*
Y455130D01*
D02*
G37*
G36*
X94180Y455130D02*
X82270D01*
Y443220D01*
X82735D01*
X86087Y444118D01*
X89093Y445853D01*
X91547Y448307D01*
X93282Y451313D01*
X94180Y454665D01*
Y455130D01*
D02*
G37*
G36*
X79730D02*
X67820D01*
Y454665D01*
X68718Y451313D01*
X70453Y448307D01*
X72907Y445853D01*
X75913Y444118D01*
X79265Y443220D01*
X79730D01*
Y455130D01*
D02*
G37*
G36*
X327482Y426255D02*
X324518D01*
X321656Y425488D01*
X319089Y424006D01*
X316994Y421911D01*
X315653Y419588D01*
X304000D01*
X302244Y419239D01*
X300756Y418244D01*
X286756Y404244D01*
X285761Y402756D01*
X285412Y401000D01*
Y370000D01*
X285761Y368244D01*
X286756Y366756D01*
X300786Y352726D01*
X302274Y351731D01*
X304030Y351382D01*
X367071D01*
X367258Y351348D01*
X367609Y351248D01*
X368045Y351084D01*
X368559Y350850D01*
X369084Y350573D01*
X371292Y349136D01*
X371911Y348670D01*
X372079Y348502D01*
X374501Y347104D01*
X377202Y346380D01*
X378336D01*
X378583Y346323D01*
X380487Y346265D01*
X381198Y346193D01*
X381854Y346088D01*
X382416Y345961D01*
X382885Y345816D01*
X383260Y345665D01*
X383544Y345516D01*
X383702Y345409D01*
X396356Y332756D01*
X397844Y331761D01*
X399600Y331412D01*
X419000D01*
X420756Y331761D01*
X422244Y332756D01*
X448060Y358572D01*
X477135D01*
X477317Y358537D01*
X477623Y358444D01*
X477997Y358290D01*
X478431Y358066D01*
X478922Y357766D01*
X479431Y357410D01*
X480695Y356365D01*
X481371Y355730D01*
X481586Y355595D01*
X482263Y354918D01*
X484657Y353536D01*
X487328Y352820D01*
X490092D01*
X492763Y353536D01*
X495157Y354918D01*
X497112Y356873D01*
X498494Y359267D01*
X499210Y361938D01*
Y364702D01*
X498494Y367373D01*
X497112Y369767D01*
X495157Y371722D01*
X492763Y373104D01*
X490092Y373820D01*
X487328D01*
X484657Y373104D01*
X482263Y371722D01*
X481328Y370787D01*
X481105Y370642D01*
X479790Y369356D01*
X479270Y368919D01*
X478764Y368542D01*
X478303Y368245D01*
X477894Y368025D01*
X477542Y367874D01*
X477250Y367783D01*
X477071Y367748D01*
X446160D01*
X444404Y367399D01*
X442916Y366404D01*
X417099Y340588D01*
X401501D01*
X396466Y345623D01*
X398308Y348023D01*
X399901Y347104D01*
X402602Y346380D01*
X405398D01*
X408099Y347104D01*
X410521Y348502D01*
X411323Y349304D01*
X411538Y349439D01*
X412925Y350744D01*
X413479Y351195D01*
X414017Y351585D01*
X414505Y351893D01*
X414938Y352122D01*
X415310Y352280D01*
X415617Y352376D01*
X415804Y352412D01*
X422000D01*
X423756Y352761D01*
X425244Y353756D01*
X431244Y359756D01*
X432239Y361244D01*
X432588Y363000D01*
Y375165D01*
X432634Y375390D01*
X432746Y375736D01*
X432932Y376158D01*
X433201Y376650D01*
X433559Y377205D01*
X433987Y377785D01*
X435214Y379202D01*
X435959Y379960D01*
X436116Y380200D01*
X437006Y381089D01*
X438488Y383656D01*
X439255Y386518D01*
Y389482D01*
X438488Y392344D01*
X437006Y394911D01*
X434911Y397006D01*
X432344Y398488D01*
X429482Y399255D01*
X426518D01*
X423656Y398488D01*
X421089Y397006D01*
X418994Y394911D01*
X417512Y392344D01*
X416745Y389482D01*
Y386518D01*
X417512Y383656D01*
X418994Y381089D01*
X419862Y380221D01*
X419999Y380003D01*
X421468Y378450D01*
X421991Y377815D01*
X422441Y377205D01*
X422799Y376650D01*
X423068Y376158D01*
X423254Y375736D01*
X423366Y375390D01*
X423412Y375165D01*
Y364901D01*
X420099Y361588D01*
X415804D01*
X415617Y361624D01*
X415310Y361720D01*
X414938Y361878D01*
X414505Y362107D01*
X414016Y362415D01*
X413511Y362781D01*
X412253Y363861D01*
X411584Y364517D01*
X411345Y364674D01*
X410521Y365498D01*
X408099Y366896D01*
X405398Y367620D01*
X402602D01*
X399901Y366896D01*
X397479Y365498D01*
X395502Y363521D01*
X394104Y361099D01*
X393380Y358398D01*
Y355602D01*
X394104Y352901D01*
X395023Y351308D01*
X392623Y349466D01*
X390191Y351898D01*
X390084Y352056D01*
X389935Y352340D01*
X389784Y352715D01*
X389640Y353184D01*
X389512Y353746D01*
X389413Y354363D01*
X389287Y356015D01*
X389278Y356953D01*
X389220Y357232D01*
Y358398D01*
X388496Y361099D01*
X387098Y363521D01*
X385121Y365498D01*
X382699Y366896D01*
X379998Y367620D01*
X377202D01*
X374501Y366896D01*
X372079Y365498D01*
X370102Y363521D01*
X369978Y363307D01*
X369523Y362726D01*
X369034Y362167D01*
X368571Y361700D01*
X368140Y361323D01*
X367747Y361033D01*
X367399Y360822D01*
X367097Y360680D01*
X366841Y360593D01*
X366666Y360558D01*
X305931D01*
X294588Y371900D01*
Y399100D01*
X305900Y410412D01*
X315653D01*
X316994Y408089D01*
X319089Y405994D01*
X321656Y404512D01*
X324518Y403745D01*
X327482D01*
X330344Y404512D01*
X332911Y405994D01*
X335006Y408089D01*
X336488Y410656D01*
X337255Y413518D01*
Y416482D01*
X336488Y419344D01*
X335006Y421911D01*
X332911Y424006D01*
X330344Y425488D01*
X327482Y426255D01*
D02*
G37*
G36*
X920796Y430440D02*
X917204D01*
X913735Y429510D01*
X910625Y427715D01*
X908085Y425175D01*
X906290Y422065D01*
X905360Y418596D01*
Y415004D01*
X906290Y411535D01*
X908085Y408425D01*
X910625Y405885D01*
X913735Y404090D01*
X917204Y403160D01*
X920796D01*
X924265Y404090D01*
X927375Y405885D01*
X929915Y408425D01*
X931710Y411535D01*
X932640Y415004D01*
Y418596D01*
X931710Y422065D01*
X929915Y425175D01*
X927375Y427715D01*
X924265Y429510D01*
X920796Y430440D01*
D02*
G37*
G36*
X611482Y414255D02*
X608518D01*
X605656Y413488D01*
X603089Y412006D01*
X600994Y409911D01*
X599653Y407588D01*
X579190D01*
X577434Y407239D01*
X575946Y406244D01*
X568366Y398664D01*
X566292Y399220D01*
X563528D01*
X560857Y398504D01*
X558463Y397122D01*
X556508Y395167D01*
X555126Y392773D01*
X554410Y390102D01*
Y387338D01*
X555126Y384667D01*
X556508Y382273D01*
X558463Y380318D01*
X560857Y378936D01*
X563528Y378220D01*
X566292D01*
X568963Y378936D01*
X571357Y380318D01*
X573312Y382273D01*
X574694Y384667D01*
X575410Y387338D01*
Y390102D01*
X574854Y392176D01*
X581091Y398412D01*
X599653D01*
X600994Y396089D01*
X603089Y393994D01*
X605656Y392512D01*
X608518Y391745D01*
X611482D01*
X614344Y392512D01*
X616911Y393994D01*
X619006Y396089D01*
X620488Y398656D01*
X621255Y401518D01*
Y404482D01*
X620488Y407344D01*
X619006Y409911D01*
X616911Y412006D01*
X614344Y413488D01*
X611482Y414255D01*
D02*
G37*
G36*
X713082D02*
X710118D01*
X707256Y413488D01*
X704689Y412006D01*
X702594Y409911D01*
X701112Y407344D01*
X700345Y404482D01*
Y401518D01*
X701112Y398656D01*
X702594Y396089D01*
X704689Y393994D01*
X707256Y392512D01*
X710118Y391745D01*
X713082D01*
X715944Y392512D01*
X718511Y393994D01*
X720606Y396089D01*
X722088Y398656D01*
X722855Y401518D01*
Y404482D01*
X722088Y407344D01*
X720606Y409911D01*
X718511Y412006D01*
X715944Y413488D01*
X713082Y414255D01*
D02*
G37*
G36*
X327882Y399255D02*
X324918D01*
X322056Y398488D01*
X319489Y397006D01*
X317394Y394911D01*
X315912Y392344D01*
X315145Y389482D01*
Y386518D01*
X315912Y383656D01*
X317394Y381089D01*
X319489Y378994D01*
X322056Y377512D01*
X324918Y376745D01*
X327882D01*
X330744Y377512D01*
X333311Y378994D01*
X335406Y381089D01*
X336888Y383656D01*
X337655Y386518D01*
Y389482D01*
X336888Y392344D01*
X335406Y394911D01*
X333311Y397006D01*
X330744Y398488D01*
X327882Y399255D01*
D02*
G37*
G36*
X184082Y374255D02*
X181118D01*
X178256Y373488D01*
X175689Y372006D01*
X173594Y369911D01*
X172112Y367344D01*
X171345Y364482D01*
Y361518D01*
X172112Y358656D01*
X173594Y356089D01*
X175689Y353994D01*
X178256Y352512D01*
X181118Y351745D01*
X184082D01*
X186944Y352512D01*
X189511Y353994D01*
X191606Y356089D01*
X193088Y358656D01*
X193855Y361518D01*
Y364482D01*
X193088Y367344D01*
X191606Y369911D01*
X189511Y372006D01*
X186944Y373488D01*
X184082Y374255D01*
D02*
G37*
G36*
X94640Y430440D02*
X67360D01*
Y403160D01*
X76412D01*
Y375835D01*
X76366Y375610D01*
X76253Y375264D01*
X76068Y374842D01*
X75799Y374350D01*
X75441Y373795D01*
X75013Y373215D01*
X73786Y371797D01*
X73041Y371040D01*
X72883Y370801D01*
X71994Y369911D01*
X70512Y367344D01*
X69745Y364482D01*
Y361518D01*
X70512Y358656D01*
X71994Y356089D01*
X74089Y353994D01*
X76656Y352512D01*
X79518Y351745D01*
X82482D01*
X85344Y352512D01*
X87911Y353994D01*
X90006Y356089D01*
X91488Y358656D01*
X92255Y361518D01*
Y364482D01*
X91488Y367344D01*
X90006Y369911D01*
X89138Y370779D01*
X89001Y370997D01*
X87532Y372550D01*
X87009Y373185D01*
X86559Y373795D01*
X86201Y374350D01*
X85932Y374842D01*
X85746Y375264D01*
X85634Y375610D01*
X85588Y375835D01*
Y403160D01*
X94640D01*
Y430440D01*
D02*
G37*
G36*
X566232Y347960D02*
X566180D01*
Y339190D01*
X574950D01*
Y339242D01*
X574266Y341795D01*
X572944Y344085D01*
X571075Y345954D01*
X568785Y347276D01*
X566232Y347960D01*
D02*
G37*
G36*
X563640D02*
X563588D01*
X561035Y347276D01*
X558745Y345954D01*
X556876Y344085D01*
X555554Y341795D01*
X554870Y339242D01*
Y339190D01*
X563640D01*
Y347960D01*
D02*
G37*
G36*
X490032D02*
X489980D01*
Y339190D01*
X498750D01*
Y339242D01*
X498066Y341795D01*
X496744Y344085D01*
X494875Y345954D01*
X492585Y347276D01*
X490032Y347960D01*
D02*
G37*
G36*
X487440D02*
X487388D01*
X484835Y347276D01*
X482545Y345954D01*
X480676Y344085D01*
X479354Y341795D01*
X478670Y339242D01*
Y339190D01*
X487440D01*
Y347960D01*
D02*
G37*
G36*
X611482Y385255D02*
X608518D01*
X605656Y384488D01*
X603089Y383006D01*
X602221Y382138D01*
X602003Y382001D01*
X600450Y380532D01*
X599815Y380009D01*
X599205Y379559D01*
X598650Y379201D01*
X598158Y378932D01*
X597736Y378746D01*
X597390Y378634D01*
X597165Y378588D01*
X575590D01*
X573834Y378239D01*
X572346Y377244D01*
X569874Y374773D01*
X569723Y374670D01*
X569445Y374524D01*
X569081Y374375D01*
X568625Y374234D01*
X568078Y374109D01*
X567480Y374012D01*
X565869Y373887D01*
X564955Y373878D01*
X564677Y373820D01*
X563528D01*
X560857Y373104D01*
X558463Y371722D01*
X556508Y369767D01*
X555126Y367373D01*
X554410Y364702D01*
Y361938D01*
X555126Y359267D01*
X556508Y356873D01*
X558463Y354918D01*
X560857Y353536D01*
X563528Y352820D01*
X566292D01*
X568963Y353536D01*
X571357Y354918D01*
X573312Y356873D01*
X574694Y359267D01*
X575410Y361938D01*
Y363054D01*
X575467Y363301D01*
X575524Y365160D01*
X575596Y365851D01*
X575699Y366488D01*
X575824Y367035D01*
X575965Y367491D01*
X576114Y367855D01*
X576260Y368133D01*
X576363Y368284D01*
X577491Y369412D01*
X597165D01*
X597390Y369366D01*
X597736Y369254D01*
X598158Y369068D01*
X598650Y368799D01*
X599205Y368442D01*
X599785Y368013D01*
X601203Y366786D01*
X601960Y366041D01*
X601986Y366023D01*
X601999Y366003D01*
X603468Y364450D01*
X603991Y363815D01*
X604441Y363205D01*
X604799Y362650D01*
X605068Y362158D01*
X605254Y361736D01*
X605366Y361390D01*
X605412Y361165D01*
Y356835D01*
X605366Y356610D01*
X605254Y356264D01*
X605068Y355842D01*
X604799Y355350D01*
X604441Y354795D01*
X604013Y354215D01*
X602786Y352798D01*
X602041Y352040D01*
X601884Y351800D01*
X600994Y350911D01*
X599512Y348344D01*
X598745Y345482D01*
Y342518D01*
X599512Y339656D01*
X600994Y337089D01*
X603089Y334994D01*
X605656Y333512D01*
X608518Y332745D01*
X611482D01*
X614344Y333512D01*
X616911Y334994D01*
X619006Y337089D01*
X620488Y339656D01*
X621255Y342518D01*
Y345482D01*
X620488Y348344D01*
X619006Y350911D01*
X618138Y351779D01*
X618001Y351997D01*
X616532Y353550D01*
X616009Y354185D01*
X615559Y354795D01*
X615201Y355350D01*
X614932Y355842D01*
X614746Y356264D01*
X614634Y356610D01*
X614588Y356835D01*
Y361165D01*
X614634Y361390D01*
X614746Y361736D01*
X614932Y362158D01*
X615201Y362650D01*
X615559Y363205D01*
X615987Y363785D01*
X617214Y365202D01*
X617959Y365960D01*
X618116Y366200D01*
X619006Y367089D01*
X620488Y369656D01*
X621255Y372518D01*
Y375482D01*
X620488Y378344D01*
X619006Y380911D01*
X616911Y383006D01*
X614344Y384488D01*
X611482Y385255D01*
D02*
G37*
G36*
X574950Y336650D02*
X566180D01*
Y327880D01*
X566232D01*
X568785Y328564D01*
X571075Y329886D01*
X572944Y331755D01*
X574266Y334045D01*
X574950Y336598D01*
Y336650D01*
D02*
G37*
G36*
X563640D02*
X554870D01*
Y336598D01*
X555554Y334045D01*
X556876Y331755D01*
X558745Y329886D01*
X561035Y328564D01*
X563588Y327880D01*
X563640D01*
Y336650D01*
D02*
G37*
G36*
X498750D02*
X489980D01*
Y327880D01*
X490032D01*
X492585Y328564D01*
X494875Y329886D01*
X496744Y331755D01*
X498066Y334045D01*
X498750Y336598D01*
Y336650D01*
D02*
G37*
G36*
X487440D02*
X478670D01*
Y336598D01*
X479354Y334045D01*
X480676Y331755D01*
X482545Y329886D01*
X484835Y328564D01*
X487388Y327880D01*
X487440D01*
Y336650D01*
D02*
G37*
G36*
X490092Y323020D02*
X487328D01*
X484657Y322304D01*
X482263Y320922D01*
X481202Y319861D01*
X480962Y319692D01*
X480318Y319018D01*
X479748Y318473D01*
X479213Y318014D01*
X478716Y317637D01*
X478265Y317342D01*
X477864Y317123D01*
X477519Y316973D01*
X477232Y316882D01*
X477054Y316848D01*
X416749D01*
X416560Y316884D01*
X416241Y316981D01*
X415852Y317142D01*
X415398Y317374D01*
X414886Y317683D01*
X414352Y318052D01*
X413033Y319120D01*
X412326Y319769D01*
X412132Y319887D01*
X411521Y320498D01*
X409099Y321896D01*
X406398Y322620D01*
X403602D01*
X400901Y321896D01*
X398479Y320498D01*
X396502Y318521D01*
X395104Y316099D01*
X394380Y313398D01*
Y310602D01*
X395104Y307901D01*
X396502Y305479D01*
X398479Y303502D01*
X400901Y302104D01*
X403602Y301380D01*
X406398D01*
X409099Y302104D01*
X411521Y303502D01*
X412593Y304574D01*
X412833Y304743D01*
X413493Y305434D01*
X414079Y305994D01*
X414630Y306468D01*
X415140Y306856D01*
X415604Y307161D01*
X416016Y307387D01*
X416371Y307542D01*
X416665Y307636D01*
X416850Y307672D01*
X477158D01*
X477340Y307638D01*
X477651Y307544D01*
X478031Y307388D01*
X478474Y307164D01*
X478973Y306864D01*
X479493Y306506D01*
X480782Y305466D01*
X481471Y304833D01*
X481665Y304716D01*
X482263Y304118D01*
X484657Y302736D01*
X487328Y302020D01*
X490092D01*
X492763Y302736D01*
X495157Y304118D01*
X497112Y306073D01*
X498494Y308467D01*
X499210Y311138D01*
Y313902D01*
X498494Y316573D01*
X497112Y318967D01*
X495157Y320922D01*
X492763Y322304D01*
X490092Y323020D01*
D02*
G37*
G36*
X380938Y322160D02*
X380870D01*
Y313270D01*
X389760D01*
Y313338D01*
X389068Y315922D01*
X387730Y318238D01*
X385838Y320130D01*
X383522Y321468D01*
X380938Y322160D01*
D02*
G37*
G36*
X378330D02*
X378262D01*
X375678Y321468D01*
X373362Y320130D01*
X371470Y318238D01*
X370132Y315922D01*
X369440Y313338D01*
Y313270D01*
X378330D01*
Y322160D01*
D02*
G37*
G36*
X661738Y319160D02*
X661670D01*
Y310270D01*
X670560D01*
Y310338D01*
X669868Y312922D01*
X668530Y315238D01*
X666638Y317130D01*
X664322Y318468D01*
X661738Y319160D01*
D02*
G37*
G36*
X659130D02*
X659062D01*
X656478Y318468D01*
X654162Y317130D01*
X652270Y315238D01*
X650932Y312922D01*
X650240Y310338D01*
Y310270D01*
X659130D01*
Y319160D01*
D02*
G37*
G36*
X389760Y310730D02*
X380870D01*
Y301840D01*
X380938D01*
X383522Y302532D01*
X385838Y303870D01*
X387730Y305762D01*
X389068Y308078D01*
X389760Y310662D01*
Y310730D01*
D02*
G37*
G36*
X378330D02*
X369440D01*
Y310662D01*
X370132Y308078D01*
X371470Y305762D01*
X373362Y303870D01*
X375678Y302532D01*
X378262Y301840D01*
X378330D01*
Y310730D01*
D02*
G37*
G36*
X670560Y307730D02*
X661670D01*
Y298840D01*
X661738D01*
X664322Y299532D01*
X666638Y300870D01*
X668530Y302762D01*
X669868Y305078D01*
X670560Y307662D01*
Y307730D01*
D02*
G37*
G36*
X659130D02*
X650240D01*
Y307662D01*
X650932Y305078D01*
X652270Y302762D01*
X654162Y300870D01*
X656478Y299532D01*
X659062Y298840D01*
X659130D01*
Y307730D01*
D02*
G37*
G36*
X566292Y323020D02*
X563528D01*
X560857Y322304D01*
X558463Y320922D01*
X556508Y318967D01*
X555126Y316573D01*
X554410Y313902D01*
Y311138D01*
X555126Y308467D01*
X556508Y306073D01*
X558463Y304118D01*
X560857Y302736D01*
X563528Y302020D01*
X566292D01*
X568963Y302736D01*
X570185Y303441D01*
X570477Y303548D01*
X571394Y304108D01*
X573030Y305023D01*
X574409Y305680D01*
X574938Y305890D01*
X575407Y306047D01*
X575776Y306143D01*
X575944Y306172D01*
X623060D01*
X623222Y306138D01*
X623440Y306062D01*
X623689Y305937D01*
X623975Y305748D01*
X624299Y305481D01*
X624656Y305126D01*
X625038Y304677D01*
X625440Y304131D01*
X625899Y303415D01*
X626055Y303253D01*
X626502Y302479D01*
X628479Y300502D01*
X630901Y299104D01*
X633602Y298380D01*
X636398D01*
X639099Y299104D01*
X641521Y300502D01*
X643498Y302479D01*
X644896Y304901D01*
X645620Y307602D01*
Y310398D01*
X644896Y313099D01*
X643498Y315521D01*
X641521Y317498D01*
X639099Y318896D01*
X636398Y319620D01*
X633602D01*
X630901Y318896D01*
X629625Y318160D01*
X629335Y318052D01*
X628399Y317476D01*
X626731Y316534D01*
X625324Y315856D01*
X624785Y315639D01*
X624307Y315478D01*
X623932Y315378D01*
X623757Y315348D01*
X576659D01*
X576505Y315380D01*
X576294Y315453D01*
X576056Y315572D01*
X575781Y315753D01*
X575470Y316008D01*
X575128Y316350D01*
X574760Y316783D01*
X574373Y317312D01*
X573928Y318010D01*
X573768Y318177D01*
X573312Y318967D01*
X571357Y320922D01*
X568963Y322304D01*
X566292Y323020D01*
D02*
G37*
G36*
X490092Y297620D02*
X487328D01*
X484657Y296904D01*
X482263Y295522D01*
X480308Y293567D01*
X479757Y292613D01*
X479512Y292588D01*
X479000D01*
X477244Y292239D01*
X475756Y291244D01*
X457099Y272588D01*
X417539D01*
X417351Y272622D01*
X417002Y272722D01*
X416568Y272886D01*
X416056Y273120D01*
X415534Y273397D01*
X413336Y274837D01*
X412696Y275324D01*
X412521Y275498D01*
X410099Y276896D01*
X407398Y277620D01*
X404602D01*
X401901Y276896D01*
X399479Y275498D01*
X397502Y273521D01*
X396104Y271099D01*
X395380Y268398D01*
Y265602D01*
X396104Y262901D01*
X397502Y260479D01*
X399479Y258502D01*
X401901Y257104D01*
X404602Y256380D01*
X407398D01*
X410099Y257104D01*
X412521Y258502D01*
X414498Y260479D01*
X414616Y260684D01*
X415055Y261240D01*
X415548Y261799D01*
X416015Y262267D01*
X416449Y262644D01*
X416844Y262935D01*
X417195Y263147D01*
X417499Y263290D01*
X417757Y263377D01*
X417932Y263412D01*
X441946D01*
X443189Y260412D01*
X442690Y259913D01*
X441459Y257781D01*
X441242Y256971D01*
X441119Y256735D01*
X441118Y256730D01*
X441118Y256730D01*
Y256730D01*
X440886Y255935D01*
X440421Y254548D01*
X439961Y253429D01*
X439764Y253026D01*
X439568Y252675D01*
X439394Y252404D01*
X439329Y252318D01*
X432936Y245925D01*
X432849Y245863D01*
X432654Y245756D01*
X432408Y245651D01*
X432104Y245555D01*
X431737Y245473D01*
X431305Y245410D01*
X430806Y245372D01*
X430242Y245364D01*
X429541Y245392D01*
X429270Y245350D01*
X427769D01*
X425391Y244713D01*
X423259Y243482D01*
X421518Y241741D01*
X420287Y239609D01*
X419650Y237231D01*
Y234769D01*
X420287Y232391D01*
X420751Y231588D01*
X419268Y228822D01*
X416415Y229164D01*
X416016Y229415D01*
X415511Y229781D01*
X414254Y230861D01*
X413584Y231517D01*
X413345Y231674D01*
X412521Y232498D01*
X410099Y233896D01*
X407398Y234620D01*
X404602D01*
X401901Y233896D01*
X399479Y232498D01*
X397502Y230521D01*
X396104Y228099D01*
X395380Y225398D01*
Y222602D01*
X396104Y219901D01*
X397502Y217479D01*
X399479Y215502D01*
X401901Y214104D01*
X404602Y213380D01*
X407398D01*
X410099Y214104D01*
X412521Y215502D01*
X413323Y216304D01*
X413538Y216439D01*
X414925Y217744D01*
X415479Y218195D01*
X416017Y218585D01*
X416505Y218893D01*
X416938Y219122D01*
X417310Y219280D01*
X417617Y219376D01*
X417804Y219412D01*
X459616D01*
X461372Y219761D01*
X462860Y220756D01*
X467002Y224897D01*
X467996Y226386D01*
X468345Y228141D01*
Y229783D01*
X468830Y230352D01*
X471345Y231874D01*
X472062Y231732D01*
X477102D01*
X477282Y231698D01*
X477581Y231605D01*
X477943Y231452D01*
X478366Y231230D01*
X478841Y230932D01*
X479333Y230577D01*
X480560Y229526D01*
X480897Y229195D01*
X481223Y228796D01*
X482239Y227400D01*
X482598Y226829D01*
X482897Y226289D01*
X483124Y225811D01*
X483282Y225402D01*
X483378Y225072D01*
X483412Y224889D01*
Y210000D01*
X483761Y208244D01*
X484756Y206756D01*
X516756Y174756D01*
X518244Y173761D01*
X520000Y173412D01*
X549100D01*
X551138Y171374D01*
X551089Y171006D01*
X548994Y168911D01*
X547512Y166344D01*
X546745Y163482D01*
Y160518D01*
X547512Y157656D01*
X548994Y155089D01*
X551089Y152994D01*
X553656Y151512D01*
X556518Y150745D01*
X559482D01*
X562344Y151512D01*
X564911Y152994D01*
X567006Y155089D01*
X568488Y157656D01*
X569255Y160518D01*
Y163482D01*
X568488Y166344D01*
X567006Y168911D01*
X564911Y171006D01*
X562344Y172488D01*
X561004Y172847D01*
X560720Y174275D01*
X559725Y175763D01*
X554244Y181244D01*
X552756Y182239D01*
X551000Y182588D01*
X521900D01*
X492588Y211901D01*
Y224604D01*
X492622Y224776D01*
X492709Y225041D01*
X492851Y225355D01*
X493062Y225719D01*
X493350Y226129D01*
X493691Y226543D01*
X494756Y227605D01*
X495056Y227860D01*
X495157Y227918D01*
X495339Y228100D01*
X495409Y228159D01*
X495450Y228211D01*
X497112Y229873D01*
X498494Y232267D01*
X499210Y234938D01*
Y237702D01*
X498494Y240373D01*
X497112Y242767D01*
X495157Y244722D01*
X492763Y246104D01*
X490092Y246820D01*
X487328D01*
X484657Y246104D01*
X482263Y244722D01*
X481473Y243932D01*
X481259Y243799D01*
X479903Y242524D01*
X479364Y242086D01*
X478841Y241708D01*
X478366Y241410D01*
X477943Y241188D01*
X477581Y241035D01*
X477282Y240942D01*
X477102Y240908D01*
X474219D01*
X474165Y240997D01*
X474005Y241318D01*
X473006Y243931D01*
X472774Y244689D01*
Y244689D01*
X472774Y244689D01*
X472772Y244692D01*
X472660Y244902D01*
X472470Y245609D01*
X471239Y247741D01*
X469498Y249482D01*
X467366Y250713D01*
X464988Y251350D01*
X462526D01*
X462176Y251256D01*
X461023Y251988D01*
X459522Y253651D01*
Y255403D01*
X458885Y257781D01*
X457654Y259913D01*
X457155Y260412D01*
X458398Y263412D01*
X459000D01*
X460756Y263761D01*
X462244Y264756D01*
X478411Y280923D01*
X480308Y280673D01*
X482263Y278718D01*
X484657Y277336D01*
X487328Y276620D01*
X490092D01*
X492763Y277336D01*
X495157Y278718D01*
X497112Y280673D01*
X498494Y283067D01*
X499210Y285738D01*
Y288502D01*
X498494Y291173D01*
X497112Y293567D01*
X495157Y295522D01*
X492763Y296904D01*
X490092Y297620D01*
D02*
G37*
G36*
X381938Y277160D02*
X381870D01*
Y268270D01*
X390760D01*
Y268338D01*
X390068Y270922D01*
X388730Y273238D01*
X386838Y275130D01*
X384522Y276468D01*
X381938Y277160D01*
D02*
G37*
G36*
X379330D02*
X379262D01*
X376678Y276468D01*
X374362Y275130D01*
X372470Y273238D01*
X371132Y270922D01*
X370440Y268338D01*
Y268270D01*
X379330D01*
Y277160D01*
D02*
G37*
G36*
X566292Y297620D02*
X563528D01*
X560857Y296904D01*
X558463Y295522D01*
X556508Y293567D01*
X555126Y291173D01*
X554410Y288502D01*
Y285738D01*
X555126Y283067D01*
X556508Y280673D01*
X558463Y278718D01*
X560857Y277336D01*
X563528Y276620D01*
X566292D01*
X568963Y277336D01*
X571357Y278718D01*
X572147Y279508D01*
X572361Y279641D01*
X573717Y280916D01*
X574256Y281354D01*
X574779Y281732D01*
X575255Y282030D01*
X575676Y282252D01*
X576039Y282405D01*
X576338Y282498D01*
X576519Y282532D01*
X596980D01*
X598680Y280832D01*
X598807Y280640D01*
X598972Y280316D01*
X599139Y279886D01*
X599297Y279348D01*
X599436Y278703D01*
X599544Y277990D01*
X599678Y276120D01*
X599687Y275057D01*
X599745Y274776D01*
Y273518D01*
X600512Y270656D01*
X601994Y268089D01*
X604089Y265994D01*
X606656Y264512D01*
X609518Y263745D01*
X612482D01*
X615344Y264512D01*
X617911Y265994D01*
X620006Y268089D01*
X621488Y270656D01*
X622255Y273518D01*
Y276482D01*
X621488Y279344D01*
X620006Y281911D01*
X617911Y284006D01*
X615344Y285488D01*
X612482Y286255D01*
X611254D01*
X611003Y286312D01*
X608866Y286372D01*
X608047Y286451D01*
X607297Y286564D01*
X606652Y286703D01*
X606114Y286861D01*
X605684Y287028D01*
X605360Y287193D01*
X605168Y287320D01*
X602124Y290364D01*
X600636Y291359D01*
X598880Y291708D01*
X576519D01*
X576338Y291742D01*
X576039Y291835D01*
X575676Y291988D01*
X575254Y292210D01*
X574779Y292508D01*
X574287Y292863D01*
X573060Y293914D01*
X572408Y294554D01*
X572169Y294710D01*
X571357Y295522D01*
X568963Y296904D01*
X566292Y297620D01*
D02*
G37*
G36*
X390760Y265730D02*
X381870D01*
Y256840D01*
X381938D01*
X384522Y257532D01*
X386838Y258870D01*
X388730Y260762D01*
X390068Y263078D01*
X390760Y265662D01*
Y265730D01*
D02*
G37*
G36*
X379330D02*
X370440D01*
Y265662D01*
X371132Y263078D01*
X372470Y260762D01*
X374362Y258870D01*
X376678Y257532D01*
X379262Y256840D01*
X379330D01*
Y265730D01*
D02*
G37*
G36*
X490092Y272220D02*
X487328D01*
X484657Y271504D01*
X482263Y270122D01*
X480308Y268167D01*
X478926Y265773D01*
X478210Y263102D01*
Y260338D01*
X478926Y257667D01*
X480308Y255273D01*
X482263Y253318D01*
X484657Y251936D01*
X487328Y251220D01*
X490092D01*
X492763Y251936D01*
X495157Y253318D01*
X497112Y255273D01*
X498494Y257667D01*
X499210Y260338D01*
Y263102D01*
X498494Y265773D01*
X497112Y268167D01*
X495157Y270122D01*
X492763Y271504D01*
X490092Y272220D01*
D02*
G37*
G36*
X714082Y259255D02*
X711118D01*
X708256Y258488D01*
X705689Y257006D01*
X703594Y254911D01*
X702112Y252344D01*
X701345Y249482D01*
Y246518D01*
X702112Y243656D01*
X703594Y241089D01*
X705689Y238994D01*
X708256Y237512D01*
X711118Y236745D01*
X714082D01*
X716944Y237512D01*
X719511Y238994D01*
X721606Y241089D01*
X723088Y243656D01*
X723855Y246518D01*
Y249482D01*
X723088Y252344D01*
X721606Y254911D01*
X719511Y257006D01*
X716944Y258488D01*
X714082Y259255D01*
D02*
G37*
G36*
X566292Y272220D02*
X563528D01*
X560857Y271504D01*
X558463Y270122D01*
X556508Y268167D01*
X555126Y265773D01*
X554410Y263102D01*
Y260338D01*
X555126Y257667D01*
X556508Y255273D01*
X558463Y253318D01*
X560857Y251936D01*
X563528Y251220D01*
X566292D01*
X568963Y251936D01*
X571357Y253318D01*
X572147Y254107D01*
X572361Y254242D01*
X573717Y255516D01*
X574256Y255954D01*
X574779Y256332D01*
X575255Y256630D01*
X575676Y256852D01*
X576039Y257005D01*
X576338Y257097D01*
X576519Y257132D01*
X595380D01*
X598680Y253832D01*
X598807Y253640D01*
X598972Y253316D01*
X599139Y252887D01*
X599297Y252348D01*
X599436Y251703D01*
X599544Y250989D01*
X599678Y249120D01*
X599687Y248057D01*
X599745Y247776D01*
Y246518D01*
X600512Y243656D01*
X601994Y241089D01*
X603043Y240040D01*
X603191Y239816D01*
X604675Y238315D01*
X605198Y237705D01*
X605648Y237116D01*
X606004Y236579D01*
X606271Y236103D01*
X606455Y235693D01*
X606566Y235357D01*
X606612Y235132D01*
Y233798D01*
X606566Y233572D01*
X606453Y233218D01*
X606265Y232783D01*
X605995Y232276D01*
X605636Y231702D01*
X605207Y231100D01*
X603989Y229634D01*
X603250Y228847D01*
X603118Y228635D01*
X602394Y227911D01*
X600912Y225344D01*
X600588Y224136D01*
X597588Y224531D01*
Y231000D01*
X597239Y232756D01*
X596244Y234244D01*
X591244Y239244D01*
X589756Y240239D01*
X588000Y240588D01*
X576575D01*
X576399Y240623D01*
X576114Y240713D01*
X575773Y240861D01*
X575377Y241079D01*
X574931Y241374D01*
X574475Y241724D01*
X573323Y242784D01*
X572715Y243431D01*
X572482Y243597D01*
X571357Y244722D01*
X568963Y246104D01*
X566292Y246820D01*
X563528D01*
X560857Y246104D01*
X558463Y244722D01*
X556508Y242767D01*
X555126Y240373D01*
X554410Y237702D01*
Y234938D01*
X555126Y232267D01*
X556508Y229873D01*
X558463Y227918D01*
X560857Y226536D01*
X563528Y225820D01*
X566292D01*
X568963Y226536D01*
X571357Y227918D01*
X571887Y228448D01*
X572043Y228537D01*
X573481Y229786D01*
X574058Y230224D01*
X574615Y230602D01*
X575120Y230902D01*
X575568Y231128D01*
X575951Y231283D01*
X576265Y231378D01*
X576447Y231412D01*
X586100D01*
X588412Y229100D01*
Y197000D01*
X588761Y195244D01*
X589756Y193756D01*
X593756Y189756D01*
X595244Y188761D01*
X597000Y188412D01*
X598565D01*
X598790Y188366D01*
X599136Y188254D01*
X599558Y188068D01*
X600050Y187799D01*
X600605Y187442D01*
X601185Y187013D01*
X602603Y185786D01*
X603360Y185041D01*
X603600Y184883D01*
X604489Y183994D01*
X607056Y182512D01*
X609918Y181745D01*
X612882D01*
X615744Y182512D01*
X618311Y183994D01*
X620406Y186089D01*
X621888Y188656D01*
X622655Y191518D01*
Y194482D01*
X621888Y197344D01*
X620406Y199911D01*
X618311Y202006D01*
X615744Y203488D01*
X612882Y204255D01*
X609918D01*
X607056Y203488D01*
X604489Y202006D01*
X603621Y201138D01*
X603403Y201001D01*
X601850Y199532D01*
X601215Y199009D01*
X600605Y198559D01*
X600389Y198419D01*
X598887Y199006D01*
X598133Y199528D01*
X597773Y199930D01*
X597588Y200227D01*
Y217470D01*
X600588Y217864D01*
X600912Y216656D01*
X602394Y214089D01*
X604489Y211994D01*
X607056Y210512D01*
X609918Y209745D01*
X612882D01*
X615744Y210512D01*
X618311Y211994D01*
X620406Y214089D01*
X621888Y216656D01*
X622655Y219518D01*
Y222482D01*
X621888Y225344D01*
X620406Y227911D01*
X619357Y228960D01*
X619209Y229184D01*
X617725Y230685D01*
X617202Y231295D01*
X616752Y231884D01*
X616396Y232421D01*
X616129Y232897D01*
X615945Y233307D01*
X615834Y233643D01*
X615788Y233868D01*
Y235202D01*
X615834Y235429D01*
X615947Y235782D01*
X616134Y236217D01*
X616405Y236725D01*
X616763Y237298D01*
X617193Y237900D01*
X618411Y239366D01*
X619150Y240153D01*
X619282Y240365D01*
X620006Y241089D01*
X621488Y243656D01*
X622255Y246518D01*
Y249482D01*
X621488Y252344D01*
X620006Y254911D01*
X617911Y257006D01*
X615344Y258488D01*
X612482Y259255D01*
X611254D01*
X611003Y259312D01*
X608866Y259372D01*
X608047Y259451D01*
X607297Y259564D01*
X606652Y259703D01*
X606114Y259861D01*
X605684Y260028D01*
X605360Y260193D01*
X605168Y260320D01*
X600524Y264964D01*
X599036Y265959D01*
X597280Y266308D01*
X576519D01*
X576338Y266343D01*
X576039Y266435D01*
X575676Y266588D01*
X575254Y266810D01*
X574779Y267108D01*
X574287Y267463D01*
X573060Y268514D01*
X572408Y269154D01*
X572169Y269310D01*
X571357Y270122D01*
X568963Y271504D01*
X566292Y272220D01*
D02*
G37*
G36*
X714421Y231795D02*
X714270D01*
Y222270D01*
X723795D01*
Y222421D01*
X723059Y225167D01*
X721638Y227628D01*
X719628Y229638D01*
X717167Y231059D01*
X714421Y231795D01*
D02*
G37*
G36*
X711730D02*
X711579D01*
X708833Y231059D01*
X706372Y229638D01*
X704362Y227628D01*
X702941Y225167D01*
X702205Y222421D01*
Y222270D01*
X711730D01*
Y231795D01*
D02*
G37*
G36*
X381998Y234620D02*
X379202D01*
X376501Y233896D01*
X374079Y232498D01*
X373277Y231696D01*
X373062Y231562D01*
X371675Y230256D01*
X371121Y229804D01*
X370583Y229415D01*
X370095Y229107D01*
X369662Y228878D01*
X369290Y228720D01*
X368983Y228624D01*
X368796Y228588D01*
X340000D01*
X338244Y228239D01*
X336756Y227244D01*
X326756Y217244D01*
X325761Y215756D01*
X325412Y214000D01*
Y201959D01*
X325367Y201751D01*
X325270Y201482D01*
X325110Y201167D01*
X324871Y200804D01*
X324542Y200397D01*
X324112Y199952D01*
X323578Y199476D01*
X322939Y198977D01*
X322132Y198418D01*
X322043Y198326D01*
X321489Y198006D01*
X319394Y195911D01*
X317912Y193344D01*
X317145Y190482D01*
Y187518D01*
X317912Y184656D01*
X319394Y182089D01*
X320541Y180942D01*
X320689Y180724D01*
X322179Y179250D01*
X322702Y178652D01*
X323152Y178073D01*
X323507Y177545D01*
X323773Y177077D01*
X323955Y176674D01*
X324066Y176342D01*
X324112Y176118D01*
Y173778D01*
X324067Y173551D01*
X323952Y173193D01*
X323764Y172752D01*
X323494Y172237D01*
X323135Y171654D01*
X322705Y171041D01*
X321492Y169550D01*
X320756Y168748D01*
X320641Y168558D01*
X319994Y167911D01*
X318512Y165344D01*
X317745Y162482D01*
Y159518D01*
X318512Y156656D01*
X319994Y154089D01*
X320862Y153221D01*
X320999Y153003D01*
X322468Y151450D01*
X322991Y150815D01*
X323441Y150205D01*
X323799Y149650D01*
X324068Y149158D01*
X324254Y148736D01*
X324366Y148390D01*
X324412Y148165D01*
Y146835D01*
X324366Y146610D01*
X324254Y146264D01*
X324068Y145842D01*
X323799Y145350D01*
X323442Y144795D01*
X323013Y144215D01*
X321786Y142797D01*
X321041Y142040D01*
X320883Y141800D01*
X319994Y140911D01*
X318512Y138344D01*
X317745Y135482D01*
Y132518D01*
X318512Y129656D01*
X319994Y127089D01*
X322089Y124994D01*
X324656Y123512D01*
X327518Y122745D01*
X330482D01*
X333344Y123512D01*
X335911Y124994D01*
X338006Y127089D01*
X339488Y129656D01*
X340255Y132518D01*
Y135482D01*
X339488Y138344D01*
X338006Y140911D01*
X337138Y141779D01*
X337001Y141997D01*
X335532Y143550D01*
X335009Y144185D01*
X334559Y144795D01*
X334201Y145350D01*
X333932Y145842D01*
X333746Y146264D01*
X333634Y146610D01*
X333588Y146835D01*
Y148165D01*
X333634Y148390D01*
X333746Y148736D01*
X333932Y149158D01*
X334201Y149650D01*
X334558Y150205D01*
X334987Y150785D01*
X336214Y152203D01*
X336959Y152960D01*
X337117Y153200D01*
X338006Y154089D01*
X339488Y156656D01*
X340255Y159518D01*
Y162482D01*
X339488Y165344D01*
X338006Y167911D01*
X336859Y169058D01*
X336711Y169276D01*
X335221Y170750D01*
X334698Y171348D01*
X334248Y171927D01*
X333893Y172455D01*
X333627Y172923D01*
X333445Y173326D01*
X333334Y173658D01*
X333288Y173882D01*
Y176222D01*
X333334Y176449D01*
X333448Y176807D01*
X333636Y177248D01*
X333906Y177763D01*
X334265Y178346D01*
X334695Y178959D01*
X335908Y180450D01*
X336643Y181252D01*
X336759Y181443D01*
X337406Y182089D01*
X338888Y184656D01*
X339655Y187518D01*
Y190482D01*
X338888Y193344D01*
X337854Y195136D01*
X337775Y195332D01*
X337468Y195804D01*
X337406Y195911D01*
X337384Y195933D01*
X336474Y197331D01*
X335992Y198144D01*
X335188Y199681D01*
X334934Y200265D01*
X334744Y200781D01*
X334628Y201185D01*
X334588Y201398D01*
Y212099D01*
X341900Y219412D01*
X368796D01*
X368983Y219376D01*
X369290Y219280D01*
X369662Y219122D01*
X370095Y218893D01*
X370584Y218585D01*
X371089Y218218D01*
X372346Y217139D01*
X373016Y216483D01*
X373255Y216327D01*
X374079Y215502D01*
X376501Y214104D01*
X379202Y213380D01*
X381998D01*
X384699Y214104D01*
X387121Y215502D01*
X389098Y217479D01*
X390496Y219901D01*
X391220Y222602D01*
Y225398D01*
X390496Y228099D01*
X389098Y230521D01*
X387121Y232498D01*
X384699Y233896D01*
X381998Y234620D01*
D02*
G37*
G36*
X723795Y219730D02*
X714270D01*
Y210205D01*
X714421D01*
X717167Y210941D01*
X719628Y212362D01*
X721638Y214372D01*
X723059Y216833D01*
X723795Y219579D01*
Y219730D01*
D02*
G37*
G36*
X711730D02*
X702205D01*
Y219579D01*
X702941Y216833D01*
X704362Y214372D01*
X706372Y212362D01*
X708833Y210941D01*
X711579Y210205D01*
X711730D01*
Y219730D01*
D02*
G37*
G36*
X714482Y204255D02*
X711518D01*
X708656Y203488D01*
X706089Y202006D01*
X703994Y199911D01*
X702512Y197344D01*
X701745Y194482D01*
Y191518D01*
X702512Y188656D01*
X703994Y186089D01*
X706089Y183994D01*
X708656Y182512D01*
X711518Y181745D01*
X714482D01*
X717344Y182512D01*
X719911Y183994D01*
X722006Y186089D01*
X723488Y188656D01*
X724255Y191518D01*
Y194482D01*
X723488Y197344D01*
X722006Y199911D01*
X719911Y202006D01*
X717344Y203488D01*
X714482Y204255D01*
D02*
G37*
G36*
X431482Y200255D02*
X428518D01*
X425656Y199488D01*
X423089Y198006D01*
X420994Y195911D01*
X419512Y193344D01*
X418745Y190482D01*
Y187518D01*
X419512Y184656D01*
X420994Y182089D01*
X423089Y179994D01*
X425656Y178512D01*
X428518Y177745D01*
X431482D01*
X434344Y178512D01*
X436911Y179994D01*
X439006Y182089D01*
X440488Y184656D01*
X441255Y187518D01*
Y190482D01*
X440488Y193344D01*
X439006Y195911D01*
X436911Y198006D01*
X434344Y199488D01*
X431482Y200255D01*
D02*
G37*
G36*
X714021Y174795D02*
X713870D01*
Y165270D01*
X723395D01*
Y165421D01*
X722659Y168167D01*
X721238Y170628D01*
X719228Y172638D01*
X716767Y174059D01*
X714021Y174795D01*
D02*
G37*
G36*
X711330D02*
X711179D01*
X708433Y174059D01*
X705972Y172638D01*
X703962Y170628D01*
X702541Y168167D01*
X701805Y165421D01*
Y165270D01*
X711330D01*
Y174795D01*
D02*
G37*
G36*
X432021Y171795D02*
X431870D01*
Y162270D01*
X441395D01*
Y162421D01*
X440659Y165167D01*
X439238Y167628D01*
X437228Y169638D01*
X434767Y171059D01*
X432021Y171795D01*
D02*
G37*
G36*
X429330D02*
X429179D01*
X426433Y171059D01*
X423972Y169638D01*
X421962Y167628D01*
X420541Y165167D01*
X419805Y162421D01*
Y162270D01*
X429330D01*
Y171795D01*
D02*
G37*
G36*
X723395Y162730D02*
X713870D01*
Y153205D01*
X714021D01*
X716767Y153941D01*
X719228Y155362D01*
X721238Y157372D01*
X722659Y159833D01*
X723395Y162579D01*
Y162730D01*
D02*
G37*
G36*
X711330D02*
X701805D01*
Y162579D01*
X702541Y159833D01*
X703962Y157372D01*
X705972Y155362D01*
X708433Y153941D01*
X711179Y153205D01*
X711330D01*
Y162730D01*
D02*
G37*
G36*
X612482Y175255D02*
X609518D01*
X606656Y174488D01*
X604089Y173006D01*
X601994Y170911D01*
X600512Y168344D01*
X599745Y165482D01*
Y162518D01*
X600512Y159656D01*
X601994Y157089D01*
X604089Y154994D01*
X606656Y153512D01*
X609518Y152745D01*
X612482D01*
X615344Y153512D01*
X617911Y154994D01*
X620006Y157089D01*
X621488Y159656D01*
X622255Y162518D01*
Y165482D01*
X621488Y168344D01*
X620006Y170911D01*
X617911Y173006D01*
X615344Y174488D01*
X612482Y175255D01*
D02*
G37*
G36*
X441395Y159730D02*
X431870D01*
Y150205D01*
X432021D01*
X434767Y150941D01*
X437228Y152362D01*
X439238Y154372D01*
X440659Y156833D01*
X441395Y159579D01*
Y159730D01*
D02*
G37*
G36*
X429330D02*
X419805D01*
Y159579D01*
X420541Y156833D01*
X421962Y154372D01*
X423972Y152362D01*
X426433Y150941D01*
X429179Y150205D01*
X429330D01*
Y159730D01*
D02*
G37*
G36*
X561021Y142795D02*
X560870D01*
Y133270D01*
X570395D01*
Y133421D01*
X569659Y136167D01*
X568238Y138628D01*
X566228Y140638D01*
X563767Y142059D01*
X561021Y142795D01*
D02*
G37*
G36*
X558330D02*
X558179D01*
X555433Y142059D01*
X552972Y140638D01*
X550962Y138628D01*
X549541Y136167D01*
X548805Y133421D01*
Y133270D01*
X558330D01*
Y142795D01*
D02*
G37*
G36*
X432082Y145255D02*
X429118D01*
X426256Y144488D01*
X423689Y143006D01*
X421594Y140911D01*
X420112Y138344D01*
X419345Y135482D01*
Y132518D01*
X420112Y129656D01*
X421594Y127089D01*
X423689Y124994D01*
X426256Y123512D01*
X429118Y122745D01*
X432082D01*
X434944Y123512D01*
X437511Y124994D01*
X439606Y127089D01*
X441088Y129656D01*
X441855Y132518D01*
Y135482D01*
X441088Y138344D01*
X439606Y140911D01*
X437511Y143006D01*
X434944Y144488D01*
X432082Y145255D01*
D02*
G37*
G36*
X570395Y130730D02*
X560870D01*
Y121205D01*
X561021D01*
X563767Y121941D01*
X566228Y123362D01*
X568238Y125372D01*
X569659Y127833D01*
X570395Y130579D01*
Y130730D01*
D02*
G37*
G36*
X558330D02*
X548805D01*
Y130579D01*
X549541Y127833D01*
X550962Y125372D01*
X552972Y123362D01*
X555433Y121941D01*
X558179Y121205D01*
X558330D01*
Y130730D01*
D02*
G37*
G36*
X457882Y173255D02*
X454918D01*
X452056Y172488D01*
X449489Y171006D01*
X447394Y168911D01*
X445912Y166344D01*
X445145Y163482D01*
Y160518D01*
X445912Y157656D01*
X447394Y155089D01*
X449246Y153237D01*
X449249Y153234D01*
X449253Y153230D01*
X449489Y152994D01*
X449629Y152913D01*
X450043Y152564D01*
X450688Y151965D01*
X451232Y151399D01*
X451678Y150872D01*
X452026Y150391D01*
X452284Y149962D01*
X452460Y149592D01*
X452566Y149283D01*
X452612Y149064D01*
Y144657D01*
X452568Y144432D01*
X452452Y144054D01*
X452262Y143583D01*
X451990Y143029D01*
X451666Y142459D01*
X450002Y140094D01*
X449306Y139239D01*
X449287Y139204D01*
X448994Y138911D01*
X447512Y136344D01*
X446745Y133482D01*
Y130518D01*
X447512Y127656D01*
X448994Y125089D01*
X451089Y122994D01*
X453656Y121512D01*
X456518Y120745D01*
X459482D01*
X462344Y121512D01*
X464911Y122994D01*
X467006Y125089D01*
X468488Y127656D01*
X469255Y130518D01*
Y133482D01*
X468488Y136344D01*
X467006Y138911D01*
X465154Y140763D01*
X465151Y140766D01*
X465147Y140770D01*
X464911Y141006D01*
X464771Y141087D01*
X464357Y141436D01*
X463712Y142035D01*
X463168Y142601D01*
X462723Y143128D01*
X462374Y143610D01*
X462116Y144038D01*
X461940Y144408D01*
X461834Y144717D01*
X461788Y144936D01*
Y149344D01*
X461832Y149569D01*
X461948Y149946D01*
X462138Y150417D01*
X462410Y150971D01*
X462734Y151540D01*
X464398Y153906D01*
X465094Y154761D01*
X465113Y154796D01*
X465406Y155089D01*
X466888Y157656D01*
X467655Y160518D01*
Y163482D01*
X466888Y166344D01*
X465406Y168911D01*
X463311Y171006D01*
X460744Y172488D01*
X457882Y173255D01*
D02*
G37*
G36*
X952561Y82540D02*
X951270D01*
Y51270D01*
X982540D01*
Y52561D01*
X981739Y57620D01*
X980156Y62491D01*
X977831Y67055D01*
X974820Y71198D01*
X971198Y74820D01*
X967055Y77831D01*
X962491Y80156D01*
X957620Y81739D01*
X952561Y82540D01*
D02*
G37*
G36*
X948730D02*
X947439D01*
X942380Y81739D01*
X937509Y80156D01*
X932945Y77831D01*
X928802Y74820D01*
X925180Y71198D01*
X922169Y67055D01*
X919844Y62491D01*
X918261Y57620D01*
X917460Y52561D01*
Y51270D01*
X948730D01*
Y82540D01*
D02*
G37*
G36*
X52561D02*
X51270D01*
Y51270D01*
X82540D01*
Y52561D01*
X81739Y57620D01*
X80156Y62491D01*
X77831Y67055D01*
X74820Y71198D01*
X71198Y74820D01*
X67055Y77831D01*
X62491Y80156D01*
X57620Y81739D01*
X52561Y82540D01*
D02*
G37*
G36*
X48730D02*
X47439D01*
X42380Y81739D01*
X37509Y80156D01*
X32945Y77831D01*
X28802Y74820D01*
X25180Y71198D01*
X22169Y67055D01*
X19844Y62491D01*
X18261Y57620D01*
X17460Y52561D01*
Y51270D01*
X48730D01*
Y82540D01*
D02*
G37*
G36*
X982540Y48730D02*
X951270D01*
Y17460D01*
X952561D01*
X957620Y18261D01*
X962491Y19844D01*
X967055Y22169D01*
X971198Y25180D01*
X974820Y28802D01*
X977831Y32945D01*
X980156Y37509D01*
X981739Y42380D01*
X982540Y47439D01*
Y48730D01*
D02*
G37*
G36*
X948730D02*
X917460D01*
Y47439D01*
X918261Y42380D01*
X919844Y37509D01*
X922169Y32945D01*
X925180Y28802D01*
X928802Y25180D01*
X932945Y22169D01*
X937509Y19844D01*
X942380Y18261D01*
X947439Y17460D01*
X948730D01*
Y48730D01*
D02*
G37*
G36*
X82540D02*
X51270D01*
Y17460D01*
X52561D01*
X57620Y18261D01*
X62491Y19844D01*
X67055Y22169D01*
X71198Y25180D01*
X74820Y28802D01*
X77831Y32945D01*
X80156Y37509D01*
X81739Y42380D01*
X82540Y47439D01*
Y48730D01*
D02*
G37*
G36*
X48730D02*
X17460D01*
Y47439D01*
X18261Y42380D01*
X19844Y37509D01*
X22169Y32945D01*
X25180Y28802D01*
X28802Y25180D01*
X32945Y22169D01*
X37509Y19844D01*
X42380Y18261D01*
X47439Y17460D01*
X48730D01*
Y48730D01*
D02*
G37*
%LPD*%
G36*
X319822Y881325D02*
X319366Y881928D01*
X318902Y882468D01*
X318429Y882944D01*
X317946Y883357D01*
X317454Y883706D01*
X316954Y883992D01*
X316444Y884214D01*
X315925Y884373D01*
X315397Y884468D01*
X314860Y884500D01*
X315353Y887500D01*
X315835Y887526D01*
X316340Y887604D01*
X316869Y887734D01*
X317421Y887917D01*
X317996Y888151D01*
X318594Y888437D01*
X319862Y889166D01*
X320530Y889609D01*
X321222Y890104D01*
X319822Y881325D01*
D02*
G37*
G36*
X520465Y880555D02*
X519891Y881115D01*
X518763Y882057D01*
X518208Y882440D01*
X517660Y882764D01*
X517119Y883029D01*
X516585Y883235D01*
X516056Y883382D01*
X515535Y883471D01*
X515020Y883500D01*
Y886500D01*
X515535Y886529D01*
X516056Y886618D01*
X516585Y886765D01*
X517119Y886971D01*
X517660Y887236D01*
X518208Y887560D01*
X518763Y887943D01*
X519324Y888385D01*
X519891Y888885D01*
X520465Y889445D01*
Y880555D01*
D02*
G37*
G36*
X330109Y888885D02*
X331237Y887943D01*
X331792Y887560D01*
X332340Y887236D01*
X332881Y886971D01*
X333415Y886765D01*
X333944Y886618D01*
X334465Y886529D01*
X334980Y886500D01*
Y883500D01*
X334465Y883471D01*
X333944Y883382D01*
X333415Y883235D01*
X332881Y883029D01*
X332340Y882764D01*
X331792Y882440D01*
X331237Y882057D01*
X330676Y881615D01*
X330109Y881115D01*
X329535Y880555D01*
Y889445D01*
X330109Y888885D01*
D02*
G37*
G36*
X319822Y861325D02*
X319366Y861928D01*
X318902Y862468D01*
X318429Y862944D01*
X317946Y863357D01*
X317454Y863706D01*
X316954Y863992D01*
X316444Y864214D01*
X315925Y864373D01*
X315397Y864468D01*
X314860Y864500D01*
X315353Y867500D01*
X315835Y867526D01*
X316340Y867604D01*
X316869Y867734D01*
X317421Y867917D01*
X317996Y868151D01*
X318594Y868437D01*
X319862Y869166D01*
X320530Y869609D01*
X321222Y870104D01*
X319822Y861325D01*
D02*
G37*
G36*
X728885Y859891D02*
X727943Y858763D01*
X727560Y858208D01*
X727236Y857661D01*
X726971Y857119D01*
X726765Y856584D01*
X726618Y856056D01*
X726529Y855535D01*
X726500Y855020D01*
X723500D01*
X723471Y855535D01*
X723382Y856056D01*
X723235Y856584D01*
X723029Y857119D01*
X722764Y857661D01*
X722440Y858208D01*
X722057Y858763D01*
X721615Y859324D01*
X721115Y859891D01*
X720555Y860465D01*
X729445D01*
X728885Y859891D01*
D02*
G37*
G36*
X328885D02*
X327943Y858763D01*
X327560Y858208D01*
X327236Y857661D01*
X326971Y857119D01*
X326765Y856584D01*
X326618Y856056D01*
X326529Y855535D01*
X326500Y855020D01*
X323500D01*
X323470Y855535D01*
X323382Y856056D01*
X323235Y856584D01*
X323029Y857119D01*
X322764Y857661D01*
X322440Y858208D01*
X322057Y858763D01*
X321615Y859324D01*
X321115Y859891D01*
X320555Y860465D01*
X329445D01*
X328885Y859891D01*
D02*
G37*
G36*
X89741Y861318D02*
X91886Y859415D01*
X92888Y858641D01*
X93843Y857987D01*
X94752Y857452D01*
X95614Y857035D01*
X96428Y856738D01*
X97197Y856560D01*
X97918Y856500D01*
Y853500D01*
X97197Y853440D01*
X96428Y853262D01*
X95614Y852965D01*
X94752Y852548D01*
X93843Y852013D01*
X92888Y851359D01*
X91886Y850585D01*
X89741Y848682D01*
X88598Y847552D01*
Y862448D01*
X89741Y861318D01*
D02*
G37*
G36*
X91639Y778515D02*
X91729Y778260D01*
X91880Y778035D01*
X92090Y777840D01*
X92360Y777675D01*
X92690Y777540D01*
X93080Y777435D01*
X93530Y777360D01*
X94039Y777315D01*
X94609Y777300D01*
Y774300D01*
X94039Y774285D01*
X93530Y774240D01*
X93080Y774165D01*
X92690Y774060D01*
X92360Y773925D01*
X92090Y773760D01*
X91880Y773565D01*
X91729Y773340D01*
X91639Y773085D01*
X91609Y772800D01*
Y778800D01*
X91639Y778515D01*
D02*
G37*
G36*
X540532Y784321D02*
X540627Y783679D01*
X540785Y783072D01*
X541007Y782502D01*
X541292Y781969D01*
X541640Y781471D01*
X542052Y781010D01*
X542527Y780585D01*
X543065Y780197D01*
X543667Y779844D01*
X534333D01*
X534935Y780197D01*
X535473Y780585D01*
X535948Y781010D01*
X536360Y781471D01*
X536708Y781969D01*
X536993Y782502D01*
X537215Y783072D01*
X537373Y783679D01*
X537468Y784321D01*
X537500Y785000D01*
X540500D01*
X540532Y784321D01*
D02*
G37*
G36*
X503031Y736000D02*
X503000Y736285D01*
X502910Y736540D01*
X502761Y736765D01*
X502551Y736960D01*
X502281Y737125D01*
X501950Y737260D01*
X501561Y737365D01*
X501110Y737440D01*
X500601Y737485D01*
X500031Y737500D01*
Y740500D01*
X500601Y740515D01*
X501110Y740560D01*
X501561Y740635D01*
X501950Y740740D01*
X502281Y740875D01*
X502551Y741040D01*
X502761Y741235D01*
X502910Y741460D01*
X503000Y741715D01*
X503031Y742000D01*
Y736000D01*
D02*
G37*
G36*
X611704Y739822D02*
X611942Y739618D01*
X612169Y739450D01*
X612385Y739316D01*
X612588Y739218D01*
X612780Y739154D01*
X612960Y739126D01*
X613129Y739133D01*
X613286Y739175D01*
X613431Y739252D01*
X610827Y735491D01*
X610846Y735654D01*
X610827Y735835D01*
X610771Y736034D01*
X610677Y736251D01*
X610546Y736487D01*
X610378Y736741D01*
X610173Y737013D01*
X609650Y737612D01*
X609332Y737939D01*
X611453Y740061D01*
X611704Y739822D01*
D02*
G37*
G36*
X640041Y534427D02*
X640011Y534712D01*
X639921Y534967D01*
X639771Y535192D01*
X639561Y535387D01*
X639291Y535552D01*
X638960Y535687D01*
X638571Y535793D01*
X638120Y535868D01*
X637611Y535913D01*
X637040Y535928D01*
Y538927D01*
X637611Y538942D01*
X638120Y538988D01*
X638571Y539062D01*
X638960Y539168D01*
X639291Y539302D01*
X639561Y539468D01*
X639771Y539663D01*
X639921Y539888D01*
X640011Y540143D01*
X640041Y540428D01*
Y534427D01*
D02*
G37*
G36*
X719136Y377450D02*
X719365Y377166D01*
X719634Y376916D01*
X719941Y376698D01*
X720286Y376515D01*
X720671Y376365D01*
X721095Y376248D01*
X721557Y376164D01*
X722058Y376114D01*
X722598Y376098D01*
Y373098D01*
X722101Y373080D01*
X721644Y373027D01*
X721226Y372939D01*
X720848Y372815D01*
X720510Y372657D01*
X720211Y372463D01*
X719952Y372233D01*
X719733Y371969D01*
X719553Y371669D01*
X719413Y371334D01*
X718946Y377767D01*
X719136Y377450D01*
D02*
G37*
G36*
X718322Y348966D02*
X719902Y347597D01*
X720656Y347040D01*
X721386Y346570D01*
X722091Y346185D01*
X722773Y345885D01*
X723429Y345671D01*
X724062Y345543D01*
X724671Y345500D01*
Y342500D01*
X724062Y342457D01*
X723429Y342329D01*
X722773Y342115D01*
X722091Y341815D01*
X721386Y341430D01*
X720656Y340960D01*
X719902Y340404D01*
X719124Y339762D01*
X717589Y338310D01*
X716941Y337570D01*
X715621Y335880D01*
X715085Y335086D01*
X714631Y334326D01*
X714260Y333600D01*
X713971Y332909D01*
X713765Y332251D01*
X713641Y331628D01*
X713600Y331038D01*
X710600Y330853D01*
X710556Y331477D01*
X710424Y332116D01*
X710203Y332771D01*
X709894Y333439D01*
X709497Y334123D01*
X709012Y334822D01*
X708439Y335536D01*
X707777Y336264D01*
X707027Y337007D01*
X706189Y337766D01*
X717495Y338452D01*
Y349779D01*
X718322Y348966D01*
D02*
G37*
G36*
X713644Y287523D02*
X713776Y286884D01*
X713997Y286229D01*
X714306Y285561D01*
X714703Y284877D01*
X715188Y284178D01*
X715761Y283464D01*
X716423Y282736D01*
X717173Y281993D01*
X718011Y281234D01*
X706475Y280534D01*
X707259Y281430D01*
X708579Y283120D01*
X709115Y283914D01*
X709569Y284674D01*
X709940Y285400D01*
X710229Y286091D01*
X710435Y286749D01*
X710559Y287373D01*
X710600Y287962D01*
X713600Y288147D01*
X713644Y287523D01*
D02*
G37*
G36*
X639641Y647440D02*
X639610Y647725D01*
X639520Y647980D01*
X639370Y648205D01*
X639160Y648400D01*
X638890Y648565D01*
X638560Y648700D01*
X638171Y648805D01*
X637720Y648880D01*
X637211Y648925D01*
X636641Y648940D01*
Y651940D01*
X637211Y651955D01*
X637720Y652000D01*
X638171Y652075D01*
X638560Y652180D01*
X638890Y652315D01*
X639160Y652480D01*
X639370Y652675D01*
X639520Y652900D01*
X639610Y653155D01*
X639641Y653440D01*
Y647440D01*
D02*
G37*
G36*
X85966Y560278D02*
X84597Y558698D01*
X84040Y557944D01*
X83570Y557214D01*
X83184Y556509D01*
X82885Y555827D01*
X82671Y555171D01*
X82543Y554538D01*
X82500Y553929D01*
X79500D01*
X79457Y554538D01*
X79329Y555171D01*
X79115Y555827D01*
X78815Y556509D01*
X78430Y557214D01*
X77960Y557944D01*
X77403Y558698D01*
X76762Y559476D01*
X75222Y561105D01*
X86778D01*
X85966Y560278D01*
D02*
G37*
G36*
X82559Y512197D02*
X82738Y511428D01*
X83035Y510614D01*
X83452Y509752D01*
X83987Y508843D01*
X84641Y507888D01*
X85414Y506886D01*
X87318Y504741D01*
X88448Y503599D01*
X73552D01*
X74682Y504741D01*
X76585Y506886D01*
X77359Y507888D01*
X78013Y508843D01*
X78548Y509752D01*
X78965Y510614D01*
X79262Y511428D01*
X79440Y512197D01*
X79500Y512918D01*
X82500D01*
X82559Y512197D01*
D02*
G37*
G36*
X505031Y456000D02*
X505000Y456285D01*
X504911Y456540D01*
X504761Y456765D01*
X504551Y456960D01*
X504281Y457125D01*
X503951Y457260D01*
X503560Y457365D01*
X503111Y457440D01*
X502601Y457485D01*
X502030Y457500D01*
Y460500D01*
X502601Y460515D01*
X503111Y460560D01*
X503560Y460635D01*
X503951Y460740D01*
X504281Y460875D01*
X504551Y461040D01*
X504761Y461235D01*
X504911Y461460D01*
X505000Y461715D01*
X505031Y462000D01*
Y456000D01*
D02*
G37*
G36*
X502000Y472000D02*
Y463588D01*
X471600D01*
X469844Y463239D01*
X468356Y462244D01*
X457123Y451012D01*
X454010Y451835D01*
X453482Y453994D01*
X472901Y473412D01*
X499585D01*
X502000Y472000D01*
D02*
G37*
G36*
X505031Y428000D02*
X505000Y428285D01*
X504911Y428540D01*
X504761Y428765D01*
X504551Y428960D01*
X504281Y429125D01*
X503951Y429260D01*
X503560Y429365D01*
X503111Y429440D01*
X502601Y429485D01*
X502030Y429500D01*
Y432500D01*
X502601Y432515D01*
X503111Y432560D01*
X503560Y432635D01*
X503951Y432740D01*
X504281Y432875D01*
X504551Y433040D01*
X504761Y433235D01*
X504911Y433460D01*
X505000Y433715D01*
X505031Y434000D01*
Y428000D01*
D02*
G37*
G36*
X481241Y385720D02*
X481211Y386005D01*
X481120Y386260D01*
X480970Y386485D01*
X480760Y386680D01*
X480490Y386845D01*
X480160Y386980D01*
X479771Y387085D01*
X479320Y387160D01*
X478811Y387205D01*
X478241Y387220D01*
Y390220D01*
X478811Y390235D01*
X479320Y390280D01*
X479771Y390355D01*
X480160Y390460D01*
X480490Y390595D01*
X480760Y390760D01*
X480970Y390955D01*
X481120Y391180D01*
X481211Y391435D01*
X481241Y391720D01*
Y385720D01*
D02*
G37*
G36*
X432966Y381278D02*
X431596Y379698D01*
X431040Y378944D01*
X430570Y378214D01*
X430185Y377509D01*
X429885Y376828D01*
X429671Y376171D01*
X429543Y375538D01*
X429500Y374929D01*
X426500D01*
X426457Y375538D01*
X426329Y376171D01*
X426115Y376828D01*
X425815Y377509D01*
X425430Y378214D01*
X424960Y378944D01*
X424403Y379698D01*
X423762Y380476D01*
X422221Y382105D01*
X433778D01*
X432966Y381278D01*
D02*
G37*
G36*
X483467Y357957D02*
X482720Y358661D01*
X481285Y359846D01*
X480598Y360327D01*
X479930Y360734D01*
X479283Y361068D01*
X478656Y361327D01*
X478050Y361512D01*
X477463Y361623D01*
X476896Y361660D01*
X476831Y364660D01*
X477408Y364698D01*
X477999Y364812D01*
X478604Y365001D01*
X479224Y365267D01*
X479858Y365609D01*
X480507Y366026D01*
X481169Y366519D01*
X481846Y367089D01*
X483243Y368455D01*
X483467Y357957D01*
D02*
G37*
G36*
X410184Y361606D02*
X411614Y360379D01*
X412302Y359880D01*
X412971Y359459D01*
X413622Y359114D01*
X414255Y358845D01*
X414869Y358653D01*
X415465Y358538D01*
X416043Y358500D01*
Y355500D01*
X415465Y355462D01*
X414869Y355347D01*
X414255Y355155D01*
X413622Y354887D01*
X412971Y354542D01*
X412302Y354120D01*
X411614Y353621D01*
X410908Y353046D01*
X409442Y351666D01*
Y362334D01*
X410184Y361606D01*
D02*
G37*
G36*
X373929Y350979D02*
X373048Y351643D01*
X370635Y353213D01*
X369907Y353597D01*
X369217Y353912D01*
X368566Y354156D01*
X367952Y354330D01*
X367377Y354435D01*
X366840Y354470D01*
X366423Y357470D01*
X367028Y357511D01*
X367634Y357633D01*
X368240Y357837D01*
X368847Y358123D01*
X369453Y358490D01*
X370060Y358939D01*
X370666Y359469D01*
X371273Y360081D01*
X371880Y360774D01*
X372487Y361549D01*
X373929Y350979D01*
D02*
G37*
G36*
X386230Y355884D02*
X386373Y354005D01*
X386507Y353166D01*
X386682Y352395D01*
X386898Y351691D01*
X387156Y351054D01*
X387455Y350484D01*
X387795Y349981D01*
X388176Y349545D01*
X386055Y347424D01*
X385619Y347805D01*
X385117Y348145D01*
X384547Y348444D01*
X383909Y348702D01*
X383205Y348918D01*
X382434Y349093D01*
X381595Y349227D01*
X380689Y349319D01*
X378676Y349380D01*
X386220Y356924D01*
X386230Y355884D01*
D02*
G37*
G36*
X83715Y406161D02*
X83460Y406071D01*
X83235Y405920D01*
X83040Y405710D01*
X82875Y405440D01*
X82740Y405111D01*
X82635Y404720D01*
X82560Y404271D01*
X82515Y403760D01*
X82500Y403190D01*
X79500D01*
X79485Y403760D01*
X79440Y404271D01*
X79365Y404720D01*
X79260Y405111D01*
X79125Y405440D01*
X78960Y405710D01*
X78765Y405920D01*
X78540Y406071D01*
X78285Y406161D01*
X78000Y406190D01*
X84000D01*
X83715Y406161D01*
D02*
G37*
G36*
X82543Y375462D02*
X82671Y374829D01*
X82885Y374173D01*
X83184Y373491D01*
X83570Y372786D01*
X84040Y372056D01*
X84597Y371302D01*
X85238Y370524D01*
X86778Y368895D01*
X75222D01*
X76034Y369722D01*
X77403Y371302D01*
X77960Y372056D01*
X78430Y372786D01*
X78815Y373491D01*
X79115Y374173D01*
X79329Y374829D01*
X79457Y375462D01*
X79500Y376071D01*
X82500D01*
X82543Y375462D01*
D02*
G37*
G36*
X604105Y368222D02*
X603278Y369034D01*
X601698Y370404D01*
X600944Y370960D01*
X600214Y371430D01*
X599509Y371815D01*
X598828Y372115D01*
X598171Y372329D01*
X597538Y372457D01*
X596929Y372500D01*
Y375500D01*
X597538Y375543D01*
X598171Y375671D01*
X598828Y375885D01*
X599509Y376185D01*
X600214Y376570D01*
X600944Y377040D01*
X601698Y377597D01*
X602476Y378238D01*
X604105Y379779D01*
Y368222D01*
D02*
G37*
G36*
X574349Y370638D02*
X573971Y370206D01*
X573634Y369710D01*
X573338Y369149D01*
X573083Y368523D01*
X572868Y367831D01*
X572695Y367074D01*
X572562Y366252D01*
X572470Y365365D01*
X572410Y363395D01*
X564985Y370820D01*
X566003Y370830D01*
X567842Y370972D01*
X568664Y371105D01*
X569421Y371278D01*
X570113Y371493D01*
X570739Y371748D01*
X571301Y372044D01*
X571797Y372381D01*
X572228Y372759D01*
X574349Y370638D01*
D02*
G37*
G36*
X614966Y367278D02*
X613596Y365698D01*
X613040Y364944D01*
X612570Y364214D01*
X612185Y363509D01*
X611885Y362827D01*
X611671Y362170D01*
X611543Y361538D01*
X611500Y360929D01*
X608500D01*
X608457Y361538D01*
X608329Y362170D01*
X608115Y362827D01*
X607815Y363509D01*
X607430Y364214D01*
X606960Y364944D01*
X606404Y365698D01*
X605762Y366476D01*
X604221Y368105D01*
X615779D01*
X614966Y367278D01*
D02*
G37*
G36*
X611543Y356462D02*
X611671Y355830D01*
X611885Y355173D01*
X612185Y354491D01*
X612570Y353786D01*
X613040Y353056D01*
X613596Y352302D01*
X614238Y351524D01*
X615779Y349895D01*
X604221D01*
X605034Y350722D01*
X606404Y352302D01*
X606960Y353056D01*
X607430Y353786D01*
X607815Y354491D01*
X608115Y355173D01*
X608329Y355830D01*
X608457Y356462D01*
X608500Y357071D01*
X611500D01*
X611543Y356462D01*
D02*
G37*
G36*
X483539Y307087D02*
X482779Y307785D01*
X481323Y308960D01*
X480628Y309438D01*
X479955Y309842D01*
X479304Y310172D01*
X478675Y310429D01*
X478068Y310613D01*
X477483Y310723D01*
X476919Y310760D01*
X476813Y313760D01*
X477393Y313798D01*
X477985Y313913D01*
X478590Y314104D01*
X479208Y314371D01*
X479838Y314715D01*
X480480Y315136D01*
X481135Y315632D01*
X481803Y316206D01*
X482483Y316855D01*
X483175Y317581D01*
X483539Y307087D01*
D02*
G37*
G36*
X411034Y316803D02*
X412518Y315601D01*
X413226Y315112D01*
X413910Y314699D01*
X414571Y314361D01*
X415210Y314098D01*
X415825Y313910D01*
X416417Y313798D01*
X416986Y313760D01*
X417090Y310760D01*
X416505Y310721D01*
X415905Y310604D01*
X415292Y310408D01*
X414666Y310135D01*
X414025Y309784D01*
X413372Y309354D01*
X412704Y308846D01*
X412023Y308261D01*
X411329Y307597D01*
X410621Y306855D01*
X410257Y317517D01*
X411034Y316803D01*
D02*
G37*
G36*
X571846Y315586D02*
X572356Y314888D01*
X572879Y314272D01*
X573415Y313738D01*
X573964Y313287D01*
X574527Y312917D01*
X575102Y312630D01*
X575690Y312424D01*
X576291Y312301D01*
X576906Y312260D01*
X576165Y309260D01*
X575674Y309229D01*
X575131Y309136D01*
X574535Y308981D01*
X573887Y308764D01*
X573185Y308485D01*
X571623Y307741D01*
X569850Y306749D01*
X568885Y306160D01*
X571348Y316367D01*
X571846Y315586D01*
D02*
G37*
G36*
X628473Y305067D02*
X627962Y305864D01*
X627438Y306577D01*
X626903Y307206D01*
X626355Y307751D01*
X625795Y308212D01*
X625223Y308589D01*
X624638Y308883D01*
X624042Y309092D01*
X623433Y309218D01*
X622812Y309260D01*
X623541Y312260D01*
X624036Y312292D01*
X624585Y312388D01*
X625189Y312547D01*
X625847Y312770D01*
X626560Y313057D01*
X628148Y313822D01*
X629953Y314841D01*
X630937Y315447D01*
X628473Y305067D01*
D02*
G37*
G36*
X481428Y285323D02*
X481352Y285547D01*
X481238Y285747D01*
X481088Y285923D01*
X480900Y286076D01*
X480676Y286206D01*
X480415Y286312D01*
X480117Y286394D01*
X479781Y286453D01*
X479409Y286488D01*
X479000Y286500D01*
Y289500D01*
X479480Y289511D01*
X480323Y289596D01*
X480686Y289670D01*
X481011Y289766D01*
X481296Y289883D01*
X481542Y290021D01*
X481750Y290181D01*
X481918Y290362D01*
X482048Y290564D01*
X481428Y285323D01*
D02*
G37*
G36*
X411571Y272337D02*
X413976Y270761D01*
X414702Y270375D01*
X415391Y270060D01*
X416042Y269815D01*
X416656Y269640D01*
X417232Y269535D01*
X417770Y269500D01*
X418176Y266500D01*
X417570Y266459D01*
X416965Y266337D01*
X416358Y266133D01*
X415751Y265848D01*
X415144Y265482D01*
X414535Y265033D01*
X413926Y264504D01*
X413316Y263893D01*
X412706Y263200D01*
X412095Y262426D01*
X410695Y273002D01*
X411571Y272337D01*
D02*
G37*
G36*
X448343Y248091D02*
X447647Y248275D01*
X446982Y248397D01*
X446349Y248459D01*
X445748Y248459D01*
X445178Y248399D01*
X444640Y248277D01*
X444133Y248095D01*
X443658Y247851D01*
X443214Y247547D01*
X442803Y247181D01*
X441317Y249939D01*
X441615Y250268D01*
X441907Y250656D01*
X442193Y251103D01*
X442475Y251609D01*
X442752Y252173D01*
X443289Y253479D01*
X443805Y255020D01*
X444056Y255879D01*
X448343Y248091D01*
D02*
G37*
G36*
X437299Y241678D02*
X436962Y241301D01*
X436657Y240875D01*
X436383Y240400D01*
X436140Y239877D01*
X435928Y239304D01*
X435749Y238683D01*
X435600Y238013D01*
X435483Y237294D01*
X435343Y235710D01*
X429417Y242336D01*
X430202Y242304D01*
X430943Y242315D01*
X431640Y242367D01*
X432294Y242463D01*
X432904Y242600D01*
X433470Y242779D01*
X433993Y243001D01*
X434472Y243266D01*
X434908Y243572D01*
X435300Y243921D01*
X437299Y241678D01*
D02*
G37*
G36*
X470112Y242934D02*
X471201Y240087D01*
X471482Y239524D01*
X472052Y238577D01*
X472343Y238192D01*
X472636Y237867D01*
X471002Y235259D01*
X470624Y235591D01*
X470211Y235864D01*
X469765Y236078D01*
X469284Y236235D01*
X468768Y236332D01*
X468218Y236372D01*
X467634Y236353D01*
X467142Y236292D01*
X466700Y235763D01*
X466318Y235208D01*
X465994Y234660D01*
X465729Y234119D01*
X465522Y233584D01*
X465375Y233056D01*
X465287Y232535D01*
X465257Y232020D01*
X462257D01*
X462228Y232535D01*
X462140Y233056D01*
X461992Y233584D01*
X461786Y234119D01*
X461521Y234660D01*
X461197Y235208D01*
X460814Y235763D01*
X460373Y236324D01*
X459872Y236891D01*
X459312Y237465D01*
X466482D01*
X469848Y243795D01*
X470112Y242934D01*
D02*
G37*
G36*
X446200Y245400D02*
X446556Y245366D01*
X446979Y245288D01*
X447563Y245133D01*
X447844Y245116D01*
X448941Y244822D01*
X451403D01*
X451753Y244916D01*
X452906Y244184D01*
X454407Y242521D01*
Y240769D01*
X455045Y238391D01*
X456275Y236259D01*
X456969Y235565D01*
X457122Y235330D01*
X457629Y234811D01*
X458022Y234364D01*
X458352Y233946D01*
X458619Y233559D01*
X458827Y233207D01*
X458980Y232894D01*
X459085Y232621D01*
X459150Y232388D01*
X459169Y232277D01*
Y230042D01*
X457715Y228588D01*
X438857D01*
X437249Y231588D01*
X437713Y232391D01*
X438350Y234769D01*
Y235303D01*
X438390Y235441D01*
X438520Y236914D01*
X438605Y237435D01*
X438714Y237926D01*
X438836Y238348D01*
X438967Y238702D01*
X439100Y238989D01*
X439230Y239215D01*
X439298Y239310D01*
X445163Y245174D01*
X445228Y245219D01*
X445354Y245284D01*
X445498Y245336D01*
X445678Y245376D01*
X445909Y245401D01*
X446200Y245400D01*
D02*
G37*
G36*
X483354Y231449D02*
X493429Y230491D01*
X492683Y229857D01*
X491425Y228603D01*
X490915Y227983D01*
X490482Y227368D01*
X490129Y226757D01*
X489854Y226152D01*
X489657Y225550D01*
X489539Y224954D01*
X489500Y224362D01*
X486500Y224653D01*
X486465Y225199D01*
X486359Y225776D01*
X486183Y226383D01*
X485936Y227020D01*
X485619Y227688D01*
X485232Y228386D01*
X484773Y229115D01*
X483646Y230665D01*
X483160Y231260D01*
X482627Y231782D01*
X481226Y232983D01*
X480551Y233470D01*
X479893Y233883D01*
X479252Y234220D01*
X478629Y234482D01*
X478023Y234670D01*
X477434Y234783D01*
X476862Y234820D01*
Y237820D01*
X477434Y237857D01*
X478023Y237970D01*
X478629Y238158D01*
X479252Y238420D01*
X479893Y238757D01*
X480551Y239170D01*
X481226Y239657D01*
X481918Y240220D01*
X483354Y241570D01*
Y231449D01*
D02*
G37*
G36*
X412184Y228605D02*
X413614Y227379D01*
X414302Y226880D01*
X414971Y226458D01*
X415622Y226113D01*
X416255Y225845D01*
X416869Y225653D01*
X417465Y225538D01*
X418043Y225500D01*
Y222500D01*
X417465Y222462D01*
X416869Y222347D01*
X416255Y222155D01*
X415622Y221887D01*
X414971Y221542D01*
X414302Y221120D01*
X413614Y220621D01*
X412908Y220046D01*
X411442Y218666D01*
Y229334D01*
X412184Y228605D01*
D02*
G37*
G36*
X557994Y172108D02*
X558035Y171736D01*
X558102Y171402D01*
X558197Y171107D01*
X558318Y170850D01*
X558466Y170632D01*
X558642Y170453D01*
X558844Y170313D01*
X559073Y170211D01*
X559329Y170147D01*
X553813Y169114D01*
X554035Y169272D01*
X554234Y169471D01*
X554409Y169709D01*
X554561Y169989D01*
X554689Y170309D01*
X554794Y170670D01*
X554876Y171071D01*
X554934Y171513D01*
X554969Y171996D01*
X554981Y172519D01*
X557981D01*
X557994Y172108D01*
D02*
G37*
G36*
X570993Y291658D02*
X572394Y290457D01*
X573069Y289970D01*
X573727Y289557D01*
X574368Y289220D01*
X574991Y288958D01*
X575597Y288770D01*
X576187Y288657D01*
X576758Y288620D01*
Y285620D01*
X576187Y285583D01*
X575597Y285470D01*
X574991Y285282D01*
X574368Y285020D01*
X573727Y284683D01*
X573069Y284270D01*
X572394Y283783D01*
X571702Y283220D01*
X570266Y281870D01*
Y292370D01*
X570993Y291658D01*
D02*
G37*
G36*
X603279Y284903D02*
X603817Y284546D01*
X604433Y284233D01*
X605126Y283963D01*
X605897Y283737D01*
X606746Y283554D01*
X607672Y283414D01*
X608676Y283317D01*
X610917Y283255D01*
X602745Y275083D01*
X602736Y276242D01*
X602586Y278328D01*
X602446Y279254D01*
X602263Y280103D01*
X602037Y280874D01*
X601767Y281567D01*
X601454Y282183D01*
X601097Y282721D01*
X600697Y283182D01*
X602818Y285303D01*
X603279Y284903D01*
D02*
G37*
G36*
X570993Y266257D02*
X572394Y265058D01*
X573069Y264570D01*
X573727Y264158D01*
X574368Y263820D01*
X574991Y263557D01*
X575597Y263370D01*
X576187Y263258D01*
X576758Y263220D01*
Y260220D01*
X576187Y260182D01*
X575597Y260070D01*
X574991Y259883D01*
X574368Y259620D01*
X573727Y259282D01*
X573069Y258870D01*
X572394Y258382D01*
X571702Y257820D01*
X570266Y256470D01*
Y266970D01*
X570993Y266257D01*
D02*
G37*
G36*
X603279Y257903D02*
X603817Y257546D01*
X604433Y257233D01*
X605126Y256963D01*
X605897Y256737D01*
X606746Y256554D01*
X607672Y256414D01*
X608676Y256317D01*
X610917Y256255D01*
X602745Y248083D01*
X602736Y249242D01*
X602586Y251328D01*
X602446Y252254D01*
X602263Y253103D01*
X602037Y253874D01*
X601767Y254567D01*
X601454Y255183D01*
X601097Y255721D01*
X600697Y256182D01*
X602818Y258303D01*
X603279Y257903D01*
D02*
G37*
G36*
X616118Y241392D02*
X614768Y239768D01*
X614219Y238998D01*
X613755Y238256D01*
X613375Y237543D01*
X613080Y236857D01*
X612869Y236200D01*
X612742Y235570D01*
X612700Y234969D01*
X609700Y234895D01*
X609657Y235510D01*
X609527Y236146D01*
X609310Y236802D01*
X609007Y237478D01*
X608616Y238175D01*
X608140Y238892D01*
X607576Y239630D01*
X606926Y240389D01*
X605366Y241966D01*
X616920Y242246D01*
X616118Y241392D01*
D02*
G37*
G36*
X571170Y240608D02*
X572505Y239380D01*
X573155Y238881D01*
X573794Y238459D01*
X574422Y238114D01*
X575038Y237845D01*
X575642Y237654D01*
X576235Y237538D01*
X576817Y237500D01*
X576686Y234500D01*
X576125Y234464D01*
X575541Y234354D01*
X574933Y234171D01*
X574303Y233915D01*
X573650Y233587D01*
X572973Y233185D01*
X572274Y232710D01*
X571551Y232162D01*
X570037Y230846D01*
X570485Y241337D01*
X571170Y240608D01*
D02*
G37*
G36*
X612743Y233490D02*
X612873Y232854D01*
X613090Y232198D01*
X613393Y231522D01*
X613783Y230825D01*
X614260Y230107D01*
X614824Y229370D01*
X615474Y228612D01*
X617034Y227034D01*
X605480Y226754D01*
X606282Y227608D01*
X607632Y229232D01*
X608181Y230002D01*
X608645Y230744D01*
X609025Y231457D01*
X609320Y232143D01*
X609531Y232800D01*
X609658Y233430D01*
X609700Y234031D01*
X612700Y234105D01*
X612743Y233490D01*
D02*
G37*
G36*
X605505Y187222D02*
X604678Y188034D01*
X603098Y189404D01*
X602344Y189960D01*
X601614Y190430D01*
X600909Y190816D01*
X600228Y191115D01*
X599571Y191329D01*
X598938Y191457D01*
X598329Y191500D01*
Y194500D01*
X598938Y194543D01*
X599571Y194671D01*
X600228Y194885D01*
X600909Y195185D01*
X601614Y195570D01*
X602344Y196040D01*
X603098Y196597D01*
X603876Y197238D01*
X605505Y198778D01*
Y187222D01*
D02*
G37*
G36*
X375158Y218666D02*
X374416Y219394D01*
X372986Y220621D01*
X372298Y221120D01*
X371629Y221542D01*
X370978Y221887D01*
X370345Y222155D01*
X369731Y222347D01*
X369135Y222462D01*
X368557Y222500D01*
Y225500D01*
X369135Y225538D01*
X369731Y225653D01*
X370345Y225845D01*
X370978Y226113D01*
X371629Y226458D01*
X372298Y226880D01*
X372986Y227379D01*
X373692Y227954D01*
X375158Y229334D01*
Y218666D01*
D02*
G37*
G36*
X331500Y201604D02*
X331537Y201071D01*
X331648Y200480D01*
X331834Y199831D01*
X332094Y199124D01*
X332428Y198359D01*
X333319Y196655D01*
X333875Y195716D01*
X335211Y193664D01*
X323874Y195903D01*
X324753Y196513D01*
X325539Y197126D01*
X326233Y197745D01*
X326834Y198368D01*
X327343Y198996D01*
X327760Y199629D01*
X328084Y200266D01*
X328315Y200909D01*
X328454Y201556D01*
X328500Y202207D01*
X331500Y201604D01*
D02*
G37*
G36*
X333593Y182451D02*
X332253Y180805D01*
X331708Y180027D01*
X331247Y179279D01*
X330870Y178561D01*
X330577Y177873D01*
X330368Y177216D01*
X330242Y176588D01*
X330200Y175991D01*
X327200Y175880D01*
X327156Y176498D01*
X327026Y177135D01*
X326808Y177790D01*
X326502Y178464D01*
X326110Y179157D01*
X325630Y179868D01*
X325063Y180598D01*
X324409Y181346D01*
X322840Y182899D01*
X334389Y183319D01*
X333593Y182451D01*
D02*
G37*
G36*
X330244Y173502D02*
X330374Y172865D01*
X330592Y172210D01*
X330898Y171536D01*
X331290Y170843D01*
X331770Y170132D01*
X332337Y169402D01*
X332991Y168654D01*
X334560Y167101D01*
X323011Y166681D01*
X323807Y167549D01*
X325147Y169195D01*
X325692Y169973D01*
X326153Y170721D01*
X326530Y171439D01*
X326823Y172127D01*
X327032Y172784D01*
X327158Y173412D01*
X327200Y174009D01*
X330200Y174120D01*
X330244Y173502D01*
D02*
G37*
G36*
X333966Y154278D02*
X332597Y152698D01*
X332040Y151944D01*
X331570Y151214D01*
X331185Y150509D01*
X330885Y149827D01*
X330671Y149171D01*
X330543Y148538D01*
X330500Y147929D01*
X327500D01*
X327457Y148538D01*
X327329Y149171D01*
X327115Y149827D01*
X326815Y150509D01*
X326430Y151214D01*
X325960Y151944D01*
X325404Y152698D01*
X324762Y153476D01*
X323222Y155105D01*
X334779D01*
X333966Y154278D01*
D02*
G37*
G36*
X330543Y146462D02*
X330671Y145829D01*
X330885Y145173D01*
X331185Y144491D01*
X331570Y143786D01*
X332040Y143056D01*
X332597Y142302D01*
X333238Y141524D01*
X334779Y139895D01*
X323222D01*
X324034Y140722D01*
X325404Y142302D01*
X325960Y143056D01*
X326430Y143786D01*
X326815Y144491D01*
X327115Y145173D01*
X327329Y145829D01*
X327457Y146462D01*
X327500Y147071D01*
X330500D01*
X330543Y146462D01*
D02*
G37*
G36*
X461958Y155754D02*
X460148Y153181D01*
X459706Y152403D01*
X459344Y151666D01*
X459062Y150969D01*
X458861Y150312D01*
X458740Y149695D01*
X458700Y149119D01*
X455700Y148822D01*
X455655Y149454D01*
X455521Y150097D01*
X455297Y150748D01*
X454983Y151409D01*
X454580Y152080D01*
X454087Y152759D01*
X453505Y153449D01*
X452833Y154147D01*
X452071Y154855D01*
X451220Y155573D01*
X462723Y156692D01*
X461958Y155754D01*
D02*
G37*
G36*
X458745Y144545D02*
X458879Y143903D01*
X459103Y143252D01*
X459417Y142591D01*
X459820Y141920D01*
X460313Y141241D01*
X460895Y140552D01*
X461567Y139853D01*
X462329Y139145D01*
X463180Y138427D01*
X451677Y137308D01*
X452442Y138246D01*
X454252Y140820D01*
X454694Y141597D01*
X455056Y142334D01*
X455338Y143031D01*
X455539Y143688D01*
X455660Y144305D01*
X455700Y144881D01*
X458700Y145178D01*
X458745Y144545D01*
D02*
G37*
D22*
X696510Y537427D02*
D03*
X696110Y650440D02*
D03*
X671510Y537427D02*
D03*
X671110Y650440D02*
D03*
D23*
X725000Y885000D02*
D03*
X525000Y865000D02*
D03*
X325000Y885000D02*
D03*
Y865000D02*
D03*
X725000D02*
D03*
X525000Y885000D02*
D03*
X444000Y755000D02*
D03*
X429000Y236000D02*
D03*
X450172Y254172D02*
D03*
X444000Y449000D02*
D03*
X591000Y606000D02*
D03*
X612850Y621000D02*
D03*
X601000Y457000D02*
D03*
X600000Y581000D02*
D03*
X463757Y242000D02*
D03*
X462000Y423000D02*
D03*
X617000Y734000D02*
D03*
X462000Y750000D02*
D03*
D27*
X646110Y650440D02*
D03*
X646510Y537427D02*
D03*
D30*
X480000Y791000D02*
X533000D01*
X444000Y755000D02*
X480000Y791000D01*
X461659Y544140D02*
X487630D01*
X452519Y535000D02*
X461659Y544140D01*
X451000Y535000D02*
X452519D01*
X429000Y236000D02*
X429500D01*
X447672Y254172D01*
X450172D01*
X406000Y224000D02*
X459616D01*
X444000Y451000D02*
X471000Y478000D01*
X444000Y449000D02*
Y451000D01*
X471000Y478000D02*
X535000D01*
X541000Y472000D01*
Y459600D02*
Y472000D01*
X540400Y459000D02*
X541000Y459600D01*
X563830Y620340D02*
X564160Y620670D01*
X612520D01*
X612850Y621000D01*
X575000Y431000D02*
X601000Y457000D01*
X540400Y431000D02*
X575000D01*
X575290Y581000D02*
X600000D01*
X563830Y569540D02*
X575290Y581000D01*
X463757Y228141D02*
Y242000D01*
X459616Y224000D02*
X463757Y228141D01*
Y242000D02*
X466382D01*
X472062Y236320D01*
X488710D01*
X462000Y423000D02*
X470000Y431000D01*
X515000D01*
X419000Y336000D02*
X446160Y363160D01*
X488550D01*
X399600Y336000D02*
X419000D01*
X427600Y415000D02*
X471600Y459000D01*
X515000D01*
X610393Y739000D02*
X615393Y734000D01*
X538400Y739000D02*
X610393D01*
X615393Y734000D02*
X617000D01*
X740243Y723000D02*
X742000Y721243D01*
X585000Y710000D02*
X598000Y723000D01*
X740243D01*
X742000Y707000D02*
Y721243D01*
X585000Y677000D02*
Y710000D01*
X563830Y544140D02*
X564690Y545000D01*
X610000D01*
X618000Y537000D01*
X564800Y593970D02*
X633030D01*
X563830Y594940D02*
X564800Y593970D01*
X633030D02*
X634000Y593000D01*
X533000Y791000D02*
X539000Y785000D01*
Y771000D02*
Y785000D01*
X473000Y739000D02*
X513000D01*
X462000Y750000D02*
X473000Y739000D01*
X469000Y689770D02*
Y705000D01*
X414000Y760000D02*
X469000Y705000D01*
Y689770D02*
X487630Y671140D01*
X711000Y830000D02*
X725000Y844000D01*
X338000Y830000D02*
X711000D01*
X725000Y844000D02*
Y865000D01*
X325000Y843000D02*
X338000Y830000D01*
X325000Y843000D02*
Y865000D01*
X633240Y310760D02*
X635000Y309000D01*
X566670Y310760D02*
X633240D01*
X217000Y866000D02*
X324000D01*
X325000Y865000D01*
X126800Y775800D02*
X217000Y866000D01*
X81000Y775800D02*
X126800D01*
X564910Y312520D02*
X566670Y310760D01*
X487100Y595470D02*
X487630Y594940D01*
X488450Y312260D02*
X488710Y312520D01*
X405000Y312000D02*
X405260Y312260D01*
X488450D01*
X216000Y886000D02*
X324000D01*
X325000Y885000D02*
X525000D01*
X324000Y886000D02*
X325000Y885000D01*
X185000Y855000D02*
X216000Y886000D01*
X81000Y855000D02*
X185000D01*
X404870Y595470D02*
X487100D01*
X404400Y595000D02*
X404870Y595470D01*
X81000Y363000D02*
Y416800D01*
Y496000D02*
Y567000D01*
X564910Y388720D02*
X579190Y403000D01*
X610000D01*
X564910Y236320D02*
X565230Y236000D01*
X597000Y193000D02*
X611400D01*
X593000Y197000D02*
X597000Y193000D01*
X593000Y197000D02*
Y231000D01*
X588000Y236000D02*
X593000Y231000D01*
X565230Y236000D02*
X588000D01*
X725000Y344000D02*
X742000Y361000D01*
Y707000D01*
X711600Y344000D02*
X725000D01*
X711600Y374000D02*
X712198Y374598D01*
X722598D01*
X735000Y387000D02*
Y498000D01*
X722598Y374598D02*
X735000Y387000D01*
X722000Y511000D02*
X735000Y498000D01*
X697937Y511000D02*
X722000D01*
X671510Y537427D02*
X697937Y511000D01*
X671110Y671110D02*
X679000Y679000D01*
X714000D01*
X671110Y650440D02*
Y671110D01*
X714000Y679000D02*
X742000Y707000D01*
X711600Y344000D02*
X712100Y343500D01*
Y275500D02*
Y343500D01*
Y275500D02*
X712600Y275000D01*
X611200Y221200D02*
X611400Y221000D01*
X611200Y221200D02*
Y247800D01*
X611000Y248000D02*
X611200Y247800D01*
X597280Y261720D02*
X611000Y248000D01*
X564910Y261720D02*
X597280D01*
X598880Y287120D02*
X611000Y275000D01*
X564910Y287120D02*
X598880D01*
X610000Y344000D02*
Y374000D01*
X564910Y363320D02*
X575590Y374000D01*
X610000D01*
X290000Y370000D02*
Y401000D01*
X304000Y415000D01*
X290000Y370000D02*
X304030Y355970D01*
X304000Y415000D02*
X326000D01*
X304030Y355970D02*
X377570D01*
X551000Y178000D02*
X556481Y172519D01*
Y163519D02*
Y172519D01*
Y163519D02*
X558000Y162000D01*
X520000Y178000D02*
X551000D01*
X488000Y210000D02*
X520000Y178000D01*
X488000Y210000D02*
Y235610D01*
X488710Y236320D01*
X456400Y162000D02*
X457200Y161200D01*
Y132800D02*
Y161200D01*
Y132800D02*
X458000Y132000D01*
X329000Y134000D02*
Y161000D01*
X328700Y161300D02*
X329000Y161000D01*
X328700Y161300D02*
Y188700D01*
X328400Y189000D02*
X328700Y188700D01*
X328400Y189000D02*
X330000Y190600D01*
Y214000D01*
X340000Y224000D01*
X380600D01*
X487830Y288000D02*
X488710Y287120D01*
X479000Y288000D02*
X487830D01*
X459000Y268000D02*
X479000Y288000D01*
X407000Y268000D02*
X459000D01*
X406000Y267000D02*
X407000Y268000D01*
X468280Y388720D02*
X488710D01*
X442000Y415000D02*
X468280Y388720D01*
X427600Y415000D02*
X442000D01*
X488550Y363160D02*
X488710Y363320D01*
X378600Y357000D02*
X399600Y336000D01*
X377570Y355970D02*
X378600Y357000D01*
X404000D02*
X422000D01*
X428000Y363000D01*
Y388000D01*
X563830Y671140D02*
X579140D01*
X607000Y698000D02*
X610000D01*
X600000Y691000D02*
X607000Y698000D01*
X404000Y504000D02*
X424000D01*
X438740Y518740D01*
X428000Y537000D02*
X438740Y526260D01*
Y518740D02*
Y526260D01*
X326000Y564000D02*
X326200Y563800D01*
Y537200D02*
Y563800D01*
Y537200D02*
X326400Y537000D01*
X359400Y504000D01*
X378600D01*
X486139Y645740D02*
X487630D01*
X478400Y638000D02*
X486139Y645740D01*
X435000Y638000D02*
X478400D01*
X424000Y649000D02*
X435000Y638000D01*
X404400Y649000D02*
X424000D01*
X428600Y653600D01*
Y684000D01*
X438740Y518740D02*
X487630D01*
X587440Y650440D02*
X600000Y663000D01*
Y691000D01*
X587440Y650440D02*
X646110D01*
X563830Y645740D02*
X582740D01*
X587440Y650440D01*
X286000Y740000D02*
X306000Y760000D01*
X414000D01*
X286000Y699000D02*
Y740000D01*
X301000Y684000D02*
X327000D01*
X286000Y699000D02*
X301000Y684000D01*
X621427Y537427D02*
X646510D01*
X621000Y537000D02*
X621427Y537427D01*
X618000Y537000D02*
X621000D01*
X563830Y518740D02*
X621740D01*
X622000Y519000D01*
X653083D01*
X671510Y537427D01*
X579140Y671140D02*
X585000Y677000D01*
X430000Y711783D02*
Y734000D01*
X412000Y752000D02*
X430000Y734000D01*
X307000Y739000D02*
X320000Y752000D01*
X412000D01*
D31*
X563830Y594940D02*
D03*
X487630D02*
D03*
Y620340D02*
D03*
Y569540D02*
D03*
X563830Y620340D02*
D03*
Y518740D02*
D03*
Y544140D02*
D03*
Y569540D02*
D03*
Y645740D02*
D03*
Y671140D02*
D03*
X487630Y518740D02*
D03*
Y544140D02*
D03*
Y645740D02*
D03*
X564910Y337920D02*
D03*
X488710D02*
D03*
Y236320D02*
D03*
X564910Y261720D02*
D03*
Y287120D02*
D03*
Y363320D02*
D03*
X488710Y261720D02*
D03*
Y287120D02*
D03*
Y363320D02*
D03*
X564910Y236320D02*
D03*
Y388720D02*
D03*
X488710Y312520D02*
D03*
X564910D02*
D03*
D32*
X487630Y671140D02*
D03*
X488710Y388720D02*
D03*
D33*
X50000Y950000D02*
D03*
X950000Y50000D02*
D03*
X50000D02*
D03*
X950000Y950000D02*
D03*
D34*
X81000Y815400D02*
D03*
Y456400D02*
D03*
X919000D02*
D03*
X81000Y855000D02*
D03*
X919000Y416800D02*
D03*
X81000Y496000D02*
D03*
D35*
X660400Y309000D02*
D03*
X379600Y312000D02*
D03*
X659400Y593000D02*
D03*
X379000Y595000D02*
D03*
X380600Y267000D02*
D03*
X404400Y649000D02*
D03*
X379000D02*
D03*
X634000Y593000D02*
D03*
X635000Y309000D02*
D03*
X404400Y595000D02*
D03*
X405000Y312000D02*
D03*
X406000Y224000D02*
D03*
Y267000D02*
D03*
X378600Y357000D02*
D03*
Y504000D02*
D03*
X404000D02*
D03*
X380600Y224000D02*
D03*
X404000Y357000D02*
D03*
D36*
X559600Y132000D02*
D03*
X712600Y164000D02*
D03*
X713000Y221000D02*
D03*
X711600Y698000D02*
D03*
X712600Y496000D02*
D03*
X430600Y161000D02*
D03*
X610000Y403000D02*
D03*
X611400Y193000D02*
D03*
X558000Y162000D02*
D03*
X458000Y132000D02*
D03*
X456400Y162000D02*
D03*
X430600Y134000D02*
D03*
X611400Y221000D02*
D03*
X713000Y193000D02*
D03*
X611000Y248000D02*
D03*
X430000Y189000D02*
D03*
X427600Y415000D02*
D03*
X611000Y275000D02*
D03*
Y164000D02*
D03*
X610000Y344000D02*
D03*
X711600Y403000D02*
D03*
X610000Y374000D02*
D03*
X326000Y415000D02*
D03*
X81000Y567000D02*
D03*
Y363000D02*
D03*
X182600Y567000D02*
D03*
X326400Y537000D02*
D03*
X326000Y564000D02*
D03*
X428000Y537000D02*
D03*
X610000Y698000D02*
D03*
X327000Y684000D02*
D03*
X427600Y564000D02*
D03*
X611000Y496000D02*
D03*
X711600Y374000D02*
D03*
X712600Y248000D02*
D03*
X711600Y344000D02*
D03*
X712600Y275000D02*
D03*
X182600Y363000D02*
D03*
X428600Y684000D02*
D03*
X329000Y161000D02*
D03*
Y134000D02*
D03*
X328400Y189000D02*
D03*
X326400Y388000D02*
D03*
X428000D02*
D03*
X430000Y712000D02*
D03*
X328400D02*
D03*
D37*
X515000Y459000D02*
D03*
X513600Y771000D02*
D03*
X513000Y739000D02*
D03*
X515000Y431000D02*
D03*
D38*
X540400Y459000D02*
D03*
X539000Y771000D02*
D03*
X538400Y739000D02*
D03*
X540400Y431000D02*
D03*
D39*
X81000Y775800D02*
D03*
X919000Y496000D02*
D03*
X81000Y416800D02*
D03*
D40*
X451000Y535000D02*
D03*
X307000Y739000D02*
D03*
M02*
