M48
;Layer_Color=9474304
;FILE_FORMAT=4:4
METRIC,LZ
;TYPE=PLATED
T01F00S00C0.7000
T02F00S00C0.7112
T03F00S00C0.7620
T04F00S00C0.8000
T05F00S00C0.9000
T06F00S00C1.0000
T07F00S00C1.7780
T08F00S00C3.2000
%
T01
X005596Y00132
X00558Y00162
X00611Y00164
X006114Y00193
Y00221
X00611Y00248
Y00275
X00635Y00309
X006604
X0061Y00344
Y00374
Y00403
X007116
Y00374
Y00344
X007126Y00275
Y00248
X00713Y00221
Y00193
X007126Y00164
X004564Y00162
X004306Y00161
Y00134
X00458Y00132
X0043Y00189
X00406Y00224
X003806
Y00267
X00406
X00405Y00312
X003796
X003786Y00357
X00404
X00428Y00388
X004276Y00415
X00326
X003264Y00388
X001826Y00363
X003284Y00189
X00329Y00161
Y00134
X00081Y00363
Y00567
X001826
X00326Y00564
X003264Y00537
X003786Y00504
X00404
X00428Y00537
X004276Y00564
X004044Y00595
X00379
Y00649
X004044
X004286Y00684
X0043Y00712
X003284
X00327Y00684
X0061Y00698
X007116
X006594Y00593
X00634
X00611Y00496
X007126
T02
X00601Y00457
X00444Y00449
X00462Y00423
X00450172Y00254172
X00463757Y00242
X00429Y00236
X00444Y00755
X00462Y0075
X00617Y00734
X0061285Y00621
X00591Y00606
X006Y00581
T03
X00325Y00865
Y00885
X00525
Y00865
X00725
Y00885
T04
X0064651Y00537427
X0067151
X0069651
X0069611Y0065044
X0067111
X0064611
T05
X0056491Y0023632
Y0026172
Y0028712
Y0031252
Y0033792
Y0036332
Y0038872
X0048871
Y0036332
Y0033792
Y0031252
Y0028712
Y0026172
Y0023632
X0048763Y0051874
Y0054414
Y0056954
Y0059494
Y0062034
Y0064574
Y0067114
X00451Y00535
X00307Y00739
X0056383Y0067114
Y0064574
Y0062034
Y0059494
Y0056954
Y0054414
Y0051874
T06
X00515Y00431
X005404
Y00459
X00515
X00513Y00739
X005384
X00539Y00771
X005136
T07
X00919Y004168
Y004564
X00081
Y004168
Y00496
Y007758
Y008154
Y00855
X00919Y00496
T08
X0005Y0005
X0095
Y0095
X0005
M30
