G04*
G04 #@! TF.GenerationSoftware,Altium Limited,Altium Designer,26.5.1 (12)*
G04*
G04 Layer_Color=65535*
G04 Board_Origin=11811024|11811023*
%FSLAX44Y44*%
%MOMM*%
G71*
G04*
G04 #@! TF.SameCoordinates,DEDC9F41-5D7C-49D3-A0D0-9BEC21177D59*
G04*
G04*
G04 #@! TF.FilePolarity,Positive*
G04*
G01*
G75*
%ADD10C,0.6000*%
%ADD11C,0.2500*%
%ADD12C,0.2000*%
%ADD13C,0.2540*%
%ADD14C,0.1524*%
%ADD15C,0.1270*%
D10*
X512230Y683440D02*
G03*
X512230Y683440I-3000J0D01*
G01*
X513310Y401020D02*
G03*
X513310Y401020I-3000J0D01*
G01*
D11*
X488880Y684140D02*
G03*
X488880Y684140I-1250J0D01*
G01*
X489960Y401720D02*
G03*
X489960Y401720I-1250J0D01*
G01*
X647360Y680590D02*
G03*
X647360Y680590I-1250J0D01*
G01*
X647760Y567578D02*
G03*
X647760Y567578I-1250J0D01*
G01*
D12*
X519380Y693440D02*
G03*
X532080Y693440I6350J0D01*
G01*
X520460Y411020D02*
G03*
X533160Y411020I6350J0D01*
G01*
X920000Y522310D02*
G03*
X920000Y522310I-1000J0D01*
G01*
X82000Y749490D02*
G03*
X82000Y749490I-1000J0D01*
G01*
Y390490D02*
G03*
X82000Y390490I-1000J0D01*
G01*
X499230Y496440D02*
X552230D01*
X532080Y693440D02*
X552230D01*
X499230D02*
X519380D01*
X552230Y496440D02*
Y693440D01*
X499230Y496440D02*
Y693440D01*
X502300Y446300D02*
X553100D01*
X502300D02*
Y471700D01*
X553100D01*
Y446300D02*
Y471700D01*
X500310Y214020D02*
X553310D01*
X533160Y411020D02*
X553310D01*
X500310D02*
X520460D01*
X553310Y214020D02*
Y411020D01*
X500310Y214020D02*
Y411020D01*
X500900Y758300D02*
X551700D01*
X500900D02*
Y783700D01*
X551700D01*
Y758300D02*
Y783700D01*
X500300Y726300D02*
X551100D01*
X500300D02*
Y751700D01*
X551100D01*
Y726300D02*
Y751700D01*
X502300Y418300D02*
X553100D01*
X502300D02*
Y443700D01*
X553100D01*
Y418300D02*
Y443700D01*
X621560Y626340D02*
X720660D01*
X621560D02*
Y675840D01*
X720660D01*
Y626340D02*
Y675840D01*
X621960Y513327D02*
X721060D01*
X621960D02*
Y562827D01*
X721060D01*
Y513327D02*
Y562827D01*
X419400Y465997D02*
Y458000D01*
Y461999D01*
X424732D01*
Y465997D01*
Y458000D01*
X427397D02*
Y465997D01*
X431396D01*
X432729Y464664D01*
Y461999D01*
X431396Y460666D01*
X427397D01*
X435395Y458000D02*
X438061D01*
X436728D01*
Y465997D01*
X435395Y464664D01*
X442059Y458000D02*
Y465997D01*
Y460666D02*
X446058Y463332D01*
X442059Y460666D02*
X446058Y458000D01*
X450057Y465997D02*
Y458000D01*
Y461999D01*
X455388D01*
Y465997D01*
Y458000D01*
X458054Y463332D02*
X463386D01*
X458054Y458000D01*
X463386D01*
X475382D02*
X478048D01*
X479381Y459333D01*
Y461999D01*
X478048Y463332D01*
X475382D01*
X474049Y461999D01*
Y459333D01*
X475382Y458000D01*
X482047Y463332D02*
Y459333D01*
X483379Y458000D01*
X487378D01*
Y463332D01*
X491377Y464664D02*
Y463332D01*
X490044D01*
X492710D01*
X491377D01*
Y459333D01*
X492710Y458000D01*
X419400Y439997D02*
Y432000D01*
X424732D01*
X427397D02*
Y439997D01*
X431396D01*
X432729Y438665D01*
Y435999D01*
X431396Y434666D01*
X427397D01*
X435395Y432000D02*
X438061D01*
X436728D01*
Y439997D01*
X435395Y438665D01*
X442059Y432000D02*
Y439997D01*
Y434666D02*
X446058Y437332D01*
X442059Y434666D02*
X446058Y432000D01*
X450057Y439997D02*
Y432000D01*
Y435999D01*
X455388D01*
Y439997D01*
Y432000D01*
X458054Y437332D02*
X463386D01*
X458054Y432000D01*
X463386D01*
X475382D02*
X478048D01*
X479381Y433333D01*
Y435999D01*
X478048Y437332D01*
X475382D01*
X474049Y435999D01*
Y433333D01*
X475382Y432000D01*
X482047Y437332D02*
Y433333D01*
X483379Y432000D01*
X487378D01*
Y437332D01*
X491377Y438665D02*
Y437332D01*
X490044D01*
X492710D01*
X491377D01*
Y433333D01*
X492710Y432000D01*
X562500Y466297D02*
Y458300D01*
X567832D01*
X570498D02*
Y466297D01*
X574496D01*
X575829Y464964D01*
Y462299D01*
X574496Y460966D01*
X570498D01*
X578495Y458300D02*
X581161D01*
X579828D01*
Y466297D01*
X578495Y464964D01*
X585159Y458300D02*
Y466297D01*
Y460966D02*
X589158Y463632D01*
X585159Y460966D02*
X589158Y458300D01*
X593157Y466297D02*
Y458300D01*
Y462299D01*
X598488D01*
Y466297D01*
Y458300D01*
X601154Y463632D02*
X606486D01*
X601154Y458300D01*
X606486D01*
X617149D02*
X619815D01*
X618482D01*
Y463632D01*
X617149D01*
X623814Y458300D02*
Y463632D01*
X627812D01*
X629145Y462299D01*
Y458300D01*
X561900Y442297D02*
Y434300D01*
X565899D01*
X567232Y435633D01*
Y436966D01*
X565899Y438299D01*
X561900D01*
X565899D01*
X567232Y439632D01*
Y440965D01*
X565899Y442297D01*
X561900D01*
X569897Y434300D02*
Y442297D01*
X573896D01*
X575229Y440965D01*
Y438299D01*
X573896Y436966D01*
X569897D01*
X577895Y434300D02*
X580561D01*
X579228D01*
Y442297D01*
X577895Y440965D01*
X584559Y434300D02*
Y442297D01*
Y436966D02*
X588558Y439632D01*
X584559Y436966D02*
X588558Y434300D01*
X592557Y442297D02*
Y434300D01*
Y438299D01*
X597888D01*
Y442297D01*
Y434300D01*
X600554Y439632D02*
X605886D01*
X600554Y434300D01*
X605886D01*
X617882D02*
X620548D01*
X621881Y435633D01*
Y438299D01*
X620548Y439632D01*
X617882D01*
X616549Y438299D01*
Y435633D01*
X617882Y434300D01*
X624547Y439632D02*
Y435633D01*
X625879Y434300D01*
X629878D01*
Y439632D01*
X633877Y440965D02*
Y439632D01*
X632544D01*
X635210D01*
X633877D01*
Y435633D01*
X635210Y434300D01*
X560500Y746297D02*
Y738300D01*
X564499D01*
X565832Y739633D01*
Y740966D01*
X564499Y742299D01*
X560500D01*
X564499D01*
X565832Y743632D01*
Y744965D01*
X564499Y746297D01*
X560500D01*
X568497Y738300D02*
Y746297D01*
X572496D01*
X573829Y744965D01*
Y742299D01*
X572496Y740966D01*
X568497D01*
X581827Y746297D02*
X579161Y744965D01*
X576495Y742299D01*
Y739633D01*
X577828Y738300D01*
X580494D01*
X581827Y739633D01*
Y740966D01*
X580494Y742299D01*
X576495D01*
X584492Y744965D02*
X585825Y746297D01*
X588491D01*
X589824Y744965D01*
Y739633D01*
X588491Y738300D01*
X585825D01*
X584492Y739633D01*
Y744965D01*
X592490Y746297D02*
Y738300D01*
Y742299D01*
X597821D01*
Y746297D01*
Y738300D01*
X600487Y743632D02*
X605819D01*
X600487Y738300D01*
X605819D01*
X617815D02*
X620481D01*
X621814Y739633D01*
Y742299D01*
X620481Y743632D01*
X617815D01*
X616482Y742299D01*
Y739633D01*
X617815Y738300D01*
X624479Y743632D02*
Y739633D01*
X625812Y738300D01*
X629811D01*
Y743632D01*
X633810Y744965D02*
Y743632D01*
X632477D01*
X635143D01*
X633810D01*
Y739633D01*
X635143Y738300D01*
X561100Y778297D02*
Y770300D01*
X566432D01*
X569097D02*
Y778297D01*
X573096D01*
X574429Y776964D01*
Y774299D01*
X573096Y772966D01*
X569097D01*
X582426Y778297D02*
X579761Y776964D01*
X577095Y774299D01*
Y771633D01*
X578428Y770300D01*
X581094D01*
X582426Y771633D01*
Y772966D01*
X581094Y774299D01*
X577095D01*
X585092Y776964D02*
X586425Y778297D01*
X589091D01*
X590424Y776964D01*
Y771633D01*
X589091Y770300D01*
X586425D01*
X585092Y771633D01*
Y776964D01*
X593090Y778297D02*
Y770300D01*
Y774299D01*
X598421D01*
Y778297D01*
Y770300D01*
X601087Y775632D02*
X606419D01*
X601087Y770300D01*
X606419D01*
X617082D02*
X619748D01*
X618415D01*
Y775632D01*
X617082D01*
X623746Y770300D02*
Y775632D01*
X627745D01*
X629078Y774299D01*
Y770300D01*
X418000Y743997D02*
Y736000D01*
X423332D01*
X425997D02*
Y743997D01*
X429996D01*
X431329Y742664D01*
Y739999D01*
X429996Y738666D01*
X425997D01*
X439327Y743997D02*
X436661Y742664D01*
X433995Y739999D01*
Y737333D01*
X435328Y736000D01*
X437994D01*
X439327Y737333D01*
Y738666D01*
X437994Y739999D01*
X433995D01*
X441992Y742664D02*
X443325Y743997D01*
X445991D01*
X447324Y742664D01*
Y737333D01*
X445991Y736000D01*
X443325D01*
X441992Y737333D01*
Y742664D01*
X449990Y743997D02*
Y736000D01*
Y739999D01*
X455321D01*
Y743997D01*
Y736000D01*
X457987Y741332D02*
X463319D01*
X457987Y736000D01*
X463319D01*
X475315D02*
X477981D01*
X479314Y737333D01*
Y739999D01*
X477981Y741332D01*
X475315D01*
X473982Y739999D01*
Y737333D01*
X475315Y736000D01*
X481979Y741332D02*
Y737333D01*
X483312Y736000D01*
X487311D01*
Y741332D01*
X491310Y742664D02*
Y741332D01*
X489977D01*
X492643D01*
X491310D01*
Y737333D01*
X492643Y736000D01*
X418000Y777997D02*
Y770000D01*
Y773999D01*
X423332D01*
Y777997D01*
Y770000D01*
X425997D02*
Y777997D01*
X429996D01*
X431329Y776665D01*
Y773999D01*
X429996Y772666D01*
X425997D01*
X439327Y777997D02*
X436661Y776665D01*
X433995Y773999D01*
Y771333D01*
X435328Y770000D01*
X437994D01*
X439327Y771333D01*
Y772666D01*
X437994Y773999D01*
X433995D01*
X441992Y776665D02*
X443325Y777997D01*
X445991D01*
X447324Y776665D01*
Y771333D01*
X445991Y770000D01*
X443325D01*
X441992Y771333D01*
Y776665D01*
X449990Y777997D02*
Y770000D01*
Y773999D01*
X455321D01*
Y777997D01*
Y770000D01*
X457987Y775332D02*
X463319D01*
X457987Y770000D01*
X463319D01*
X475315D02*
X477981D01*
X479314Y771333D01*
Y773999D01*
X477981Y775332D01*
X475315D01*
X473982Y773999D01*
Y771333D01*
X475315Y770000D01*
X481979Y775332D02*
Y771333D01*
X483312Y770000D01*
X487311D01*
Y775332D01*
X491310Y776665D02*
Y775332D01*
X489977D01*
X492643D01*
X491310D01*
Y771333D01*
X492643Y770000D01*
X821000Y502996D02*
Y494999D01*
X824999Y491000D01*
X828997Y494999D01*
Y502996D01*
X832996Y491000D02*
X836995D01*
X834995D01*
Y498997D01*
X832996D01*
X850990Y502996D02*
Y491000D01*
X844992D01*
X842993Y492999D01*
Y496998D01*
X844992Y498997D01*
X850990D01*
X854989Y496998D02*
X862986D01*
X858988Y500997D02*
Y492999D01*
X821000Y423996D02*
Y415999D01*
X824999Y412000D01*
X828997Y415999D01*
Y423996D01*
X832996Y412000D02*
X836995D01*
X834995D01*
Y419997D01*
X832996D01*
X850990Y423996D02*
Y412000D01*
X844992D01*
X842993Y413999D01*
Y417998D01*
X844992Y419997D01*
X850990D01*
X854989Y417998D02*
X862986D01*
X838997Y460997D02*
X836998Y462996D01*
X832999D01*
X831000Y460997D01*
Y452999D01*
X832999Y451000D01*
X836998D01*
X838997Y452999D01*
Y456998D01*
X834999D01*
X842996Y451000D02*
Y462996D01*
X850993Y451000D01*
Y462996D01*
X854992D02*
Y451000D01*
X860990D01*
X862990Y452999D01*
Y460997D01*
X860990Y462996D01*
X854992D01*
X144997Y823997D02*
X142998Y825996D01*
X138999D01*
X137000Y823997D01*
Y815999D01*
X138999Y814000D01*
X142998D01*
X144997Y815999D01*
Y819998D01*
X140999D01*
X148996Y814000D02*
Y825996D01*
X156994Y814000D01*
Y825996D01*
X160992D02*
Y814000D01*
X166990D01*
X168990Y815999D01*
Y823997D01*
X166990Y825996D01*
X160992D01*
X137000Y775998D02*
X144997D01*
X156994Y781996D02*
X148996D01*
Y775998D01*
X152995Y777997D01*
X154994D01*
X156994Y775998D01*
Y771999D01*
X154994Y770000D01*
X150996D01*
X148996Y771999D01*
X160992Y781996D02*
Y773999D01*
X164991Y770000D01*
X168990Y773999D01*
Y781996D01*
X144997Y863996D02*
X137000D01*
Y857998D01*
X140999Y859997D01*
X142998D01*
X144997Y857998D01*
Y853999D01*
X142998Y852000D01*
X138999D01*
X137000Y853999D01*
X148996Y863996D02*
Y855999D01*
X152995Y852000D01*
X156994Y855999D01*
Y863996D01*
X137000Y412000D02*
Y423996D01*
X142998D01*
X144997Y421997D01*
Y417998D01*
X142998Y415999D01*
X137000D01*
X148996Y423996D02*
Y412000D01*
X152995Y415999D01*
X156994Y412000D01*
Y423996D01*
X160992Y412000D02*
Y423996D01*
X164991Y419997D01*
X168990Y423996D01*
Y412000D01*
X184984D02*
X188983D01*
X186984D01*
Y423996D01*
X184984Y421997D01*
X194981Y412000D02*
Y423996D01*
Y415999D02*
X200979Y419997D01*
X194981Y415999D02*
X200979Y412000D01*
X206977Y423996D02*
Y412000D01*
Y417998D01*
X214975D01*
Y423996D01*
Y412000D01*
X218974Y419997D02*
X226971D01*
X218974Y412000D01*
X226971D01*
X137000Y495000D02*
Y506996D01*
X142998D01*
X144997Y504997D01*
Y500998D01*
X142998Y498999D01*
X137000D01*
X148996Y506996D02*
Y495000D01*
X152995Y498999D01*
X156994Y495000D01*
Y506996D01*
X160992Y495000D02*
Y506996D01*
X164991Y502997D01*
X168990Y506996D01*
Y495000D01*
X192982Y506996D02*
X188983Y504997D01*
X184984Y500998D01*
Y496999D01*
X186984Y495000D01*
X190982D01*
X192982Y496999D01*
Y498999D01*
X190982Y500998D01*
X184984D01*
X196981Y504997D02*
X198980Y506996D01*
X202979D01*
X204978Y504997D01*
Y496999D01*
X202979Y495000D01*
X198980D01*
X196981Y496999D01*
Y504997D01*
X208977Y506996D02*
Y495000D01*
Y500998D01*
X216974D01*
Y506996D01*
Y495000D01*
X220973Y502997D02*
X228970D01*
X220973Y495000D01*
X228970D01*
X145997Y461997D02*
X143998Y463996D01*
X139999D01*
X138000Y461997D01*
Y453999D01*
X139999Y452000D01*
X143998D01*
X145997Y453999D01*
Y457998D01*
X141999D01*
X149996Y452000D02*
Y463996D01*
X157993Y452000D01*
Y463996D01*
X161992D02*
Y452000D01*
X167990D01*
X169990Y453999D01*
Y461997D01*
X167990Y463996D01*
X161992D01*
D13*
X10000Y15000D02*
G03*
X15000Y10000I5000J0D01*
G01*
Y990000D02*
G03*
X10000Y985000I0J-5000D01*
G01*
X990000D02*
G03*
X985000Y990000I-5000J0D01*
G01*
Y10000D02*
G03*
X990000Y15000I0J5000D01*
G01*
X15000Y10000D02*
X77000D01*
X10000Y15000D02*
Y985000D01*
X15000Y990000D02*
X985000D01*
X990000Y15000D02*
Y985000D01*
X45000Y10000D02*
X985000D01*
X92430Y556840D02*
X171170D01*
Y577160D01*
X92430D02*
X171170D01*
X92430Y556840D02*
Y577160D01*
Y352840D02*
Y373160D01*
X171170D01*
Y352840D02*
Y373160D01*
X92430Y352840D02*
X171170D01*
X337430Y404840D02*
Y425160D01*
X416170D01*
Y404840D02*
Y425160D01*
X337430Y404840D02*
X416170D01*
X337830Y526840D02*
Y547160D01*
X416570D01*
Y526840D02*
Y547160D01*
X337830Y526840D02*
X416570D01*
X417170Y673840D02*
Y694160D01*
X338430Y673840D02*
X417170D01*
X338430D02*
Y694160D01*
X417170D01*
X467830Y151840D02*
Y172160D01*
X546570D01*
Y151840D02*
Y172160D01*
X467830Y151840D02*
X546570D01*
X548170Y121840D02*
Y142160D01*
X469430Y121840D02*
X548170D01*
X469430D02*
Y142160D01*
X548170D01*
X700170Y363840D02*
Y384160D01*
X621430Y363840D02*
X700170D01*
X621430D02*
Y384160D01*
X700170D01*
Y392840D02*
Y413160D01*
X621430Y392840D02*
X700170D01*
X621430D02*
Y413160D01*
X700170D01*
Y333840D02*
Y354160D01*
X621430Y333840D02*
X700170D01*
X621430D02*
Y354160D01*
X700170D01*
X622430Y153840D02*
Y174160D01*
X701170D01*
Y153840D02*
Y174160D01*
X622430Y153840D02*
X701170D01*
Y264840D02*
Y285160D01*
X622430Y264840D02*
X701170D01*
X622430D02*
Y285160D01*
X701170D01*
Y237840D02*
Y258160D01*
X622430Y237840D02*
X701170D01*
X622430D02*
Y258160D01*
X701170D01*
X701570Y182840D02*
Y203160D01*
X622830Y182840D02*
X701570D01*
X622830D02*
Y203160D01*
X701570D01*
Y210840D02*
Y231160D01*
X622830Y210840D02*
X701570D01*
X622830D02*
Y231160D01*
X701570D01*
X700170Y687840D02*
Y708160D01*
X621430Y687840D02*
X700170D01*
X621430D02*
Y708160D01*
X700170D01*
X701170Y485840D02*
Y506160D01*
X622430Y485840D02*
X701170D01*
X622430D02*
Y506160D01*
X701170D01*
X419170Y150840D02*
Y171160D01*
X340430Y150840D02*
X419170D01*
X340430D02*
Y171160D01*
X419170D01*
X340430Y123840D02*
Y144160D01*
X419170D01*
Y123840D02*
Y144160D01*
X340430Y123840D02*
X419170D01*
X418570Y178840D02*
Y199160D01*
X339830Y178840D02*
X418570D01*
X339830D02*
Y199160D01*
X418570D01*
X337830Y377840D02*
Y398160D01*
X416570D01*
Y377840D02*
Y398160D01*
X337830Y377840D02*
X416570D01*
X416170Y553840D02*
Y574160D01*
X337430Y553840D02*
X416170D01*
X337430D02*
Y574160D01*
X416170D01*
X418570Y701840D02*
Y722160D01*
X339830Y701840D02*
X418570D01*
X339830D02*
Y722160D01*
X418570D01*
X453843Y693617D02*
Y680922D01*
X456382Y678382D01*
X461461D01*
X464000Y680922D01*
Y693617D01*
X469078Y678382D02*
X474157D01*
X471618D01*
Y693617D01*
X469078Y691078D01*
X46872Y215870D02*
X45539Y217203D01*
X42873D01*
X41540Y215870D01*
Y214537D01*
X42873Y213204D01*
X45539D01*
X46872Y211872D01*
Y210539D01*
X45539Y209206D01*
X42873D01*
X41540Y210539D01*
X49537Y209206D02*
X52203D01*
X50870D01*
Y214537D01*
X49537D01*
X58868Y206540D02*
X60201D01*
X61534Y207873D01*
Y214537D01*
X57535D01*
X56202Y213204D01*
Y210539D01*
X57535Y209206D01*
X61534D01*
X64199D02*
Y214537D01*
X68198D01*
X69531Y213204D01*
Y209206D01*
X73530Y214537D02*
X76196D01*
X77528Y213204D01*
Y209206D01*
X73530D01*
X72197Y210539D01*
X73530Y211872D01*
X77528D01*
X80194Y209206D02*
X82860D01*
X81527D01*
Y217203D01*
X80194D01*
X100188Y215870D02*
X98855Y217203D01*
X96189D01*
X94856Y215870D01*
Y210539D01*
X96189Y209206D01*
X98855D01*
X100188Y210539D01*
Y213204D01*
X97522D01*
X106852Y209206D02*
X104186D01*
X102854Y210539D01*
Y213204D01*
X104186Y214537D01*
X106852D01*
X108185Y213204D01*
Y211872D01*
X102854D01*
X110851Y209206D02*
Y214537D01*
X114850D01*
X116183Y213204D01*
Y209206D01*
X122847D02*
X120181D01*
X118848Y210539D01*
Y213204D01*
X120181Y214537D01*
X122847D01*
X124180Y213204D01*
Y211872D01*
X118848D01*
X126846Y214537D02*
Y209206D01*
Y211872D01*
X128179Y213204D01*
X129512Y214537D01*
X130844D01*
X136176D02*
X138842D01*
X140175Y213204D01*
Y209206D01*
X136176D01*
X134843Y210539D01*
X136176Y211872D01*
X140175D01*
X144174Y215870D02*
Y214537D01*
X142841D01*
X145506D01*
X144174D01*
Y210539D01*
X145506Y209206D01*
X150838D02*
X153504D01*
X154837Y210539D01*
Y213204D01*
X153504Y214537D01*
X150838D01*
X149505Y213204D01*
Y210539D01*
X150838Y209206D01*
X157503Y214537D02*
Y209206D01*
Y211872D01*
X158835Y213204D01*
X160168Y214537D01*
X161501D01*
X173497Y217203D02*
Y211872D01*
X176163Y209206D01*
X178829Y211872D01*
Y217203D01*
X181495Y209206D02*
X184161D01*
X182828D01*
Y217203D01*
X181495Y215870D01*
X201488Y209206D02*
X196157D01*
X201488Y214537D01*
Y215870D01*
X200156Y217203D01*
X197490D01*
X196157Y215870D01*
X204154D02*
X205487Y217203D01*
X208153D01*
X209486Y215870D01*
Y210539D01*
X208153Y209206D01*
X205487D01*
X204154Y210539D01*
Y215870D01*
X217483Y209206D02*
X212152D01*
X217483Y214537D01*
Y215870D01*
X216150Y217203D01*
X213485D01*
X212152Y215870D01*
X225481Y217203D02*
X222815Y215870D01*
X220149Y213204D01*
Y210539D01*
X221482Y209206D01*
X224148D01*
X225481Y210539D01*
Y211872D01*
X224148Y213204D01*
X220149D01*
X44206Y191540D02*
X45539D01*
X46872Y192873D01*
Y199537D01*
X42873D01*
X41540Y198204D01*
Y195539D01*
X42873Y194206D01*
X46872D01*
X49537D02*
X52203D01*
X50870D01*
Y199537D01*
X49537D01*
X57535Y200870D02*
Y199537D01*
X56202D01*
X58868D01*
X57535D01*
Y195539D01*
X58868Y194206D01*
X62867Y202203D02*
Y194206D01*
Y198204D01*
X64199Y199537D01*
X66865D01*
X68198Y198204D01*
Y194206D01*
X70864Y199537D02*
Y195539D01*
X72197Y194206D01*
X76196D01*
Y199537D01*
X78861Y202203D02*
Y194206D01*
X82860D01*
X84193Y195539D01*
Y196872D01*
Y198204D01*
X82860Y199537D01*
X78861D01*
X86859Y194206D02*
Y195539D01*
X88192D01*
Y194206D01*
X86859D01*
X98855Y199537D02*
X94856D01*
X93523Y198204D01*
Y195539D01*
X94856Y194206D01*
X98855D01*
X102854D02*
X105519D01*
X106852Y195539D01*
Y198204D01*
X105519Y199537D01*
X102854D01*
X101521Y198204D01*
Y195539D01*
X102854Y194206D01*
X109518D02*
Y199537D01*
X110851D01*
X112184Y198204D01*
Y194206D01*
Y198204D01*
X113517Y199537D01*
X114850Y198204D01*
Y194206D01*
X117515D02*
X122847Y199537D01*
X125513Y194206D02*
Y202203D01*
X129512D01*
X130844Y200870D01*
Y198204D01*
X129512Y196872D01*
X125513D01*
X133510Y202203D02*
Y194206D01*
Y198204D01*
X134843Y199537D01*
X137509D01*
X138842Y198204D01*
Y194206D01*
X141508D02*
X144174D01*
X142841D01*
Y199537D01*
X141508D01*
X148172Y194206D02*
X150838D01*
X149505D01*
Y202203D01*
X148172D01*
X154837Y194206D02*
X157503D01*
X156170D01*
Y199537D01*
X154837D01*
X161501Y191540D02*
Y199537D01*
X165500D01*
X166833Y198204D01*
Y195539D01*
X165500Y194206D01*
X161501D01*
X169499Y191540D02*
Y199537D01*
X173498D01*
X174830Y198204D01*
Y195539D01*
X173498Y194206D01*
X169499D01*
X181495D02*
X178829D01*
X177496Y195539D01*
Y198204D01*
X178829Y199537D01*
X181495D01*
X182828Y198204D01*
Y196872D01*
X177496D01*
X190825Y200870D02*
X189492Y202203D01*
X186826D01*
X185494Y200870D01*
Y195539D01*
X186826Y194206D01*
X189492D01*
X190825Y195539D01*
Y198204D01*
X188159D01*
X193491Y194206D02*
Y202203D01*
X197490D01*
X198823Y200870D01*
Y198204D01*
X197490Y196872D01*
X193491D01*
X196157D02*
X198823Y194206D01*
X201488Y202203D02*
Y194206D01*
X206820D01*
X209486Y202203D02*
X214818Y194206D01*
Y202203D02*
X209486Y194206D01*
X41540Y233203D02*
X44206D01*
X42873D01*
Y225206D01*
X41540D01*
X44206D01*
X48204D02*
Y230537D01*
X52203D01*
X53536Y229205D01*
Y225206D01*
X56202D02*
X60201D01*
X61534Y226539D01*
X60201Y227872D01*
X57535D01*
X56202Y229205D01*
X57535Y230537D01*
X61534D01*
X65532Y231870D02*
Y230537D01*
X64199D01*
X66865D01*
X65532D01*
Y226539D01*
X66865Y225206D01*
X70864Y230537D02*
Y225206D01*
Y227872D01*
X72197Y229205D01*
X73530Y230537D01*
X74863D01*
X78861D02*
Y226539D01*
X80194Y225206D01*
X84193D01*
Y230537D01*
X86859Y225206D02*
Y230537D01*
X88192D01*
X89524Y229205D01*
Y225206D01*
Y229205D01*
X90857Y230537D01*
X92190Y229205D01*
Y225206D01*
X98855D02*
X96189D01*
X94856Y226539D01*
Y229205D01*
X96189Y230537D01*
X98855D01*
X100188Y229205D01*
Y227872D01*
X94856D01*
X102854Y225206D02*
Y230537D01*
X106852D01*
X108185Y229205D01*
Y225206D01*
X112184Y231870D02*
Y230537D01*
X110851D01*
X113517D01*
X112184D01*
Y226539D01*
X113517Y225206D01*
X118848Y230537D02*
X121514D01*
X122847Y229205D01*
Y225206D01*
X118848D01*
X117515Y226539D01*
X118848Y227872D01*
X122847D01*
X126846Y231870D02*
Y230537D01*
X125513D01*
X128179D01*
X126846D01*
Y226539D01*
X128179Y225206D01*
X132177D02*
X134843D01*
X133510D01*
Y230537D01*
X132177D01*
X140175Y225206D02*
X142841D01*
X144174Y226539D01*
Y229205D01*
X142841Y230537D01*
X140175D01*
X138842Y229205D01*
Y226539D01*
X140175Y225206D01*
X146839D02*
Y230537D01*
X150838D01*
X152171Y229205D01*
Y225206D01*
X162834D02*
Y230537D01*
X165500Y233203D01*
X168166Y230537D01*
Y225206D01*
Y229205D01*
X162834D01*
X170832Y225206D02*
Y230537D01*
X172165D01*
X173498Y229205D01*
Y225206D01*
Y229205D01*
X174830Y230537D01*
X176163Y229205D01*
Y225206D01*
X178829Y222540D02*
Y230537D01*
X182828D01*
X184161Y229205D01*
Y226539D01*
X182828Y225206D01*
X178829D01*
X186826D02*
X189492D01*
X188159D01*
Y233203D01*
X186826D01*
X193491Y225206D02*
X196157D01*
X194824D01*
Y230537D01*
X193491D01*
X201488Y225206D02*
Y231870D01*
Y229205D01*
X200156D01*
X202821D01*
X201488D01*
Y231870D01*
X202821Y233203D01*
X206820Y225206D02*
X209486D01*
X208153D01*
Y230537D01*
X206820D01*
X217483Y225206D02*
X214818D01*
X213485Y226539D01*
Y229205D01*
X214818Y230537D01*
X217483D01*
X218816Y229205D01*
Y227872D01*
X213485D01*
X221482Y230537D02*
Y225206D01*
Y227872D01*
X222815Y229205D01*
X224148Y230537D01*
X225481D01*
X42540Y241540D02*
Y251537D01*
X47538D01*
X49205Y249871D01*
Y246538D01*
X47538Y244872D01*
X42540D01*
X52537Y251537D02*
Y241540D01*
Y246538D01*
X59201D01*
Y251537D01*
Y241540D01*
X62534Y251537D02*
X65866D01*
X64200D01*
Y241540D01*
X62534D01*
X65866D01*
X70864Y251537D02*
Y241540D01*
X77529D01*
X80861Y251537D02*
X84193D01*
X82527D01*
Y241540D01*
X80861D01*
X84193D01*
X89192D02*
Y251537D01*
X94190D01*
X95856Y249871D01*
Y246538D01*
X94190Y244872D01*
X89192D01*
X99188Y241540D02*
Y251537D01*
X104187D01*
X105853Y249871D01*
Y246538D01*
X104187Y244872D01*
X99188D01*
X115850Y251537D02*
X109185D01*
Y241540D01*
X115850D01*
X109185Y246538D02*
X112517D01*
X135843Y249871D02*
X134177Y251537D01*
X130845D01*
X129179Y249871D01*
Y243206D01*
X130845Y241540D01*
X134177D01*
X135843Y243206D01*
Y246538D01*
X132511D01*
X139176Y241540D02*
Y251537D01*
X144174D01*
X145840Y249871D01*
Y246538D01*
X144174Y244872D01*
X139176D01*
X142508D02*
X145840Y241540D01*
X154171Y251537D02*
X150838D01*
X149172Y249871D01*
Y243206D01*
X150838Y241540D01*
X154171D01*
X155837Y243206D01*
Y249871D01*
X154171Y251537D01*
X159169D02*
Y243206D01*
X160835Y241540D01*
X164167D01*
X165834Y243206D01*
Y251537D01*
X169166D02*
Y241540D01*
X175830D01*
X179163Y251537D02*
X185827Y241540D01*
Y251537D02*
X179163Y241540D01*
X455712Y810887D02*
X445555D01*
Y803270D01*
X450633D01*
X445555D01*
Y795652D01*
X460790D02*
X465868D01*
X463329D01*
Y805809D01*
X460790D01*
X473486Y795652D02*
X478564D01*
X476025D01*
Y810887D01*
X473486D01*
X488721Y808348D02*
Y805809D01*
X486182D01*
X491260D01*
X488721D01*
Y798191D01*
X491260Y795652D01*
X506495D02*
X501417D01*
X498878Y798191D01*
Y803270D01*
X501417Y805809D01*
X506495D01*
X509035Y803270D01*
Y800730D01*
X498878D01*
X514113Y805809D02*
Y795652D01*
Y800730D01*
X516652Y803270D01*
X519191Y805809D01*
X521730D01*
X529348Y793113D02*
X539505D01*
X554740Y810887D02*
X549661Y808348D01*
X544583Y803270D01*
Y798191D01*
X547122Y795652D01*
X552201D01*
X554740Y798191D01*
Y800730D01*
X552201Y803270D01*
X544583D01*
X559818Y808348D02*
X562357Y810887D01*
X567436D01*
X569975Y808348D01*
Y798191D01*
X567436Y795652D01*
X562357D01*
X559818Y798191D01*
Y808348D01*
X575053Y810887D02*
Y795652D01*
Y803270D01*
X585210D01*
Y810887D01*
Y795652D01*
X590288Y805809D02*
X600445D01*
X590288Y795652D01*
X600445D01*
X480017Y490998D02*
X472019D01*
Y485000D01*
X476018D01*
X472019D01*
Y479002D01*
X484016D02*
X488014D01*
X486015D01*
Y486999D01*
X484016D01*
X494012Y479002D02*
X498011D01*
X496012D01*
Y490998D01*
X494012D01*
X506008Y488998D02*
Y486999D01*
X504009D01*
X508008D01*
X506008D01*
Y481001D01*
X508008Y479002D01*
X520004D02*
X516005D01*
X514006Y481001D01*
Y485000D01*
X516005Y486999D01*
X520004D01*
X522003Y485000D01*
Y483000D01*
X514006D01*
X526002Y486999D02*
Y479002D01*
Y483000D01*
X528001Y485000D01*
X530001Y486999D01*
X532000D01*
X537998Y477002D02*
X545995D01*
X549994Y479002D02*
X553993D01*
X551994D01*
Y490998D01*
X549994Y488998D01*
X559991Y479002D02*
Y490998D01*
Y483000D02*
X565989Y486999D01*
X559991Y483000D02*
X565989Y479002D01*
X571987Y490998D02*
Y479002D01*
Y485000D01*
X579985D01*
Y490998D01*
Y479002D01*
X583983Y486999D02*
X591981D01*
X583983Y479002D01*
X591981D01*
X111687Y329383D02*
Y344618D01*
X119304D01*
X121843Y342078D01*
Y337000D01*
X119304Y334461D01*
X111687D01*
X116765D02*
X121843Y329383D01*
X126922D02*
X134539D01*
X137078Y331922D01*
X134539Y334461D01*
X129461D01*
X126922Y337000D01*
X129461Y339539D01*
X137078D01*
X152313Y329383D02*
X142157D01*
X152313Y339539D01*
Y342078D01*
X149774Y344618D01*
X144696D01*
X142157Y342078D01*
X113226Y584383D02*
Y599618D01*
X120843D01*
X123383Y597078D01*
Y592000D01*
X120843Y589461D01*
X113226D01*
X118304D02*
X123383Y584383D01*
X128461D02*
X136078D01*
X138618Y586922D01*
X136078Y589461D01*
X131000D01*
X128461Y592000D01*
X131000Y594539D01*
X138618D01*
X143696Y584383D02*
X148774D01*
X146235D01*
Y599618D01*
X143696Y597078D01*
X889956Y547018D02*
Y536861D01*
X895034Y531782D01*
X900113Y536861D01*
Y547018D01*
X905191Y531782D02*
X910270D01*
X907730D01*
Y541939D01*
X905191D01*
X928044Y547018D02*
Y531782D01*
X920426D01*
X917887Y534322D01*
Y539400D01*
X920426Y541939D01*
X928044D01*
X450304Y410617D02*
Y397922D01*
X452843Y395382D01*
X457922D01*
X460461Y397922D01*
Y410617D01*
X475696Y395382D02*
X465539D01*
X475696Y405539D01*
Y408078D01*
X473157Y410617D01*
X468078D01*
X465539Y408078D01*
X735956Y642383D02*
Y657618D01*
X743574D01*
X746113Y655078D01*
Y650000D01*
X743574Y647461D01*
X735956D01*
X741034D02*
X746113Y642383D01*
X753730D02*
Y655078D01*
Y650000D01*
X751191D01*
X756270D01*
X753730D01*
Y655078D01*
X756270Y657618D01*
X774044D02*
X768966Y655078D01*
X763887Y650000D01*
Y644922D01*
X766426Y642383D01*
X771505D01*
X774044Y644922D01*
Y647461D01*
X771505Y650000D01*
X763887D01*
X735956Y526382D02*
Y541618D01*
X743574D01*
X746113Y539078D01*
Y534000D01*
X743574Y531461D01*
X735956D01*
X741034D02*
X746113Y526382D01*
X753730D02*
Y539078D01*
Y534000D01*
X751191D01*
X756270D01*
X753730D01*
Y539078D01*
X756270Y541618D01*
X774044D02*
X763887D01*
Y534000D01*
X768966Y536539D01*
X771505D01*
X774044Y534000D01*
Y528922D01*
X771505Y526382D01*
X766426D01*
X763887Y528922D01*
X263956Y406382D02*
Y421618D01*
X271574D01*
X274113Y419078D01*
Y414000D01*
X271574Y411461D01*
X263956D01*
X269035D02*
X274113Y406382D01*
X281730D02*
Y419078D01*
Y414000D01*
X279191D01*
X284270D01*
X281730D01*
Y419078D01*
X284270Y421618D01*
X291887Y419078D02*
X294426Y421618D01*
X299505D01*
X302044Y419078D01*
Y416539D01*
X299505Y414000D01*
X296966D01*
X299505D01*
X302044Y411461D01*
Y408922D01*
X299505Y406382D01*
X294426D01*
X291887Y408922D01*
X263956Y529383D02*
Y544618D01*
X271574D01*
X274113Y542078D01*
Y537000D01*
X271574Y534461D01*
X263956D01*
X269035D02*
X274113Y529383D01*
X281730D02*
Y542078D01*
Y537000D01*
X279191D01*
X284270D01*
X281730D01*
Y542078D01*
X284270Y544618D01*
X302044Y529383D02*
X291887D01*
X302044Y539539D01*
Y542078D01*
X299505Y544618D01*
X294426D01*
X291887Y542078D01*
X274495Y676383D02*
Y691618D01*
X282113D01*
X284652Y689078D01*
Y684000D01*
X282113Y681461D01*
X274495D01*
X279574D02*
X284652Y676383D01*
X292270D02*
Y689078D01*
Y684000D01*
X289730D01*
X294809D01*
X292270D01*
Y689078D01*
X294809Y691618D01*
X302426Y676383D02*
X307505D01*
X304965D01*
Y691618D01*
X302426Y689078D01*
X534687Y184652D02*
Y199887D01*
X542304D01*
X544843Y197348D01*
Y192270D01*
X542304Y189730D01*
X534687D01*
X539765D02*
X544843Y184652D01*
X549922Y182113D02*
X560078D01*
X565157Y199887D02*
Y184652D01*
X572774D01*
X575313Y187191D01*
Y189730D01*
X572774Y192270D01*
X565157D01*
X572774D01*
X575313Y194809D01*
Y197348D01*
X572774Y199887D01*
X565157D01*
X572687Y124652D02*
Y139887D01*
X580304D01*
X582843Y137348D01*
Y132270D01*
X580304Y129730D01*
X572687D01*
X577765D02*
X582843Y124652D01*
X587922Y122113D02*
X598078D01*
X603157Y124652D02*
Y134809D01*
X608235Y139887D01*
X613313Y134809D01*
Y124652D01*
Y132270D01*
X603157D01*
X733946Y366382D02*
Y381618D01*
X741564D01*
X744103Y379078D01*
Y374000D01*
X741564Y371461D01*
X733946D01*
X739025D02*
X744103Y366382D01*
X749181D02*
X754260D01*
X751720D01*
Y381618D01*
X749181Y379078D01*
X769495Y366382D02*
Y381618D01*
X761877Y374000D01*
X772034D01*
X733946Y395382D02*
Y410617D01*
X741564D01*
X744103Y408078D01*
Y403000D01*
X741564Y400461D01*
X733946D01*
X739025D02*
X744103Y395382D01*
X749181D02*
X754260D01*
X751720D01*
Y410617D01*
X749181Y408078D01*
X761877D02*
X764416Y410617D01*
X769495D01*
X772034Y408078D01*
Y405539D01*
X769495Y403000D01*
X766955D01*
X769495D01*
X772034Y400461D01*
Y397922D01*
X769495Y395382D01*
X764416D01*
X761877Y397922D01*
X733946Y336382D02*
Y351618D01*
X741564D01*
X744103Y349078D01*
Y344000D01*
X741564Y341461D01*
X733946D01*
X739025D02*
X744103Y336382D01*
X749181D02*
X754260D01*
X751720D01*
Y351618D01*
X749181Y349078D01*
X772034Y336382D02*
X761877D01*
X772034Y346539D01*
Y349078D01*
X769495Y351618D01*
X764416D01*
X761877Y349078D01*
X737495Y156383D02*
Y171618D01*
X745113D01*
X747652Y169078D01*
Y164000D01*
X745113Y161461D01*
X737495D01*
X742574D02*
X747652Y156383D01*
X752730D02*
X757809D01*
X755270D01*
Y171618D01*
X752730Y169078D01*
X765426Y156383D02*
X770505D01*
X767965D01*
Y171618D01*
X765426Y169078D01*
X734946Y268652D02*
Y283888D01*
X742564D01*
X745103Y281348D01*
Y276270D01*
X742564Y273731D01*
X734946D01*
X740024D02*
X745103Y268652D01*
X750181D02*
X755260D01*
X752720D01*
Y283888D01*
X750181Y281348D01*
X762877D02*
X765416Y283888D01*
X770495D01*
X773034Y281348D01*
Y271192D01*
X770495Y268652D01*
X765416D01*
X762877Y271192D01*
Y281348D01*
X734944Y241115D02*
Y256350D01*
X742562D01*
X745101Y253811D01*
Y248733D01*
X742562Y246193D01*
X734944D01*
X740022D02*
X745101Y241115D01*
X750179Y243654D02*
X752718Y241115D01*
X757797D01*
X760336Y243654D01*
Y253811D01*
X757797Y256350D01*
X752718D01*
X750179Y253811D01*
Y251272D01*
X752718Y248733D01*
X760336D01*
X736614Y185382D02*
Y200618D01*
X744232D01*
X746771Y198078D01*
Y193000D01*
X744232Y190461D01*
X736614D01*
X741692D02*
X746771Y185382D01*
X751849Y198078D02*
X754388Y200618D01*
X759467D01*
X762006Y198078D01*
Y195539D01*
X759467Y193000D01*
X762006Y190461D01*
Y187922D01*
X759467Y185382D01*
X754388D01*
X751849Y187922D01*
Y190461D01*
X754388Y193000D01*
X751849Y195539D01*
Y198078D01*
X754388Y193000D02*
X759467D01*
X736614Y213382D02*
Y228618D01*
X744232D01*
X746771Y226078D01*
Y221000D01*
X744232Y218461D01*
X736614D01*
X741692D02*
X746771Y213382D01*
X751849Y228618D02*
X762006D01*
Y226078D01*
X751849Y215922D01*
Y213382D01*
X736304Y690383D02*
Y705618D01*
X743922D01*
X746461Y703078D01*
Y698000D01*
X743922Y695461D01*
X736304D01*
X741383D02*
X746461Y690383D01*
X761696Y705618D02*
X756618Y703078D01*
X751539Y698000D01*
Y692922D01*
X754078Y690383D01*
X759157D01*
X761696Y692922D01*
Y695461D01*
X759157Y698000D01*
X751539D01*
X736304Y488382D02*
Y503618D01*
X743922D01*
X746461Y501078D01*
Y496000D01*
X743922Y493461D01*
X736304D01*
X741383D02*
X746461Y488382D01*
X761696Y503618D02*
X751539D01*
Y496000D01*
X756618Y498539D01*
X759157D01*
X761696Y496000D01*
Y490922D01*
X759157Y488382D01*
X754078D01*
X751539Y490922D01*
X261687Y154382D02*
Y169618D01*
X269304D01*
X271843Y167078D01*
Y162000D01*
X269304Y159461D01*
X261687D01*
X266765D02*
X271843Y154382D01*
X284539D02*
Y169618D01*
X276922Y162000D01*
X287078D01*
X302313Y164539D02*
X294696D01*
X292157Y162000D01*
Y156922D01*
X294696Y154382D01*
X302313D01*
X261687Y128383D02*
Y143617D01*
X269304D01*
X271843Y141078D01*
Y136000D01*
X269304Y133461D01*
X261687D01*
X266765D02*
X271843Y128383D01*
X284539D02*
Y143617D01*
X276922Y136000D01*
X287078D01*
X292157Y143617D02*
Y128383D01*
X299774D01*
X302313Y130922D01*
Y133461D01*
Y136000D01*
X299774Y138539D01*
X292157D01*
X261687Y181383D02*
Y196618D01*
X269304D01*
X271843Y194078D01*
Y189000D01*
X269304Y186461D01*
X261687D01*
X266765D02*
X271843Y181383D01*
X284539D02*
Y196618D01*
X276922Y189000D01*
X287078D01*
X294696Y191539D02*
X299774D01*
X302313Y189000D01*
Y181383D01*
X294696D01*
X292157Y183922D01*
X294696Y186461D01*
X302313D01*
X276304Y383382D02*
Y398618D01*
X283922D01*
X286461Y396078D01*
Y391000D01*
X283922Y388461D01*
X276304D01*
X281382D02*
X286461Y383382D01*
X291539Y396078D02*
X294078Y398618D01*
X299157D01*
X301696Y396078D01*
Y393539D01*
X299157Y391000D01*
X296618D01*
X299157D01*
X301696Y388461D01*
Y385922D01*
X299157Y383382D01*
X294078D01*
X291539Y385922D01*
X280304Y557383D02*
Y572617D01*
X287922D01*
X290461Y570078D01*
Y565000D01*
X287922Y562461D01*
X280304D01*
X285382D02*
X290461Y557383D01*
X305696D02*
X295539D01*
X305696Y567539D01*
Y570078D01*
X303157Y572617D01*
X298078D01*
X295539Y570078D01*
X286843Y703382D02*
Y718618D01*
X294461D01*
X297000Y716078D01*
Y711000D01*
X294461Y708461D01*
X286843D01*
X291922D02*
X297000Y703382D01*
X302078D02*
X307157D01*
X304618D01*
Y718618D01*
X302078Y716078D01*
X48216Y524052D02*
Y539287D01*
X55834D01*
X58373Y536748D01*
Y531670D01*
X55834Y529130D01*
X48216D01*
X63451Y539287D02*
Y524052D01*
X68530Y529130D01*
X73608Y524052D01*
Y539287D01*
X78687Y524052D02*
Y539287D01*
X83765Y534209D01*
X88843Y539287D01*
Y524052D01*
X93922Y521513D02*
X104078D01*
X109157Y524052D02*
Y539287D01*
X114235Y534209D01*
X119313Y539287D01*
Y524052D01*
X134549Y536748D02*
X132009Y539287D01*
X126931D01*
X124392Y536748D01*
Y526591D01*
X126931Y524052D01*
X132009D01*
X134549Y526591D01*
X139627Y539287D02*
Y526591D01*
X142166Y524052D01*
X147244D01*
X149784Y526591D01*
Y539287D01*
X49721Y883783D02*
Y899017D01*
X57339D01*
X59878Y896478D01*
Y891400D01*
X57339Y888861D01*
X49721D01*
X67495Y883783D02*
X72574D01*
X75113Y886322D01*
Y891400D01*
X72574Y893939D01*
X67495D01*
X64956Y891400D01*
Y886322D01*
X67495Y883783D01*
X80191Y893939D02*
Y886322D01*
X82730Y883783D01*
X85270Y886322D01*
X87809Y883783D01*
X90348Y886322D01*
Y893939D01*
X103044Y883783D02*
X97965D01*
X95426Y886322D01*
Y891400D01*
X97965Y893939D01*
X103044D01*
X105583Y891400D01*
Y888861D01*
X95426D01*
X110661Y893939D02*
Y883783D01*
Y888861D01*
X113201Y891400D01*
X115740Y893939D01*
X118279D01*
X711495Y939078D02*
X708956Y941618D01*
X703878D01*
X701339Y939078D01*
Y928922D01*
X703878Y926383D01*
X708956D01*
X711495Y928922D01*
X716574Y926383D02*
X721652D01*
X719113D01*
Y936539D01*
X716574D01*
X729270Y926383D02*
Y936539D01*
X736887D01*
X739426Y934000D01*
Y926383D01*
X744505Y939078D02*
X747044Y941618D01*
X752122D01*
X754661Y939078D01*
Y936539D01*
X752122Y934000D01*
X749583D01*
X752122D01*
X754661Y931461D01*
Y928922D01*
X752122Y926383D01*
X747044D01*
X744505Y928922D01*
X502495Y942078D02*
X499956Y944617D01*
X494878D01*
X492339Y942078D01*
Y931922D01*
X494878Y929382D01*
X499956D01*
X502495Y931922D01*
X507574Y929382D02*
X512652D01*
X510113D01*
Y939539D01*
X507574D01*
X520270Y929382D02*
Y939539D01*
X527887D01*
X530426Y937000D01*
Y929382D01*
X545661D02*
X535505D01*
X545661Y939539D01*
Y942078D01*
X543122Y944617D01*
X538044D01*
X535505Y942078D01*
X311035Y941078D02*
X308495Y943617D01*
X303417D01*
X300878Y941078D01*
Y930922D01*
X303417Y928382D01*
X308495D01*
X311035Y930922D01*
X316113Y928382D02*
X321191D01*
X318652D01*
Y938539D01*
X316113D01*
X328809Y928382D02*
Y938539D01*
X336426D01*
X338965Y936000D01*
Y928382D01*
X344044D02*
X349122D01*
X346583D01*
Y943617D01*
X344044Y941078D01*
X274113Y511078D02*
X271574Y513618D01*
X266495D01*
X263956Y511078D01*
Y500922D01*
X266495Y498382D01*
X271574D01*
X274113Y500922D01*
X281730Y498382D02*
Y511078D01*
Y506000D01*
X279191D01*
X284270D01*
X281730D01*
Y511078D01*
X284270Y513618D01*
X302044Y498382D02*
X291887D01*
X302044Y508539D01*
Y511078D01*
X299505Y513618D01*
X294426D01*
X291887Y511078D01*
X744843Y315078D02*
X742304Y317618D01*
X737226D01*
X734687Y315078D01*
Y304922D01*
X737226Y302383D01*
X742304D01*
X744843Y304922D01*
X760078Y312539D02*
X752461D01*
X749922Y310000D01*
Y304922D01*
X752461Y302383D01*
X760078D01*
X772774D02*
Y317618D01*
X765157Y310000D01*
X775313D01*
X271843Y321078D02*
X269304Y323618D01*
X264226D01*
X261687Y321078D01*
Y310922D01*
X264226Y308382D01*
X269304D01*
X271843Y310922D01*
X287078Y318539D02*
X279461D01*
X276922Y316000D01*
Y310922D01*
X279461Y308382D01*
X287078D01*
X292157Y321078D02*
X294696Y323618D01*
X299774D01*
X302313Y321078D01*
Y318539D01*
X299774Y316000D01*
X297235D01*
X299774D01*
X302313Y313461D01*
Y310922D01*
X299774Y308382D01*
X294696D01*
X292157Y310922D01*
X745843Y598078D02*
X743304Y600617D01*
X738226D01*
X735687Y598078D01*
Y587922D01*
X738226Y585382D01*
X743304D01*
X745843Y587922D01*
X761078Y595539D02*
X753461D01*
X750922Y593000D01*
Y587922D01*
X753461Y585382D01*
X761078D01*
X776313D02*
X766157D01*
X776313Y595539D01*
Y598078D01*
X773774Y600617D01*
X768696D01*
X766157Y598078D01*
X281383Y600078D02*
X278843Y602617D01*
X273765D01*
X271226Y600078D01*
Y589922D01*
X273765Y587383D01*
X278843D01*
X281383Y589922D01*
X296618Y597539D02*
X289000D01*
X286461Y595000D01*
Y589922D01*
X289000Y587383D01*
X296618D01*
X301696D02*
X306774D01*
X304235D01*
Y602617D01*
X301696Y600078D01*
X271843Y274078D02*
X269304Y276618D01*
X264226D01*
X261687Y274078D01*
Y263922D01*
X264226Y261383D01*
X269304D01*
X271843Y263922D01*
X284539Y261383D02*
Y276618D01*
X276922Y269000D01*
X287078D01*
X292157Y276618D02*
Y261383D01*
X299774D01*
X302313Y263922D01*
Y266461D01*
Y269000D01*
X299774Y271539D01*
X292157D01*
X271843Y232078D02*
X269304Y234618D01*
X264226D01*
X261687Y232078D01*
Y221922D01*
X264226Y219382D01*
X269304D01*
X271843Y221922D01*
X284539Y219382D02*
Y234618D01*
X276922Y227000D01*
X287078D01*
X294696Y229539D02*
X299774D01*
X302313Y227000D01*
Y219382D01*
X294696D01*
X292157Y221922D01*
X294696Y224461D01*
X302313D01*
X286461Y365078D02*
X283922Y367618D01*
X278843D01*
X276304Y365078D01*
Y354922D01*
X278843Y352383D01*
X283922D01*
X286461Y354922D01*
X291539Y365078D02*
X294078Y367618D01*
X299157D01*
X301696Y365078D01*
Y362539D01*
X299157Y360000D01*
X296618D01*
X299157D01*
X301696Y357461D01*
Y354922D01*
X299157Y352383D01*
X294078D01*
X291539Y354922D01*
X297000Y655078D02*
X294461Y657618D01*
X289382D01*
X286843Y655078D01*
Y644922D01*
X289382Y642383D01*
X294461D01*
X297000Y644922D01*
X302078Y642383D02*
X307157D01*
X304618D01*
Y657618D01*
X302078Y655078D01*
D14*
X353829Y875000D02*
G03*
X353829Y875000I-28829J0D01*
G01*
X553829D02*
G03*
X553829Y875000I-28829J0D01*
G01*
X753829D02*
G03*
X753829Y875000I-28829J0D01*
G01*
X366300Y665510D02*
X417100D01*
Y632490D02*
Y665510D01*
X366300Y632490D02*
X417100D01*
X366300D02*
Y665510D01*
X325000Y905099D02*
Y917799D01*
X318650Y911449D02*
X331350D01*
X518650D02*
X531350D01*
X525000Y905099D02*
Y917799D01*
X725000Y905099D02*
Y917799D01*
X718650Y911449D02*
X731350D01*
X365900Y487490D02*
Y520510D01*
Y487490D02*
X416700D01*
Y520510D01*
X365900D02*
X416700D01*
X622300Y292490D02*
Y325510D01*
Y292490D02*
X673100D01*
Y325510D01*
X622300D02*
X673100D01*
X417700Y295490D02*
Y328510D01*
X366900D02*
X417700D01*
X366900Y295490D02*
Y328510D01*
Y295490D02*
X417700D01*
X621300Y576490D02*
Y609510D01*
Y576490D02*
X672100D01*
Y609510D01*
X621300D02*
X672100D01*
X417100Y578490D02*
Y611510D01*
X366300D02*
X417100D01*
X366300Y578490D02*
Y611510D01*
Y578490D02*
X417100D01*
X367900Y250490D02*
Y283510D01*
Y250490D02*
X418700D01*
Y283510D01*
X367900D02*
X418700D01*
Y207490D02*
Y240510D01*
X367900D02*
X418700D01*
X367900Y207490D02*
Y240510D01*
Y207490D02*
X418700D01*
X416700Y340490D02*
Y373510D01*
X365900D02*
X416700D01*
X365900Y340490D02*
Y373510D01*
Y340490D02*
X416700D01*
D15*
X873280Y396990D02*
Y515810D01*
X949480Y396990D02*
Y515810D01*
X873280Y396990D02*
X949480D01*
X873280Y515810D02*
X949480D01*
X50520Y755990D02*
X126720D01*
X50520Y874810D02*
X126720D01*
X50520Y755990D02*
Y874810D01*
X126720Y755990D02*
Y874810D01*
Y396990D02*
Y515810D01*
X50520Y396990D02*
Y515810D01*
X126720D01*
X50520Y396990D02*
X126720D01*
M02*
