G04*
G04 #@! TF.GenerationSoftware,Altium Limited,Altium Designer,26.5.1 (12)*
G04*
G04 Layer_Physical_Order=2*
G04 Layer_Color=16711680*
G04 Board_Origin=11811024|11811023*
%FSLAX44Y44*%
%MOMM*%
G71*
G04*
G04 #@! TF.SameCoordinates,DEDC9F41-5D7C-49D3-A0D0-9BEC21177D59*
G04*
G04*
G04 #@! TF.FilePolarity,Positive*
G04*
G01*
G75*
%ADD22C,1.3000*%
%ADD23C,1.2700*%
%ADD27R,1.3000X1.3000*%
%ADD30C,0.3000*%
%ADD31C,1.5000*%
%ADD32R,1.5000X1.5000*%
%ADD33C,6.0000*%
%ADD34C,2.1280*%
%ADD36C,1.6510*%
%ADD37R,2.0000X2.0000*%
%ADD39R,2.1280X2.1280*%
%ADD40C,1.6000*%
%ADD41R,1.5240X1.5240*%
G36*
X13000Y991646D02*
X987000D01*
X987118Y991670D01*
X988796Y991336D01*
X990319Y990319D01*
X991336Y988796D01*
X991670Y987118D01*
X991646Y987000D01*
Y13000D01*
X991670Y12882D01*
X991336Y11204D01*
X990319Y9681D01*
X988796Y8664D01*
X987118Y8330D01*
X987000Y8354D01*
X13000D01*
X12882Y8330D01*
X11204Y8664D01*
X9681Y9681D01*
X8664Y11204D01*
X8330Y12882D01*
X8354Y13000D01*
Y775000D01*
Y987000D01*
X8330Y987118D01*
X8664Y988796D01*
X9681Y990319D01*
X11204Y991336D01*
X12882Y991670D01*
X13000Y991646D01*
D02*
G37*
%LPC*%
G36*
X952561Y982540D02*
X951270D01*
Y951270D01*
X982540D01*
Y952561D01*
X981739Y957620D01*
X980156Y962491D01*
X977831Y967055D01*
X974820Y971198D01*
X971198Y974820D01*
X967055Y977831D01*
X962491Y980156D01*
X957620Y981739D01*
X952561Y982540D01*
D02*
G37*
G36*
X948730D02*
X947439D01*
X942380Y981739D01*
X937509Y980156D01*
X932945Y977831D01*
X928802Y974820D01*
X925180Y971198D01*
X922169Y967055D01*
X919844Y962491D01*
X918261Y957620D01*
X917460Y952561D01*
Y951270D01*
X948730D01*
Y982540D01*
D02*
G37*
G36*
X52561D02*
X51270D01*
Y951270D01*
X82540D01*
Y952561D01*
X81739Y957620D01*
X80156Y962491D01*
X77831Y967055D01*
X74820Y971198D01*
X71198Y974820D01*
X67055Y977831D01*
X62491Y980156D01*
X57620Y981739D01*
X52561Y982540D01*
D02*
G37*
G36*
X48730D02*
X47439D01*
X42380Y981739D01*
X37509Y980156D01*
X32945Y977831D01*
X28802Y974820D01*
X25180Y971198D01*
X22169Y967055D01*
X19844Y962491D01*
X18261Y957620D01*
X17460Y952561D01*
Y951270D01*
X48730D01*
Y982540D01*
D02*
G37*
G36*
X982540Y948730D02*
X951270D01*
Y917460D01*
X952561D01*
X957620Y918261D01*
X962491Y919844D01*
X967055Y922169D01*
X971198Y925180D01*
X974820Y928802D01*
X977831Y932945D01*
X980156Y937509D01*
X981739Y942380D01*
X982540Y947439D01*
Y948730D01*
D02*
G37*
G36*
X948730D02*
X917460D01*
Y947439D01*
X918261Y942380D01*
X919844Y937509D01*
X922169Y932945D01*
X925180Y928802D01*
X928802Y925180D01*
X932945Y922169D01*
X937509Y919844D01*
X942380Y918261D01*
X947439Y917460D01*
X948730D01*
Y948730D01*
D02*
G37*
G36*
X82540D02*
X51270D01*
Y917460D01*
X52561D01*
X57620Y918261D01*
X62491Y919844D01*
X67055Y922169D01*
X71198Y925180D01*
X74820Y928802D01*
X77831Y932945D01*
X80156Y937509D01*
X81739Y942380D01*
X82540Y947439D01*
Y948730D01*
D02*
G37*
G36*
X48730D02*
X17460D01*
Y947439D01*
X18261Y942380D01*
X19844Y937509D01*
X22169Y932945D01*
X25180Y928802D01*
X28802Y925180D01*
X32945Y922169D01*
X37509Y919844D01*
X42380Y918261D01*
X47439Y917460D01*
X48730D01*
Y948730D01*
D02*
G37*
G36*
X726270Y893863D02*
Y886270D01*
X733863D01*
X733284Y888431D01*
X732114Y890459D01*
X730459Y892114D01*
X728431Y893284D01*
X726270Y893863D01*
D02*
G37*
G36*
X723730D02*
X721569Y893284D01*
X719541Y892114D01*
X717886Y890459D01*
X716716Y888431D01*
X716137Y886270D01*
X723730D01*
Y893863D01*
D02*
G37*
G36*
X526231Y894350D02*
X523769D01*
X521391Y893713D01*
X519259Y892482D01*
X518565Y891788D01*
X518330Y891635D01*
X517811Y891129D01*
X517364Y890735D01*
X516946Y890406D01*
X516559Y890138D01*
X516207Y889930D01*
X515894Y889777D01*
X515621Y889672D01*
X515388Y889607D01*
X515277Y889588D01*
X495000D01*
X493244Y889239D01*
X491756Y888244D01*
X469756Y866244D01*
X468761Y864756D01*
X468412Y863000D01*
Y760559D01*
X465675Y758756D01*
X465412Y758766D01*
X463231Y759350D01*
X460769D01*
X458391Y758713D01*
X456259Y757482D01*
X456150Y757373D01*
X452804Y758269D01*
X452713Y758609D01*
X451482Y760741D01*
X449741Y762482D01*
X447609Y763713D01*
X445231Y764350D01*
X442769D01*
X440391Y763713D01*
X438259Y762482D01*
X436518Y760741D01*
X435287Y758609D01*
X434650Y756231D01*
Y753769D01*
X435287Y751391D01*
X436518Y749259D01*
X438259Y747518D01*
X439412Y746852D01*
Y722748D01*
X438171Y721884D01*
X436412Y721294D01*
X434344Y722488D01*
X431482Y723255D01*
X428518D01*
X425656Y722488D01*
X423089Y721006D01*
X420994Y718911D01*
X419512Y716344D01*
X418745Y713482D01*
Y710518D01*
X419512Y707656D01*
X420994Y705089D01*
X423089Y702994D01*
X425656Y701512D01*
X428518Y700745D01*
X431482D01*
X434344Y701512D01*
X436412Y702706D01*
X438171Y702116D01*
X439412Y701252D01*
Y693348D01*
X436412Y692105D01*
X435511Y693006D01*
X432944Y694488D01*
X430082Y695255D01*
X427118D01*
X424256Y694488D01*
X421689Y693006D01*
X419594Y690911D01*
X418112Y688344D01*
X417345Y685482D01*
Y682518D01*
X418112Y679656D01*
X419594Y677089D01*
X421689Y674994D01*
X424256Y673512D01*
X427118Y672745D01*
X430082D01*
X432944Y673512D01*
X435511Y674994D01*
X436412Y675895D01*
X439412Y674652D01*
Y668388D01*
X439761Y666632D01*
X440756Y665143D01*
X441412Y664487D01*
Y584300D01*
X431672Y574561D01*
X429082Y575255D01*
X426118D01*
X423256Y574488D01*
X420689Y573006D01*
X418594Y570911D01*
X417112Y568344D01*
X416345Y565482D01*
Y562518D01*
X417112Y559656D01*
X418594Y557089D01*
X420689Y554994D01*
X423256Y553512D01*
X426118Y552745D01*
X429082D01*
X430303Y553072D01*
X431856Y550382D01*
X429676Y548203D01*
X429482Y548255D01*
X426518D01*
X423656Y547488D01*
X421089Y546006D01*
X418994Y543911D01*
X417512Y541344D01*
X416745Y538482D01*
Y535518D01*
X417512Y532656D01*
X418994Y530089D01*
X421089Y527994D01*
X423656Y526512D01*
X426518Y525745D01*
X429482D01*
X432344Y526512D01*
X434911Y527994D01*
X437006Y530089D01*
X437563Y531054D01*
X440750Y530754D01*
X442198Y528246D01*
X444246Y526198D01*
X446412Y524947D01*
Y491900D01*
X428100Y473588D01*
X393900D01*
X383588Y483900D01*
Y493380D01*
X389220D01*
Y514620D01*
X367980D01*
Y493380D01*
X374412D01*
Y482000D01*
X374761Y480244D01*
X375756Y478756D01*
X388756Y465756D01*
X390244Y464761D01*
X392000Y464412D01*
X430000D01*
X431756Y464761D01*
X433244Y465756D01*
X454244Y486756D01*
X455239Y488244D01*
X455588Y490000D01*
Y524947D01*
X457754Y526198D01*
X459802Y528246D01*
X461250Y530754D01*
X462000Y533552D01*
Y536448D01*
X461250Y539246D01*
X459802Y541754D01*
X457754Y543802D01*
X455246Y545250D01*
X452448Y546000D01*
X449552D01*
X446754Y545250D01*
X444246Y543802D01*
X442656Y542212D01*
X440607Y542272D01*
X439282Y542704D01*
X438713Y544262D01*
X465244Y570794D01*
X465412Y571045D01*
X468412Y570135D01*
Y433559D01*
X465675Y431756D01*
X465412Y431766D01*
X463231Y432350D01*
X460769D01*
X458391Y431713D01*
X456259Y430482D01*
X454518Y428741D01*
X453287Y426609D01*
X452650Y424231D01*
Y421769D01*
X453287Y419391D01*
X454518Y417259D01*
X456259Y415518D01*
X457412Y414852D01*
Y298169D01*
X454412Y298157D01*
X453588Y402122D01*
X453410Y402980D01*
X453239Y403841D01*
X453229Y403857D01*
X453225Y403875D01*
X452732Y404599D01*
X452244Y405330D01*
X448588Y408986D01*
Y440853D01*
X449741Y441518D01*
X451482Y443259D01*
X452713Y445391D01*
X453350Y447769D01*
Y450231D01*
X452713Y452609D01*
X451482Y454741D01*
X449741Y456482D01*
X447609Y457713D01*
X445231Y458350D01*
X442769D01*
X440391Y457713D01*
X438259Y456482D01*
X436518Y454741D01*
X435287Y452609D01*
X434650Y450231D01*
Y447769D01*
X435287Y445391D01*
X436518Y443259D01*
X438259Y441518D01*
X439412Y440853D01*
Y423051D01*
X437280Y422185D01*
X436412Y422105D01*
X434511Y424006D01*
X431944Y425488D01*
X429082Y426255D01*
X426118D01*
X423256Y425488D01*
X420689Y424006D01*
X418594Y421911D01*
X417112Y419344D01*
X416345Y416482D01*
Y413518D01*
X417112Y410656D01*
X418594Y408089D01*
X420689Y405994D01*
X423256Y404512D01*
X426118Y403745D01*
X429082D01*
X431944Y404512D01*
X434511Y405994D01*
X436412Y407895D01*
X437403Y407804D01*
X439071Y407207D01*
X439432Y406984D01*
X439761Y405329D01*
X440756Y403841D01*
X444427Y400170D01*
X445507Y263858D01*
X445489Y263747D01*
X445426Y263513D01*
X445323Y263240D01*
X445172Y262926D01*
X444967Y262572D01*
X444728Y262220D01*
X443958Y261283D01*
X443484Y260789D01*
X443339Y260562D01*
X442690Y259913D01*
X441459Y257781D01*
X440822Y255403D01*
Y252941D01*
X441459Y250563D01*
X442690Y248431D01*
X444431Y246690D01*
X446563Y245459D01*
X448941Y244822D01*
X451403D01*
X451753Y244916D01*
X452906Y244184D01*
X454407Y242521D01*
Y240769D01*
X455045Y238391D01*
X456275Y236259D01*
X458016Y234518D01*
X460148Y233287D01*
X462526Y232650D01*
X464988D01*
X467366Y233287D01*
X468412Y233891D01*
X471193Y232563D01*
X471412Y232311D01*
Y183500D01*
X462232Y174320D01*
X462040Y174193D01*
X461716Y174028D01*
X461286Y173861D01*
X460748Y173703D01*
X460103Y173564D01*
X459389Y173456D01*
X457520Y173322D01*
X456457Y173313D01*
X456176Y173255D01*
X454918D01*
X452056Y172488D01*
X450943Y171846D01*
X447943Y173544D01*
Y236989D01*
X447594Y238745D01*
X446599Y240233D01*
X422709Y264124D01*
X421220Y265119D01*
X419464Y265468D01*
X416620D01*
Y277620D01*
X395380D01*
Y256380D01*
X411677D01*
X412120Y256292D01*
X417564D01*
X425900Y247955D01*
X425491Y245350D01*
X425080Y244533D01*
X423259Y243482D01*
X421518Y241741D01*
X420287Y239609D01*
X419650Y237231D01*
Y234769D01*
X420287Y232391D01*
X421518Y230259D01*
X422777Y229000D01*
X422903Y228835D01*
X423234Y228543D01*
X423259Y228518D01*
X423269Y228513D01*
X423422Y228377D01*
X423813Y227991D01*
X424137Y227628D01*
X424395Y227292D01*
X424593Y226988D01*
X424736Y226718D01*
X424833Y226481D01*
X424894Y226276D01*
X424912Y226172D01*
Y201733D01*
X424867Y201507D01*
X424752Y201140D01*
X424563Y200687D01*
X424291Y200156D01*
X423933Y199556D01*
X423503Y198920D01*
X422301Y197381D01*
X421573Y196548D01*
X421493Y196410D01*
X420994Y195911D01*
X419512Y193344D01*
X418745Y190482D01*
Y187518D01*
X419512Y184656D01*
X420994Y182089D01*
X423089Y179994D01*
X425656Y178512D01*
X428518Y177745D01*
X431482D01*
X434344Y178512D01*
X435767Y179333D01*
X438767Y177860D01*
Y172186D01*
X435767Y170482D01*
X434767Y171059D01*
X432021Y171795D01*
X431870D01*
Y161000D01*
Y150205D01*
X432021D01*
X433965Y150726D01*
X436237Y149631D01*
X437126Y148839D01*
X437313Y147202D01*
X436432Y146320D01*
X436240Y146193D01*
X435916Y146028D01*
X435486Y145861D01*
X434948Y145703D01*
X434303Y145564D01*
X433590Y145456D01*
X431720Y145322D01*
X430657Y145313D01*
X430376Y145255D01*
X429118D01*
X426256Y144488D01*
X423689Y143006D01*
X421594Y140911D01*
X420112Y138344D01*
X419345Y135482D01*
Y132518D01*
X420112Y129656D01*
X421594Y127089D01*
X423689Y124994D01*
X426256Y123512D01*
X429118Y122745D01*
X432082D01*
X434944Y123512D01*
X437511Y124994D01*
X439606Y127089D01*
X441088Y129656D01*
X441855Y132518D01*
Y133746D01*
X441912Y133997D01*
X441972Y136134D01*
X442051Y136953D01*
X442164Y137703D01*
X442303Y138348D01*
X442461Y138886D01*
X442628Y139316D01*
X442793Y139640D01*
X442920Y139832D01*
X446599Y143511D01*
X447594Y144999D01*
X447943Y146755D01*
Y150456D01*
X450943Y152154D01*
X452056Y151512D01*
X454918Y150745D01*
X457882D01*
X460744Y151512D01*
X463311Y152994D01*
X465406Y155089D01*
X466888Y157656D01*
X467655Y160518D01*
Y161746D01*
X467712Y161997D01*
X467772Y164134D01*
X467851Y164953D01*
X467964Y165703D01*
X468103Y166348D01*
X468261Y166886D01*
X468428Y167316D01*
X468593Y167640D01*
X468720Y167832D01*
X479244Y178356D01*
X480239Y179844D01*
X480588Y181600D01*
Y225548D01*
X483588Y227153D01*
X484657Y226536D01*
X487328Y225820D01*
X490092D01*
X492763Y226536D01*
X495157Y227918D01*
X497112Y229873D01*
X498494Y232267D01*
X499210Y234938D01*
Y237702D01*
X498494Y240373D01*
X497112Y242767D01*
X495157Y244722D01*
X492763Y246104D01*
X490092Y246820D01*
X487328D01*
X486239Y246528D01*
X483195Y248152D01*
X482906Y248557D01*
X482794Y249315D01*
X483746Y250267D01*
X483897Y250370D01*
X484175Y250516D01*
X484539Y250665D01*
X484995Y250806D01*
X485542Y250931D01*
X486140Y251028D01*
X487751Y251153D01*
X488665Y251162D01*
X488943Y251220D01*
X490092D01*
X492763Y251936D01*
X495157Y253318D01*
X497112Y255273D01*
X498494Y257667D01*
X499210Y260338D01*
Y263102D01*
X498494Y265773D01*
X497112Y268167D01*
X495157Y270122D01*
X492763Y271504D01*
X490092Y272220D01*
X487328D01*
X484657Y271504D01*
X482263Y270122D01*
X480308Y268167D01*
X478926Y265773D01*
X478210Y263102D01*
Y261986D01*
X478153Y261739D01*
X478096Y259880D01*
X478024Y259189D01*
X477921Y258552D01*
X477796Y258004D01*
X477655Y257549D01*
X477506Y257185D01*
X477360Y256907D01*
X477257Y256756D01*
X472756Y252254D01*
X472040Y251183D01*
X471235Y250645D01*
X469079Y250147D01*
X467379Y251347D01*
X466588Y252028D01*
Y324326D01*
X469588Y325236D01*
X469756Y324986D01*
X477257Y317484D01*
X477360Y317333D01*
X477506Y317055D01*
X477655Y316691D01*
X477796Y316236D01*
X477921Y315688D01*
X478018Y315090D01*
X478143Y313479D01*
X478152Y312565D01*
X478210Y312286D01*
Y311138D01*
X478926Y308467D01*
X480308Y306073D01*
X482263Y304118D01*
X484657Y302736D01*
X487328Y302020D01*
X490092D01*
X492763Y302736D01*
X495157Y304118D01*
X497112Y306073D01*
X498494Y308467D01*
X499210Y311138D01*
Y313902D01*
X498494Y316573D01*
X497112Y318967D01*
X495157Y320922D01*
X492763Y322304D01*
X490092Y323020D01*
X488976D01*
X488729Y323077D01*
X486870Y323134D01*
X486179Y323206D01*
X485542Y323308D01*
X484995Y323434D01*
X484539Y323575D01*
X484175Y323723D01*
X483897Y323870D01*
X483746Y323973D01*
X479270Y328448D01*
X479370Y328819D01*
X482454Y329855D01*
X482732Y329778D01*
X484835Y328564D01*
X487388Y327880D01*
X487440D01*
Y337920D01*
Y347960D01*
X487388D01*
X484835Y347276D01*
X482545Y345954D01*
X480676Y344085D01*
X480588Y343932D01*
X477588Y344736D01*
Y355584D01*
X479380Y356433D01*
X480588Y356593D01*
X482263Y354918D01*
X484657Y353536D01*
X487328Y352820D01*
X490092D01*
X492763Y353536D01*
X495157Y354918D01*
X497112Y356873D01*
X498494Y359267D01*
X499210Y361938D01*
Y364702D01*
X498494Y367373D01*
X497112Y369767D01*
X495157Y371722D01*
X492763Y373104D01*
X490092Y373820D01*
X487328D01*
X484657Y373104D01*
X482263Y371722D01*
X480588Y370047D01*
X479380Y370207D01*
X477588Y371056D01*
Y375478D01*
X478210Y378220D01*
X480588Y378220D01*
X499210D01*
Y399220D01*
X480588D01*
X478210Y399220D01*
X477588Y401962D01*
Y509690D01*
X480588Y510933D01*
X481183Y510338D01*
X483577Y508956D01*
X486248Y508240D01*
X489012D01*
X491683Y508956D01*
X494077Y510338D01*
X496032Y512293D01*
X497414Y514687D01*
X498130Y517358D01*
Y520122D01*
X497414Y522793D01*
X496032Y525187D01*
X494077Y527142D01*
X491683Y528524D01*
X489012Y529240D01*
X486248D01*
X483577Y528524D01*
X481183Y527142D01*
X480588Y526547D01*
X477588Y527790D01*
Y535090D01*
X480588Y536333D01*
X481183Y535738D01*
X483577Y534356D01*
X486248Y533640D01*
X489012D01*
X491683Y534356D01*
X494077Y535738D01*
X496032Y537693D01*
X497414Y540087D01*
X498130Y542758D01*
Y545522D01*
X497414Y548193D01*
X496032Y550587D01*
X494077Y552542D01*
X491683Y553924D01*
X489012Y554640D01*
X486248D01*
X483577Y553924D01*
X481183Y552542D01*
X480588Y551947D01*
X477588Y553190D01*
Y561141D01*
X480588Y562383D01*
X481465Y561506D01*
X483755Y560184D01*
X486308Y559500D01*
X486360D01*
Y569540D01*
Y579580D01*
X486308D01*
X483755Y578896D01*
X481465Y577574D01*
X480588Y576697D01*
X477588Y577939D01*
Y585890D01*
X480588Y587133D01*
X481183Y586538D01*
X483577Y585156D01*
X486248Y584440D01*
X489012D01*
X491683Y585156D01*
X494077Y586538D01*
X496032Y588493D01*
X497414Y590887D01*
X498130Y593558D01*
Y596322D01*
X497414Y598993D01*
X496032Y601387D01*
X494077Y603342D01*
X491683Y604724D01*
X489012Y605440D01*
X486248D01*
X484174Y604884D01*
X479640Y609419D01*
X479952Y610955D01*
X480389Y611346D01*
X480423Y611365D01*
X482405Y611763D01*
X483755Y610984D01*
X486308Y610300D01*
X486360D01*
Y620340D01*
Y630380D01*
X486308D01*
X483755Y629696D01*
X481465Y628374D01*
X480588Y627497D01*
X477588Y628740D01*
Y636690D01*
X480588Y637933D01*
X481183Y637338D01*
X483577Y635956D01*
X486248Y635240D01*
X489012D01*
X491683Y635956D01*
X494077Y637338D01*
X496032Y639293D01*
X497414Y641687D01*
X498130Y644358D01*
Y647122D01*
X497414Y649793D01*
X496032Y652187D01*
X494077Y654142D01*
X491683Y655524D01*
X489012Y656240D01*
X486248D01*
X483577Y655524D01*
X481183Y654142D01*
X480588Y653547D01*
X477588Y654790D01*
Y660640D01*
X498130D01*
Y681640D01*
X492218D01*
Y755730D01*
X497828Y761340D01*
X500600Y760192D01*
Y758000D01*
X552000D01*
Y784000D01*
X500600D01*
Y775509D01*
X499244Y775239D01*
X497756Y774244D01*
X484386Y760874D01*
X483391Y759386D01*
X483042Y757630D01*
Y681640D01*
X477588D01*
Y861099D01*
X496900Y880412D01*
X515277D01*
X515388Y880393D01*
X515621Y880328D01*
X515894Y880223D01*
X516207Y880070D01*
X516559Y879862D01*
X516909Y879620D01*
X517840Y878842D01*
X518330Y878365D01*
X518565Y878212D01*
X519259Y877518D01*
X521326Y876325D01*
X521409Y875978D01*
X521532Y873903D01*
X521391Y873182D01*
X519541Y872114D01*
X517886Y870459D01*
X516716Y868431D01*
X516137Y866270D01*
X525000D01*
X533863D01*
X533284Y868431D01*
X532114Y870459D01*
X530459Y872114D01*
X528609Y873182D01*
X528468Y873903D01*
X528591Y875978D01*
X528674Y876325D01*
X530741Y877518D01*
X532482Y879259D01*
X533713Y881391D01*
X534350Y883769D01*
Y886231D01*
X533713Y888609D01*
X532482Y890741D01*
X530741Y892482D01*
X528609Y893713D01*
X526231Y894350D01*
D02*
G37*
G36*
X533863Y863730D02*
X526270D01*
Y856137D01*
X528431Y856716D01*
X530459Y857886D01*
X532114Y859541D01*
X533284Y861569D01*
X533863Y863730D01*
D02*
G37*
G36*
X523730D02*
X516137D01*
X516716Y861569D01*
X517886Y859541D01*
X519541Y857886D01*
X521569Y856716D01*
X523730Y856137D01*
Y863730D01*
D02*
G37*
G36*
X326231Y894350D02*
X323769D01*
X321391Y893713D01*
X319259Y892482D01*
X317518Y890741D01*
X316287Y888609D01*
X315650Y886231D01*
Y883769D01*
X316287Y881391D01*
X317518Y879259D01*
X319259Y877518D01*
X320762Y876650D01*
X321079Y875170D01*
Y874830D01*
X320762Y873350D01*
X319259Y872482D01*
X317518Y870741D01*
X316287Y868609D01*
X315650Y866231D01*
Y863769D01*
X316287Y861391D01*
X317518Y859259D01*
X319259Y857518D01*
X321391Y856287D01*
X323769Y855650D01*
X326231D01*
X328609Y856287D01*
X330741Y857518D01*
X332482Y859259D01*
X333713Y861391D01*
X334350Y863769D01*
Y866231D01*
X333713Y868609D01*
X332482Y870741D01*
X330741Y872482D01*
X329238Y873350D01*
X328921Y874830D01*
Y875170D01*
X329238Y876650D01*
X330741Y877518D01*
X332482Y879259D01*
X333713Y881391D01*
X334350Y883769D01*
Y886231D01*
X333713Y888609D01*
X332482Y890741D01*
X330741Y892482D01*
X328609Y893713D01*
X326231Y894350D01*
D02*
G37*
G36*
X82796Y868640D02*
X79204D01*
X75735Y867710D01*
X72625Y865915D01*
X70085Y863375D01*
X68290Y860265D01*
X67360Y856796D01*
Y853204D01*
X68290Y849735D01*
X70085Y846625D01*
X72625Y844085D01*
X75735Y842290D01*
X79204Y841360D01*
X82796D01*
X86265Y842290D01*
X89375Y844085D01*
X91915Y846625D01*
X93710Y849735D01*
X94640Y853204D01*
Y856796D01*
X93710Y860265D01*
X91915Y863375D01*
X89375Y865915D01*
X86265Y867710D01*
X82796Y868640D01*
D02*
G37*
G36*
X82735Y828580D02*
X82270D01*
Y816670D01*
X94180D01*
Y817135D01*
X93282Y820487D01*
X91547Y823493D01*
X89093Y825947D01*
X86087Y827682D01*
X82735Y828580D01*
D02*
G37*
G36*
X79730D02*
X79265D01*
X75913Y827682D01*
X72907Y825947D01*
X70453Y823493D01*
X68718Y820487D01*
X67820Y817135D01*
Y816670D01*
X79730D01*
Y828580D01*
D02*
G37*
G36*
X94180Y814130D02*
X82270D01*
Y802220D01*
X82735D01*
X86087Y803118D01*
X89093Y804853D01*
X91547Y807307D01*
X93282Y810313D01*
X94180Y813665D01*
Y814130D01*
D02*
G37*
G36*
X79730D02*
X67820D01*
Y813665D01*
X68718Y810313D01*
X70453Y807307D01*
X72907Y804853D01*
X75913Y803118D01*
X79265Y802220D01*
X79730D01*
Y814130D01*
D02*
G37*
G36*
X94640Y789440D02*
X67360D01*
Y762160D01*
X94640D01*
Y789440D01*
D02*
G37*
G36*
X308448Y750000D02*
X305552D01*
X302754Y749250D01*
X300246Y747802D01*
X298198Y745754D01*
X296750Y743246D01*
X296000Y740448D01*
Y737552D01*
X296647Y735136D01*
X275756Y714244D01*
X274761Y712756D01*
X274412Y711000D01*
Y608900D01*
X237099Y571588D01*
X195435D01*
X195210Y571634D01*
X194864Y571746D01*
X194442Y571932D01*
X193950Y572201D01*
X193395Y572559D01*
X192815Y572987D01*
X191397Y574214D01*
X190640Y574959D01*
X190400Y575117D01*
X189511Y576006D01*
X186944Y577488D01*
X184082Y578255D01*
X181118D01*
X178256Y577488D01*
X175689Y576006D01*
X173594Y573911D01*
X172112Y571344D01*
X171345Y568482D01*
Y565518D01*
X172112Y562656D01*
X173594Y560089D01*
X175689Y557994D01*
X178256Y556512D01*
X181118Y555745D01*
X184082D01*
X186944Y556512D01*
X189511Y557994D01*
X190379Y558862D01*
X190597Y558999D01*
X192150Y560468D01*
X192785Y560991D01*
X193395Y561441D01*
X193950Y561799D01*
X194442Y562068D01*
X194864Y562254D01*
X195210Y562366D01*
X195435Y562412D01*
X239000D01*
X240756Y562761D01*
X242244Y563756D01*
X282244Y603756D01*
X283239Y605244D01*
X283588Y607000D01*
Y657681D01*
X286588Y658923D01*
X299476Y646036D01*
X300964Y645041D01*
X302720Y644692D01*
X368380D01*
Y638380D01*
X389620D01*
Y659620D01*
X368380D01*
Y653868D01*
X304620D01*
X292588Y665900D01*
Y694100D01*
X305410Y706922D01*
X318336D01*
X319394Y705089D01*
X321489Y702994D01*
X324056Y701512D01*
X326918Y700745D01*
X329882D01*
X332744Y701512D01*
X335311Y702994D01*
X337406Y705089D01*
X338888Y707656D01*
X339655Y710518D01*
Y713482D01*
X338888Y716344D01*
X337406Y718911D01*
X335311Y721006D01*
X332744Y722488D01*
X329882Y723255D01*
X326918D01*
X324056Y722488D01*
X321489Y721006D01*
X319394Y718911D01*
X317912Y716344D01*
X317846Y716098D01*
X303510D01*
X301754Y715749D01*
X300266Y714754D01*
X286588Y701077D01*
X283588Y702319D01*
Y709100D01*
X303136Y728647D01*
X305552Y728000D01*
X308448D01*
X311246Y728750D01*
X313754Y730198D01*
X315802Y732246D01*
X317250Y734754D01*
X318000Y737552D01*
Y740448D01*
X317250Y743246D01*
X315802Y745754D01*
X313754Y747802D01*
X311246Y749250D01*
X308448Y750000D01*
D02*
G37*
G36*
X551400Y752000D02*
X500000D01*
Y726000D01*
X551400D01*
Y752000D01*
D02*
G37*
G36*
X733863Y883730D02*
X725000D01*
X716137D01*
X716716Y881569D01*
X717886Y879541D01*
X719541Y877886D01*
X721391Y876818D01*
X721532Y876097D01*
X721409Y874022D01*
X721326Y873675D01*
X719259Y872482D01*
X717518Y870741D01*
X716287Y868609D01*
X715650Y866231D01*
Y863769D01*
X716287Y861391D01*
X717518Y859259D01*
X718212Y858565D01*
X718365Y858330D01*
X718871Y857811D01*
X719265Y857364D01*
X719594Y856946D01*
X719862Y856559D01*
X720070Y856207D01*
X720223Y855894D01*
X720328Y855621D01*
X720393Y855388D01*
X720412Y855277D01*
Y769901D01*
X702100Y751588D01*
X594000D01*
X592244Y751239D01*
X590756Y750244D01*
X575756Y735244D01*
X574761Y733756D01*
X574412Y732000D01*
Y679567D01*
X571412Y678407D01*
X570277Y679542D01*
X567883Y680924D01*
X565212Y681640D01*
X562448D01*
X559777Y680924D01*
X557383Y679542D01*
X555428Y677587D01*
X554046Y675193D01*
X553330Y672522D01*
Y669758D01*
X554046Y667087D01*
X555428Y664693D01*
X557383Y662738D01*
X559777Y661356D01*
X562448Y660640D01*
X565212D01*
X567883Y661356D01*
X570277Y662738D01*
X571412Y663873D01*
X574412Y662713D01*
Y654167D01*
X571412Y653007D01*
X570277Y654142D01*
X567883Y655524D01*
X565212Y656240D01*
X562448D01*
X559777Y655524D01*
X557383Y654142D01*
X555428Y652187D01*
X554046Y649793D01*
X553330Y647122D01*
Y644358D01*
X554046Y641687D01*
X555428Y639293D01*
X557383Y637338D01*
X559777Y635956D01*
X562448Y635240D01*
X565212D01*
X567883Y635956D01*
X570277Y637338D01*
X571412Y638473D01*
X574412Y637313D01*
Y628767D01*
X571412Y627607D01*
X570277Y628742D01*
X567883Y630124D01*
X565212Y630840D01*
X562448D01*
X559777Y630124D01*
X557383Y628742D01*
X555428Y626787D01*
X554046Y624393D01*
X553330Y621722D01*
Y618958D01*
X554046Y616287D01*
X555428Y613893D01*
X557383Y611938D01*
X559777Y610556D01*
X562448Y609840D01*
X565212D01*
X567883Y610556D01*
X569850Y611691D01*
X571692Y609291D01*
X567286Y604884D01*
X565212Y605440D01*
X562448D01*
X559777Y604724D01*
X557383Y603342D01*
X555428Y601387D01*
X554046Y598993D01*
X553330Y596322D01*
Y593558D01*
X554046Y590887D01*
X555428Y588493D01*
X557383Y586538D01*
X559777Y585156D01*
X562448Y584440D01*
X565212D01*
X567883Y585156D01*
X570277Y586538D01*
X571412Y587673D01*
X574412Y586513D01*
Y577967D01*
X571412Y576807D01*
X570277Y577942D01*
X567883Y579324D01*
X565212Y580040D01*
X562448D01*
X559777Y579324D01*
X557383Y577942D01*
X555428Y575987D01*
X554046Y573593D01*
X553330Y570922D01*
Y568158D01*
X554046Y565487D01*
X555428Y563093D01*
X557383Y561138D01*
X559777Y559756D01*
X562448Y559040D01*
X565212D01*
X567883Y559756D01*
X570277Y561138D01*
X571412Y562273D01*
X574412Y561113D01*
Y552567D01*
X571412Y551407D01*
X570277Y552542D01*
X567883Y553924D01*
X565212Y554640D01*
X562448D01*
X559777Y553924D01*
X557383Y552542D01*
X555428Y550587D01*
X554046Y548193D01*
X553330Y545522D01*
Y542758D01*
X554046Y540087D01*
X555428Y537693D01*
X557383Y535738D01*
X559777Y534356D01*
X562448Y533640D01*
X565212D01*
X567883Y534356D01*
X570277Y535738D01*
X571412Y536873D01*
X574412Y535713D01*
Y527167D01*
X571412Y526007D01*
X570277Y527142D01*
X567883Y528524D01*
X565212Y529240D01*
X562448D01*
X559777Y528524D01*
X557383Y527142D01*
X555428Y525187D01*
X554046Y522793D01*
X553330Y520122D01*
Y517358D01*
X554046Y514687D01*
X555428Y512293D01*
X557383Y510338D01*
X559777Y508956D01*
X562448Y508240D01*
X565212D01*
X567883Y508956D01*
X570277Y510338D01*
X571412Y511473D01*
X574412Y510313D01*
Y398310D01*
X571412Y397067D01*
X571357Y397122D01*
X568963Y398504D01*
X566292Y399220D01*
X563528D01*
X560857Y398504D01*
X558463Y397122D01*
X556508Y395167D01*
X555126Y392773D01*
X554410Y390102D01*
Y387338D01*
X555126Y384667D01*
X556508Y382273D01*
X558463Y380318D01*
X560857Y378936D01*
X563528Y378220D01*
X566292D01*
X568963Y378936D01*
X571357Y380318D01*
X571412Y380373D01*
X574412Y379130D01*
Y372910D01*
X571412Y371667D01*
X571357Y371722D01*
X568963Y373104D01*
X566292Y373820D01*
X563528D01*
X560857Y373104D01*
X558463Y371722D01*
X556508Y369767D01*
X555126Y367373D01*
X554410Y364702D01*
Y361938D01*
X555126Y359267D01*
X556508Y356873D01*
X558463Y354918D01*
X560857Y353536D01*
X563528Y352820D01*
X566292D01*
X568963Y353536D01*
X571357Y354918D01*
X571412Y354973D01*
X574412Y353730D01*
Y346860D01*
X571412Y345617D01*
X571075Y345954D01*
X568785Y347276D01*
X566232Y347960D01*
X566180D01*
Y337920D01*
Y327880D01*
X566232D01*
X568785Y328564D01*
X568967Y328669D01*
X572329Y327146D01*
X572448Y326547D01*
X569874Y323973D01*
X569723Y323870D01*
X569445Y323723D01*
X569081Y323575D01*
X568625Y323434D01*
X568078Y323308D01*
X567480Y323212D01*
X565869Y323087D01*
X564955Y323078D01*
X564677Y323020D01*
X563528D01*
X560857Y322304D01*
X558463Y320922D01*
X556508Y318967D01*
X555126Y316573D01*
X554410Y313902D01*
Y311138D01*
X555126Y308467D01*
X556508Y306073D01*
X558463Y304118D01*
X560857Y302736D01*
X563528Y302020D01*
X566292D01*
X568963Y302736D01*
X571357Y304118D01*
X573312Y306073D01*
X574412Y307978D01*
X576173Y307917D01*
X577412Y307456D01*
Y292184D01*
X576173Y291723D01*
X574412Y291662D01*
X573312Y293567D01*
X571357Y295522D01*
X568963Y296904D01*
X566292Y297620D01*
X563528D01*
X560857Y296904D01*
X558463Y295522D01*
X556508Y293567D01*
X555126Y291173D01*
X554410Y288502D01*
Y285738D01*
X555126Y283067D01*
X556508Y280673D01*
X558463Y278718D01*
X560857Y277336D01*
X563528Y276620D01*
X566292D01*
X568963Y277336D01*
X571357Y278718D01*
X573312Y280673D01*
X574412Y282578D01*
X576173Y282517D01*
X577412Y282056D01*
Y266784D01*
X576173Y266323D01*
X574412Y266262D01*
X573312Y268167D01*
X571357Y270122D01*
X568963Y271504D01*
X566292Y272220D01*
X563528D01*
X560857Y271504D01*
X558463Y270122D01*
X556508Y268167D01*
X555126Y265773D01*
X554410Y263102D01*
Y260338D01*
X555126Y257667D01*
X556508Y255273D01*
X558463Y253318D01*
X560857Y251936D01*
X563528Y251220D01*
X566292D01*
X568963Y251936D01*
X571357Y253318D01*
X573312Y255273D01*
X574412Y257178D01*
X576173Y257117D01*
X577412Y256656D01*
Y241384D01*
X576173Y240923D01*
X574412Y240862D01*
X573312Y242767D01*
X571357Y244722D01*
X568963Y246104D01*
X566292Y246820D01*
X563528D01*
X560857Y246104D01*
X558463Y244722D01*
X556508Y242767D01*
X555126Y240373D01*
X554410Y237702D01*
Y234938D01*
X555126Y232267D01*
X556508Y229873D01*
X558463Y227918D01*
X560857Y226536D01*
X563528Y225820D01*
X566292D01*
X568963Y226536D01*
X571357Y227918D01*
X573312Y229873D01*
X574412Y231778D01*
X576173Y231717D01*
X577412Y231256D01*
Y187901D01*
X563832Y174320D01*
X563640Y174193D01*
X563316Y174028D01*
X562886Y173861D01*
X562348Y173703D01*
X561703Y173564D01*
X560989Y173456D01*
X559120Y173322D01*
X558057Y173313D01*
X557776Y173255D01*
X556518D01*
X553656Y172488D01*
X551089Y171006D01*
X548994Y168911D01*
X547512Y166344D01*
X546745Y163482D01*
Y160518D01*
X547512Y157656D01*
X548994Y155089D01*
X551089Y152994D01*
X553656Y151512D01*
X556518Y150745D01*
X559482D01*
X562344Y151512D01*
X564911Y152994D01*
X567006Y155089D01*
X568488Y157656D01*
X569255Y160518D01*
Y161746D01*
X569312Y161997D01*
X569372Y164134D01*
X569451Y164953D01*
X569564Y165703D01*
X569703Y166348D01*
X569861Y166886D01*
X570028Y167316D01*
X570193Y167640D01*
X570320Y167832D01*
X583466Y180977D01*
X587515Y180996D01*
X598680Y169832D01*
X598807Y169640D01*
X598972Y169316D01*
X599139Y168887D01*
X599297Y168348D01*
X599436Y167703D01*
X599544Y166989D01*
X599678Y165120D01*
X599687Y164057D01*
X599745Y163776D01*
Y162518D01*
X600512Y159656D01*
X601994Y157089D01*
X604089Y154994D01*
X606656Y153512D01*
X609518Y152745D01*
X612482D01*
X615344Y153512D01*
X617911Y154994D01*
X620006Y157089D01*
X621488Y159656D01*
X622255Y162518D01*
Y165482D01*
X621488Y168344D01*
X620006Y170911D01*
X617911Y173006D01*
X615344Y174488D01*
X612482Y175255D01*
X611254D01*
X611003Y175312D01*
X608866Y175372D01*
X608047Y175451D01*
X607297Y175564D01*
X606652Y175703D01*
X606114Y175861D01*
X605684Y176028D01*
X605360Y176193D01*
X605168Y176320D01*
X592588Y188901D01*
Y250100D01*
X605168Y262680D01*
X605360Y262807D01*
X605684Y262972D01*
X606114Y263139D01*
X606652Y263297D01*
X607297Y263436D01*
X608010Y263544D01*
X609880Y263678D01*
X610943Y263687D01*
X611224Y263745D01*
X612482D01*
X615344Y264512D01*
X617911Y265994D01*
X620006Y268089D01*
X621488Y270656D01*
X622255Y273518D01*
Y276482D01*
X621488Y279344D01*
X620006Y281911D01*
X617911Y284006D01*
X615344Y285488D01*
X612482Y286255D01*
X609518D01*
X606656Y285488D01*
X604089Y284006D01*
X601994Y281911D01*
X600512Y279344D01*
X599745Y276482D01*
Y275254D01*
X599688Y275003D01*
X599628Y272866D01*
X599549Y272047D01*
X599436Y271297D01*
X599297Y270652D01*
X599139Y270114D01*
X598972Y269684D01*
X598807Y269360D01*
X598680Y269168D01*
X589360Y259848D01*
X586588Y260996D01*
Y319224D01*
X588244Y320880D01*
X589239Y322369D01*
X589588Y324125D01*
Y452356D01*
X590554Y452726D01*
X592588Y452870D01*
X593518Y451259D01*
X595259Y449518D01*
X597391Y448287D01*
X599769Y447650D01*
X602231D01*
X604609Y448287D01*
X606741Y449518D01*
X608482Y451259D01*
X609713Y453391D01*
X610350Y455769D01*
Y458231D01*
X609713Y460609D01*
X608482Y462741D01*
X606741Y464482D01*
X605588Y465148D01*
Y479077D01*
X605239Y480832D01*
X604589Y481805D01*
X604527Y483304D01*
X606656Y485512D01*
X609518Y484745D01*
X612482D01*
X615344Y485512D01*
X617911Y486994D01*
X620006Y489089D01*
X621488Y491656D01*
X622255Y494518D01*
Y497482D01*
X621488Y500344D01*
X620006Y502911D01*
X617911Y505006D01*
X615344Y506488D01*
X614588Y506691D01*
Y524100D01*
X623328Y532839D01*
X637010D01*
Y527928D01*
X656010D01*
Y546927D01*
X637010D01*
Y542016D01*
X621427D01*
X619672Y541666D01*
X618183Y540672D01*
X606756Y529244D01*
X605833Y527864D01*
X605607Y527817D01*
X602833Y528421D01*
Y546138D01*
X615244Y558549D01*
X616239Y560037D01*
X616588Y561793D01*
Y612362D01*
X618591Y613518D01*
X620332Y615259D01*
X621563Y617391D01*
X622200Y619769D01*
Y622231D01*
X621563Y624609D01*
X620332Y626741D01*
X618591Y628482D01*
X616459Y629713D01*
X614081Y630350D01*
X611619D01*
X609588Y629806D01*
X608720Y630093D01*
X606588Y631645D01*
Y669000D01*
X606239Y670756D01*
X605244Y672244D01*
X596588Y680900D01*
Y692977D01*
X599512Y693656D01*
X600994Y691089D01*
X603089Y688994D01*
X605656Y687512D01*
X608518Y686745D01*
X611482D01*
X614344Y687512D01*
X616911Y688994D01*
X619006Y691089D01*
X620488Y693656D01*
X621255Y696518D01*
Y699482D01*
X620488Y702344D01*
X619006Y704911D01*
X616911Y707006D01*
X614344Y708488D01*
X611482Y709255D01*
X608518D01*
X605656Y708488D01*
X603089Y707006D01*
X600994Y704911D01*
X599512Y702344D01*
X596588Y703024D01*
Y709100D01*
X613001Y725512D01*
X613391Y725287D01*
X615769Y724650D01*
X618231D01*
X620609Y725287D01*
X622741Y726518D01*
X624482Y728259D01*
X625713Y730391D01*
X626350Y732769D01*
Y735231D01*
X625713Y737609D01*
X624672Y739412D01*
X625055Y740715D01*
X626054Y742412D01*
X704000D01*
X705756Y742761D01*
X707244Y743756D01*
X728244Y764756D01*
X729239Y766244D01*
X729588Y768000D01*
Y855277D01*
X729607Y855388D01*
X729672Y855621D01*
X729777Y855894D01*
X729930Y856207D01*
X730138Y856559D01*
X730380Y856909D01*
X731158Y857840D01*
X731635Y858330D01*
X731788Y858565D01*
X732482Y859259D01*
X733713Y861391D01*
X734350Y863769D01*
Y866231D01*
X733713Y868609D01*
X732482Y870741D01*
X730741Y872482D01*
X728674Y873675D01*
X728591Y874022D01*
X728468Y876097D01*
X728609Y876818D01*
X730459Y877886D01*
X732114Y879541D01*
X733284Y881569D01*
X733863Y883730D01*
D02*
G37*
G36*
X713021Y708795D02*
X712870D01*
Y699270D01*
X722395D01*
Y699421D01*
X721659Y702167D01*
X720238Y704628D01*
X718228Y706638D01*
X715767Y708059D01*
X713021Y708795D01*
D02*
G37*
G36*
X710330D02*
X710179D01*
X707433Y708059D01*
X704972Y706638D01*
X702962Y704628D01*
X701541Y702167D01*
X700805Y699421D01*
Y699270D01*
X710330D01*
Y708795D01*
D02*
G37*
G36*
X722395Y696730D02*
X712870D01*
Y687205D01*
X713021D01*
X715767Y687941D01*
X718228Y689362D01*
X720238Y691372D01*
X721659Y693833D01*
X722395Y696579D01*
Y696730D01*
D02*
G37*
G36*
X710330D02*
X700805D01*
Y696579D01*
X701541Y693833D01*
X702962Y691372D01*
X704972Y689362D01*
X707433Y687941D01*
X710179Y687205D01*
X710330D01*
Y696730D01*
D02*
G37*
G36*
X328482Y695255D02*
X325518D01*
X322656Y694488D01*
X320089Y693006D01*
X317994Y690911D01*
X316512Y688344D01*
X315745Y685482D01*
Y682518D01*
X316512Y679656D01*
X317994Y677089D01*
X320089Y674994D01*
X322656Y673512D01*
X325518Y672745D01*
X328482D01*
X331344Y673512D01*
X333911Y674994D01*
X336006Y677089D01*
X337488Y679656D01*
X338255Y682518D01*
Y685482D01*
X337488Y688344D01*
X336006Y690911D01*
X333911Y693006D01*
X331344Y694488D01*
X328482Y695255D01*
D02*
G37*
G36*
X697380Y659459D02*
Y651710D01*
X705129D01*
X704534Y653929D01*
X703344Y655991D01*
X701661Y657674D01*
X699599Y658864D01*
X697380Y659459D01*
D02*
G37*
G36*
X694840Y659458D02*
X692621Y658864D01*
X690559Y657674D01*
X688876Y655991D01*
X687686Y653929D01*
X687091Y651710D01*
X694840D01*
Y659458D01*
D02*
G37*
G36*
Y649170D02*
X687091D01*
X687686Y646951D01*
X688876Y644889D01*
X690559Y643206D01*
X692621Y642016D01*
X694840Y641421D01*
Y649170D01*
D02*
G37*
G36*
X705129D02*
X697380D01*
Y641421D01*
X699599Y642016D01*
X701661Y643206D01*
X703344Y644889D01*
X704534Y646951D01*
X705129Y649170D01*
D02*
G37*
G36*
X672361Y659940D02*
X669859D01*
X667443Y659293D01*
X665277Y658042D01*
X663508Y656273D01*
X662258Y654107D01*
X661610Y651691D01*
Y649189D01*
X662258Y646773D01*
X663508Y644607D01*
X665277Y642838D01*
X667443Y641587D01*
X669859Y640940D01*
X672361D01*
X674777Y641587D01*
X676943Y642838D01*
X678712Y644607D01*
X679963Y646773D01*
X680610Y649189D01*
Y651691D01*
X679963Y654107D01*
X678712Y656273D01*
X676943Y658042D01*
X674777Y659293D01*
X672361Y659940D01*
D02*
G37*
G36*
X655610D02*
X636610D01*
Y640940D01*
X655610D01*
Y659940D01*
D02*
G37*
G36*
X415020Y659620D02*
X393780D01*
Y638380D01*
X415020D01*
Y659620D01*
D02*
G37*
G36*
X488952Y630380D02*
X488900D01*
Y621610D01*
X497670D01*
Y621662D01*
X496986Y624215D01*
X495664Y626505D01*
X493795Y628374D01*
X491505Y629696D01*
X488952Y630380D01*
D02*
G37*
G36*
X497670Y619070D02*
X488900D01*
Y610300D01*
X488952D01*
X491505Y610984D01*
X493795Y612306D01*
X495664Y614175D01*
X496986Y616465D01*
X497670Y619018D01*
Y619070D01*
D02*
G37*
G36*
X389160Y605160D02*
X380270D01*
Y596270D01*
X389160D01*
Y605160D01*
D02*
G37*
G36*
X377730D02*
X368840D01*
Y596270D01*
X377730D01*
Y605160D01*
D02*
G37*
G36*
X669560Y603160D02*
X660670D01*
Y594270D01*
X669560D01*
Y603160D01*
D02*
G37*
G36*
X658130D02*
X649240D01*
Y594270D01*
X658130D01*
Y603160D01*
D02*
G37*
G36*
X389160Y593730D02*
X380270D01*
Y584840D01*
X389160D01*
Y593730D01*
D02*
G37*
G36*
X377730D02*
X368840D01*
Y584840D01*
X377730D01*
Y593730D01*
D02*
G37*
G36*
X415020Y605620D02*
X393780D01*
Y584380D01*
X415020D01*
Y605620D01*
D02*
G37*
G36*
X669560Y591730D02*
X660670D01*
Y582840D01*
X669560D01*
Y591730D01*
D02*
G37*
G36*
X658130D02*
X649240D01*
Y582840D01*
X658130D01*
Y591730D01*
D02*
G37*
G36*
X644620Y603620D02*
X623380D01*
Y582380D01*
X644620D01*
Y603620D01*
D02*
G37*
G36*
X488952Y579580D02*
X488900D01*
Y570810D01*
X497670D01*
Y570862D01*
X496986Y573415D01*
X495664Y575705D01*
X493795Y577574D01*
X491505Y578896D01*
X488952Y579580D01*
D02*
G37*
G36*
X497670Y568270D02*
X488900D01*
Y559500D01*
X488952D01*
X491505Y560184D01*
X493795Y561506D01*
X495664Y563375D01*
X496986Y565665D01*
X497670Y568218D01*
Y568270D01*
D02*
G37*
G36*
X82482Y578255D02*
X79518D01*
X76656Y577488D01*
X74089Y576006D01*
X71994Y573911D01*
X70512Y571344D01*
X69745Y568482D01*
Y565518D01*
X70512Y562656D01*
X71994Y560089D01*
X74089Y557994D01*
X76656Y556512D01*
X79518Y555745D01*
X82482D01*
X85344Y556512D01*
X87911Y557994D01*
X90006Y560089D01*
X91488Y562656D01*
X92255Y565518D01*
Y568482D01*
X91488Y571344D01*
X90006Y573911D01*
X87911Y576006D01*
X85344Y577488D01*
X82482Y578255D01*
D02*
G37*
G36*
X327482Y575255D02*
X324518D01*
X321656Y574488D01*
X319089Y573006D01*
X316994Y570911D01*
X315512Y568344D01*
X314745Y565482D01*
Y562518D01*
X315512Y559656D01*
X316994Y557089D01*
X319089Y554994D01*
X321656Y553512D01*
X324518Y552745D01*
X327482D01*
X330344Y553512D01*
X332911Y554994D01*
X335006Y557089D01*
X336488Y559656D01*
X337255Y562518D01*
Y565482D01*
X336488Y568344D01*
X335006Y570911D01*
X332911Y573006D01*
X330344Y574488D01*
X327482Y575255D01*
D02*
G37*
G36*
X697780Y546446D02*
Y538697D01*
X705529D01*
X704934Y540917D01*
X703744Y542978D01*
X702061Y544661D01*
X699999Y545851D01*
X697780Y546446D01*
D02*
G37*
G36*
X695240Y546446D02*
X693021Y545851D01*
X690959Y544661D01*
X689276Y542978D01*
X688086Y540917D01*
X687491Y538697D01*
X695240D01*
Y546446D01*
D02*
G37*
G36*
X705529Y536157D02*
X697780D01*
Y528409D01*
X699999Y529003D01*
X702061Y530194D01*
X703744Y531877D01*
X704934Y533938D01*
X705529Y536157D01*
D02*
G37*
G36*
X695240D02*
X687491D01*
X688086Y533938D01*
X689276Y531877D01*
X690959Y530194D01*
X693021Y529003D01*
X695240Y528409D01*
Y536157D01*
D02*
G37*
G36*
X672761Y546927D02*
X670259D01*
X667843Y546280D01*
X665677Y545029D01*
X663908Y543261D01*
X662657Y541094D01*
X662010Y538678D01*
Y536177D01*
X662657Y533761D01*
X663908Y531594D01*
X665677Y529826D01*
X667843Y528575D01*
X670259Y527928D01*
X672761D01*
X675177Y528575D01*
X677343Y529826D01*
X679112Y531594D01*
X680363Y533761D01*
X681010Y536177D01*
Y538678D01*
X680363Y541094D01*
X679112Y543261D01*
X677343Y545029D01*
X675177Y546280D01*
X672761Y546927D01*
D02*
G37*
G36*
X327882Y548255D02*
X324918D01*
X322056Y547488D01*
X319489Y546006D01*
X317394Y543911D01*
X315912Y541344D01*
X315145Y538482D01*
Y535518D01*
X315912Y532656D01*
X317394Y530089D01*
X319489Y527994D01*
X322056Y526512D01*
X324918Y525745D01*
X327882D01*
X330744Y526512D01*
X333311Y527994D01*
X335406Y530089D01*
X336888Y532656D01*
X337655Y535518D01*
Y538482D01*
X336888Y541344D01*
X335406Y543911D01*
X333311Y546006D01*
X330744Y547488D01*
X327882Y548255D01*
D02*
G37*
G36*
X714021Y506795D02*
X713870D01*
Y497270D01*
X723395D01*
Y497421D01*
X722659Y500167D01*
X721238Y502628D01*
X719228Y504638D01*
X716767Y506059D01*
X714021Y506795D01*
D02*
G37*
G36*
X711330D02*
X711179D01*
X708433Y506059D01*
X705972Y504638D01*
X703962Y502628D01*
X702541Y500167D01*
X701805Y497421D01*
Y497270D01*
X711330D01*
Y506795D01*
D02*
G37*
G36*
X414620Y514620D02*
X393380D01*
Y493380D01*
X414620D01*
Y514620D01*
D02*
G37*
G36*
X723395Y494730D02*
X713870D01*
Y485205D01*
X714021D01*
X716767Y485941D01*
X719228Y487362D01*
X721238Y489372D01*
X722659Y491833D01*
X723395Y494579D01*
Y494730D01*
D02*
G37*
G36*
X711330D02*
X701805D01*
Y494579D01*
X702541Y491833D01*
X703962Y489372D01*
X705972Y487362D01*
X708433Y485941D01*
X711179Y485205D01*
X711330D01*
Y494730D01*
D02*
G37*
G36*
X932640Y509640D02*
X905360D01*
Y499188D01*
X830600D01*
X828844Y498839D01*
X827356Y497844D01*
X755499Y425988D01*
X616400D01*
X614644Y425639D01*
X613156Y424644D01*
X607511Y418999D01*
X606516Y417511D01*
X606167Y415755D01*
Y413625D01*
X605656Y413488D01*
X603089Y412006D01*
X600994Y409911D01*
X599512Y407344D01*
X598745Y404482D01*
Y401518D01*
X599512Y398656D01*
X600994Y396089D01*
X603089Y393994D01*
X605656Y392512D01*
X606543Y392274D01*
X607440Y388928D01*
X606756Y388244D01*
X605761Y386756D01*
X605412Y385000D01*
Y384533D01*
X605405Y384465D01*
X605378Y384328D01*
X603089Y383006D01*
X600994Y380911D01*
X599512Y378344D01*
X598745Y375482D01*
Y372518D01*
X599512Y369656D01*
X600994Y367089D01*
X603089Y364994D01*
X605656Y363512D01*
X608518Y362745D01*
X611482D01*
X614344Y363512D01*
X616911Y364994D01*
X619006Y367089D01*
X620488Y369656D01*
X621255Y372518D01*
Y375482D01*
X620488Y378344D01*
X619006Y380911D01*
X618505Y381412D01*
X619748Y384412D01*
X701852D01*
X703095Y381412D01*
X702594Y380911D01*
X701112Y378344D01*
X700345Y375482D01*
Y372518D01*
X701112Y369656D01*
X702594Y367089D01*
X704689Y364994D01*
X707256Y363512D01*
X710118Y362745D01*
X713082D01*
X715944Y363512D01*
X717767Y364564D01*
X719998Y363684D01*
X720767Y363007D01*
Y354993D01*
X719998Y354316D01*
X717767Y353436D01*
X715944Y354488D01*
X713082Y355255D01*
X710118D01*
X707256Y354488D01*
X704689Y353006D01*
X702594Y350911D01*
X701112Y348344D01*
X700345Y345482D01*
Y342518D01*
X701112Y339656D01*
X702594Y337089D01*
X704689Y334994D01*
X707256Y333512D01*
X710118Y332745D01*
X713082D01*
X715944Y333512D01*
X717767Y334564D01*
X719998Y333684D01*
X720767Y333007D01*
Y286745D01*
X717767Y285013D01*
X716944Y285488D01*
X714082Y286255D01*
X711118D01*
X708256Y285488D01*
X705689Y284006D01*
X703594Y281911D01*
X702112Y279344D01*
X701345Y276482D01*
Y273518D01*
X702112Y270656D01*
X703594Y268089D01*
X705689Y265994D01*
X708256Y264512D01*
X711118Y263745D01*
X714082D01*
X715492Y264123D01*
X718435Y262564D01*
X718783Y262110D01*
X718951Y260839D01*
X718432Y260320D01*
X718240Y260193D01*
X717916Y260028D01*
X717486Y259861D01*
X716948Y259703D01*
X716303Y259564D01*
X715590Y259456D01*
X713720Y259322D01*
X712657Y259313D01*
X712376Y259255D01*
X711118D01*
X708256Y258488D01*
X705689Y257006D01*
X703594Y254911D01*
X702112Y252344D01*
X701345Y249482D01*
Y246518D01*
X702112Y243656D01*
X703594Y241089D01*
X705689Y238994D01*
X708256Y237512D01*
X711118Y236745D01*
X714082D01*
X716944Y237512D01*
X719511Y238994D01*
X721606Y241089D01*
X723088Y243656D01*
X723855Y246518D01*
Y247746D01*
X723912Y247997D01*
X723972Y250134D01*
X724051Y250953D01*
X724164Y251703D01*
X724303Y252348D01*
X724461Y252886D01*
X724628Y253316D01*
X724793Y253640D01*
X724920Y253832D01*
X728599Y257511D01*
X729594Y258999D01*
X729943Y260755D01*
Y369645D01*
X729594Y371401D01*
X728599Y372889D01*
X726244Y375244D01*
X724756Y376239D01*
X723000Y376588D01*
X722693D01*
X722657Y376594D01*
X722645Y376598D01*
X722607Y376682D01*
X722504Y377006D01*
X722392Y377210D01*
X722088Y378344D01*
X720606Y380911D01*
X718511Y383006D01*
X715944Y384488D01*
X713082Y385255D01*
X712229D01*
X710986Y388255D01*
X712327Y389595D01*
X713321Y391084D01*
X713474Y391850D01*
X715944Y392512D01*
X718511Y393994D01*
X720606Y396089D01*
X722088Y398656D01*
X722855Y401518D01*
Y404482D01*
X722088Y407344D01*
X720606Y409911D01*
X718511Y412006D01*
X715944Y413488D01*
X714736Y413812D01*
X715131Y416812D01*
X757400D01*
X759156Y417161D01*
X760644Y418156D01*
X832501Y490012D01*
X905360D01*
Y482360D01*
X932640D01*
Y509640D01*
D02*
G37*
G36*
X82796D02*
X79204D01*
X75735Y508710D01*
X72625Y506915D01*
X70085Y504375D01*
X68290Y501265D01*
X67360Y497796D01*
Y494204D01*
X68290Y490735D01*
X70085Y487625D01*
X72625Y485085D01*
X75735Y483290D01*
X79204Y482360D01*
X82796D01*
X86265Y483290D01*
X89375Y485085D01*
X91915Y487625D01*
X93710Y490735D01*
X94640Y494204D01*
Y497796D01*
X93710Y501265D01*
X91915Y504375D01*
X89375Y506915D01*
X86265Y508710D01*
X82796Y509640D01*
D02*
G37*
G36*
X920735Y469580D02*
X920270D01*
Y457670D01*
X932180D01*
Y458135D01*
X931282Y461487D01*
X929547Y464493D01*
X927093Y466947D01*
X924087Y468682D01*
X920735Y469580D01*
D02*
G37*
G36*
X917730D02*
X917265D01*
X913913Y468682D01*
X910907Y466947D01*
X908453Y464493D01*
X906718Y461487D01*
X905820Y458135D01*
Y457670D01*
X917730D01*
Y469580D01*
D02*
G37*
G36*
X82735D02*
X82270D01*
Y457670D01*
X94180D01*
Y458135D01*
X93282Y461487D01*
X91547Y464493D01*
X89093Y466947D01*
X86087Y468682D01*
X82735Y469580D01*
D02*
G37*
G36*
X79730D02*
X79265D01*
X75913Y468682D01*
X72907Y466947D01*
X70453Y464493D01*
X68718Y461487D01*
X67820Y458135D01*
Y457670D01*
X79730D01*
Y469580D01*
D02*
G37*
G36*
X932180Y455130D02*
X920270D01*
Y443220D01*
X920735D01*
X924087Y444118D01*
X927093Y445853D01*
X929547Y448307D01*
X931282Y451313D01*
X932180Y454665D01*
Y455130D01*
D02*
G37*
G36*
X917730D02*
X905820D01*
Y454665D01*
X906718Y451313D01*
X908453Y448307D01*
X910907Y445853D01*
X913913Y444118D01*
X917265Y443220D01*
X917730D01*
Y455130D01*
D02*
G37*
G36*
X94180Y455130D02*
X82270D01*
Y443220D01*
X82735D01*
X86087Y444118D01*
X89093Y445853D01*
X91547Y448307D01*
X93282Y451313D01*
X94180Y454665D01*
Y455130D01*
D02*
G37*
G36*
X79730D02*
X67820D01*
Y454665D01*
X68718Y451313D01*
X70453Y448307D01*
X72907Y445853D01*
X75913Y444118D01*
X79265Y443220D01*
X79730D01*
Y455130D01*
D02*
G37*
G36*
X553400Y472000D02*
X502000D01*
Y447000D01*
X502000Y444000D01*
X502000Y443000D01*
Y418000D01*
X553400D01*
Y443000D01*
X553400Y446000D01*
X553400Y447000D01*
Y472000D01*
D02*
G37*
G36*
X327482Y426255D02*
X324518D01*
X321656Y425488D01*
X319089Y424006D01*
X316994Y421911D01*
X315512Y419344D01*
X314745Y416482D01*
Y413518D01*
X315512Y410656D01*
X316994Y408089D01*
X319089Y405994D01*
X321656Y404512D01*
X324518Y403745D01*
X327482D01*
X330344Y404512D01*
X332911Y405994D01*
X335006Y408089D01*
X336488Y410656D01*
X337255Y413518D01*
Y416482D01*
X336488Y419344D01*
X335006Y421911D01*
X332911Y424006D01*
X330344Y425488D01*
X327482Y426255D01*
D02*
G37*
G36*
X920796Y430440D02*
X917204D01*
X913735Y429510D01*
X910625Y427715D01*
X908085Y425175D01*
X906290Y422065D01*
X905733Y419988D01*
X770400D01*
X768644Y419639D01*
X767156Y418644D01*
X749756Y401244D01*
X748761Y399756D01*
X748412Y398000D01*
Y216862D01*
X727080Y195530D01*
X723734Y196427D01*
X723488Y197344D01*
X722006Y199911D01*
X719911Y202006D01*
X717344Y203488D01*
X715371Y204017D01*
X715220Y204775D01*
X714225Y206264D01*
X713284Y207205D01*
X714421Y210205D01*
X717167Y210941D01*
X719628Y212362D01*
X721638Y214372D01*
X723059Y216833D01*
X723795Y219579D01*
Y219730D01*
X713000D01*
X702205D01*
Y219579D01*
X702941Y216833D01*
X704237Y214588D01*
X703990Y213662D01*
X702903Y211588D01*
X622148D01*
X621284Y212829D01*
X620694Y214588D01*
X621888Y216656D01*
X622655Y219518D01*
Y222482D01*
X621888Y225344D01*
X620406Y227911D01*
X618311Y230006D01*
X615744Y231488D01*
X612882Y232255D01*
X609918D01*
X607056Y231488D01*
X604489Y230006D01*
X602394Y227911D01*
X600912Y225344D01*
X600145Y222482D01*
Y219518D01*
X600912Y216656D01*
X602394Y214089D01*
X604489Y211994D01*
X607056Y210512D01*
X607409Y210417D01*
Y210002D01*
X607759Y208247D01*
X608589Y207005D01*
X608591Y206308D01*
X607627Y203641D01*
X607056Y203488D01*
X604489Y202006D01*
X602394Y199911D01*
X600912Y197344D01*
X600145Y194482D01*
Y191518D01*
X600912Y188656D01*
X602394Y186089D01*
X604489Y183994D01*
X607056Y182512D01*
X609918Y181745D01*
X611146D01*
X611397Y181688D01*
X613534Y181628D01*
X614353Y181549D01*
X615103Y181436D01*
X615748Y181297D01*
X616286Y181139D01*
X616716Y180972D01*
X617040Y180807D01*
X617232Y180680D01*
X623156Y174756D01*
X624644Y173761D01*
X626400Y173412D01*
X702503D01*
X703590Y171338D01*
X703837Y170412D01*
X702541Y168167D01*
X701805Y165421D01*
Y165270D01*
X723395D01*
Y165421D01*
X722659Y168167D01*
X721238Y170628D01*
X720144Y171723D01*
X719566Y173759D01*
X720116Y175590D01*
X756244Y211717D01*
X757239Y213206D01*
X757588Y214962D01*
Y396100D01*
X772300Y410812D01*
X906707D01*
X908085Y408425D01*
X910625Y405885D01*
X913735Y404090D01*
X917204Y403160D01*
X920796D01*
X924265Y404090D01*
X927375Y405885D01*
X929915Y408425D01*
X931710Y411535D01*
X932640Y415004D01*
Y418596D01*
X931710Y422065D01*
X929915Y425175D01*
X927375Y427715D01*
X924265Y429510D01*
X920796Y430440D01*
D02*
G37*
G36*
X94640D02*
X67360D01*
Y403160D01*
X94640D01*
Y430440D01*
D02*
G37*
G36*
X429482Y399255D02*
X426518D01*
X423656Y398488D01*
X421089Y397006D01*
X418994Y394911D01*
X417512Y392344D01*
X416745Y389482D01*
Y386518D01*
X417512Y383656D01*
X418994Y381089D01*
X421089Y378994D01*
X423656Y377512D01*
X426518Y376745D01*
X429482D01*
X432344Y377512D01*
X434911Y378994D01*
X437006Y381089D01*
X438488Y383656D01*
X439255Y386518D01*
Y389482D01*
X438488Y392344D01*
X437006Y394911D01*
X434911Y397006D01*
X432344Y398488D01*
X429482Y399255D01*
D02*
G37*
G36*
X327882D02*
X324918D01*
X322056Y398488D01*
X319489Y397006D01*
X317394Y394911D01*
X316053Y392588D01*
X274000D01*
X272244Y392239D01*
X270756Y391244D01*
X247099Y367588D01*
X195435D01*
X195210Y367634D01*
X194864Y367747D01*
X194442Y367932D01*
X193950Y368201D01*
X193395Y368559D01*
X192815Y368987D01*
X191397Y370214D01*
X190640Y370959D01*
X190400Y371117D01*
X189511Y372006D01*
X186944Y373488D01*
X184082Y374255D01*
X181118D01*
X178256Y373488D01*
X175689Y372006D01*
X173594Y369911D01*
X172112Y367344D01*
X171345Y364482D01*
Y361518D01*
X172112Y358656D01*
X173594Y356089D01*
X175689Y353994D01*
X178256Y352512D01*
X181118Y351745D01*
X184082D01*
X186944Y352512D01*
X189511Y353994D01*
X190379Y354862D01*
X190597Y354999D01*
X192150Y356468D01*
X192785Y356991D01*
X193395Y357441D01*
X193950Y357799D01*
X194442Y358068D01*
X194864Y358254D01*
X195210Y358366D01*
X195435Y358412D01*
X249000D01*
X250756Y358761D01*
X252244Y359756D01*
X275900Y383412D01*
X316053D01*
X317394Y381089D01*
X319489Y378994D01*
X322056Y377512D01*
X324918Y376745D01*
X327882D01*
X330744Y377512D01*
X333311Y378994D01*
X335406Y381089D01*
X336888Y383656D01*
X337655Y386518D01*
Y389482D01*
X336888Y392344D01*
X335406Y394911D01*
X333311Y397006D01*
X330744Y398488D01*
X327882Y399255D01*
D02*
G37*
G36*
X82482Y374255D02*
X79518D01*
X76656Y373488D01*
X74089Y372006D01*
X71994Y369911D01*
X70512Y367344D01*
X69745Y364482D01*
Y361518D01*
X70512Y358656D01*
X71994Y356089D01*
X74089Y353994D01*
X76656Y352512D01*
X79518Y351745D01*
X82482D01*
X85344Y352512D01*
X87911Y353994D01*
X90006Y356089D01*
X91488Y358656D01*
X92255Y361518D01*
Y364482D01*
X91488Y367344D01*
X90006Y369911D01*
X87911Y372006D01*
X85344Y373488D01*
X82482Y374255D01*
D02*
G37*
G36*
X414620Y367620D02*
X393380D01*
Y346380D01*
X414620D01*
Y367620D01*
D02*
G37*
G36*
X389220D02*
X367980D01*
Y346380D01*
X389220D01*
Y367620D01*
D02*
G37*
G36*
X563640Y347960D02*
X563588D01*
X561035Y347276D01*
X558745Y345954D01*
X556876Y344085D01*
X555554Y341795D01*
X554870Y339242D01*
Y339190D01*
X563640D01*
Y347960D01*
D02*
G37*
G36*
X490032D02*
X489980D01*
Y339190D01*
X498750D01*
Y339242D01*
X498066Y341795D01*
X496744Y344085D01*
X494875Y345954D01*
X492585Y347276D01*
X490032Y347960D01*
D02*
G37*
G36*
X611482Y355255D02*
X608518D01*
X605656Y354488D01*
X603089Y353006D01*
X600994Y350911D01*
X599512Y348344D01*
X598745Y345482D01*
Y342518D01*
X599512Y339656D01*
X600994Y337089D01*
X603089Y334994D01*
X605656Y333512D01*
X608518Y332745D01*
X611482D01*
X614344Y333512D01*
X616911Y334994D01*
X619006Y337089D01*
X620488Y339656D01*
X621255Y342518D01*
Y345482D01*
X620488Y348344D01*
X619006Y350911D01*
X616911Y353006D01*
X614344Y354488D01*
X611482Y355255D01*
D02*
G37*
G36*
X563640Y336650D02*
X554870D01*
Y336598D01*
X555554Y334045D01*
X556876Y331755D01*
X558745Y329886D01*
X561035Y328564D01*
X563588Y327880D01*
X563640D01*
Y336650D01*
D02*
G37*
G36*
X498750D02*
X489980D01*
Y327880D01*
X490032D01*
X492585Y328564D01*
X494875Y329886D01*
X496744Y331755D01*
X498066Y334045D01*
X498750Y336598D01*
Y336650D01*
D02*
G37*
G36*
X389760Y322160D02*
X380870D01*
Y313270D01*
X389760D01*
Y322160D01*
D02*
G37*
G36*
X378330D02*
X369440D01*
Y313270D01*
X378330D01*
Y322160D01*
D02*
G37*
G36*
X670560Y319160D02*
X661670D01*
Y310270D01*
X670560D01*
Y319160D01*
D02*
G37*
G36*
X659130D02*
X650240D01*
Y310270D01*
X659130D01*
Y319160D01*
D02*
G37*
G36*
X389760Y310730D02*
X380870D01*
Y301840D01*
X389760D01*
Y310730D01*
D02*
G37*
G36*
X378330D02*
X369440D01*
Y301840D01*
X378330D01*
Y310730D01*
D02*
G37*
G36*
X415620Y322620D02*
X394380D01*
Y301380D01*
X415620D01*
Y322620D01*
D02*
G37*
G36*
X670560Y307730D02*
X661670D01*
Y298840D01*
X670560D01*
Y307730D01*
D02*
G37*
G36*
X659130D02*
X650240D01*
Y298840D01*
X659130D01*
Y307730D01*
D02*
G37*
G36*
X645620Y319620D02*
X624380D01*
Y298380D01*
X645620D01*
Y319620D01*
D02*
G37*
G36*
X490092Y297620D02*
X487328D01*
X484657Y296904D01*
X482263Y295522D01*
X480308Y293567D01*
X478926Y291173D01*
X478210Y288502D01*
Y285738D01*
X478926Y283067D01*
X480308Y280673D01*
X482263Y278718D01*
X484657Y277336D01*
X487328Y276620D01*
X490092D01*
X492763Y277336D01*
X495157Y278718D01*
X497112Y280673D01*
X498494Y283067D01*
X499210Y285738D01*
Y288502D01*
X498494Y291173D01*
X497112Y293567D01*
X495157Y295522D01*
X492763Y296904D01*
X490092Y297620D01*
D02*
G37*
G36*
X390760Y277160D02*
X381870D01*
Y268270D01*
X390760D01*
Y277160D01*
D02*
G37*
G36*
X379330D02*
X370440D01*
Y268270D01*
X379330D01*
Y277160D01*
D02*
G37*
G36*
X390760Y265730D02*
X381870D01*
Y256840D01*
X390760D01*
Y265730D01*
D02*
G37*
G36*
X379330D02*
X370440D01*
Y256840D01*
X379330D01*
Y265730D01*
D02*
G37*
G36*
X612482Y259255D02*
X609518D01*
X606656Y258488D01*
X604089Y257006D01*
X601994Y254911D01*
X600512Y252344D01*
X599745Y249482D01*
Y246518D01*
X600512Y243656D01*
X601994Y241089D01*
X604089Y238994D01*
X606656Y237512D01*
X609518Y236745D01*
X612482D01*
X615344Y237512D01*
X617911Y238994D01*
X620006Y241089D01*
X621488Y243656D01*
X622255Y246518D01*
Y249482D01*
X621488Y252344D01*
X620006Y254911D01*
X617911Y257006D01*
X615344Y258488D01*
X612482Y259255D01*
D02*
G37*
G36*
X714421Y231795D02*
X714270D01*
Y222270D01*
X723795D01*
Y222421D01*
X723059Y225167D01*
X721638Y227628D01*
X719628Y229638D01*
X717167Y231059D01*
X714421Y231795D01*
D02*
G37*
G36*
X711730D02*
X711579D01*
X708833Y231059D01*
X706372Y229638D01*
X704362Y227628D01*
X702941Y225167D01*
X702205Y222421D01*
Y222270D01*
X711730D01*
Y231795D01*
D02*
G37*
G36*
X416620Y234620D02*
X395380D01*
Y213380D01*
X416620D01*
Y234620D01*
D02*
G37*
G36*
X391220D02*
X369980D01*
Y213380D01*
X391220D01*
Y234620D01*
D02*
G37*
G36*
X329882Y200255D02*
X326918D01*
X324056Y199488D01*
X321489Y198006D01*
X319394Y195911D01*
X317912Y193344D01*
X317145Y190482D01*
Y187518D01*
X317912Y184656D01*
X319394Y182089D01*
X321489Y179994D01*
X324056Y178512D01*
X326918Y177745D01*
X329882D01*
X332744Y178512D01*
X335311Y179994D01*
X337406Y182089D01*
X338888Y184656D01*
X339655Y187518D01*
Y190482D01*
X338888Y193344D01*
X337406Y195911D01*
X335311Y198006D01*
X332744Y199488D01*
X329882Y200255D01*
D02*
G37*
G36*
X429330Y171795D02*
X429179D01*
X426433Y171059D01*
X423972Y169638D01*
X421962Y167628D01*
X420541Y165167D01*
X419805Y162421D01*
Y162270D01*
X429330D01*
Y171795D01*
D02*
G37*
G36*
X723395Y162730D02*
X713870D01*
Y153205D01*
X714021D01*
X716767Y153941D01*
X719228Y155362D01*
X721238Y157372D01*
X722659Y159833D01*
X723395Y162579D01*
Y162730D01*
D02*
G37*
G36*
X711330D02*
X701805D01*
Y162579D01*
X702541Y159833D01*
X703962Y157372D01*
X705972Y155362D01*
X708433Y153941D01*
X711179Y153205D01*
X711330D01*
Y162730D01*
D02*
G37*
G36*
X429330Y159730D02*
X419805D01*
Y159579D01*
X420541Y156833D01*
X421962Y154372D01*
X423972Y152362D01*
X426433Y150941D01*
X429179Y150205D01*
X429330D01*
Y159730D01*
D02*
G37*
G36*
X330482Y172255D02*
X327518D01*
X324656Y171488D01*
X322089Y170006D01*
X319994Y167911D01*
X318512Y165344D01*
X317745Y162482D01*
Y159518D01*
X318512Y156656D01*
X319994Y154089D01*
X322089Y151994D01*
X324656Y150512D01*
X327518Y149745D01*
X330482D01*
X333344Y150512D01*
X335911Y151994D01*
X338006Y154089D01*
X339488Y156656D01*
X340255Y159518D01*
Y162482D01*
X339488Y165344D01*
X338006Y167911D01*
X335911Y170006D01*
X333344Y171488D01*
X330482Y172255D01*
D02*
G37*
G36*
X561021Y142795D02*
X560870D01*
Y133270D01*
X570395D01*
Y133421D01*
X569659Y136167D01*
X568238Y138628D01*
X566228Y140638D01*
X563767Y142059D01*
X561021Y142795D01*
D02*
G37*
G36*
X558330D02*
X558179D01*
X555433Y142059D01*
X552972Y140638D01*
X550962Y138628D01*
X549541Y136167D01*
X548805Y133421D01*
Y133270D01*
X558330D01*
Y142795D01*
D02*
G37*
G36*
X330482Y145255D02*
X327518D01*
X324656Y144488D01*
X322089Y143006D01*
X319994Y140911D01*
X318512Y138344D01*
X317745Y135482D01*
Y132518D01*
X318512Y129656D01*
X319994Y127089D01*
X322089Y124994D01*
X324656Y123512D01*
X327518Y122745D01*
X330482D01*
X333344Y123512D01*
X335911Y124994D01*
X338006Y127089D01*
X339488Y129656D01*
X340255Y132518D01*
Y135482D01*
X339488Y138344D01*
X338006Y140911D01*
X335911Y143006D01*
X333344Y144488D01*
X330482Y145255D01*
D02*
G37*
G36*
X570395Y130730D02*
X560870D01*
Y121205D01*
X561021D01*
X563767Y121941D01*
X566228Y123362D01*
X568238Y125372D01*
X569659Y127833D01*
X570395Y130579D01*
Y130730D01*
D02*
G37*
G36*
X558330D02*
X548805D01*
Y130579D01*
X549541Y127833D01*
X550962Y125372D01*
X552972Y123362D01*
X555433Y121941D01*
X558179Y121205D01*
X558330D01*
Y130730D01*
D02*
G37*
G36*
X459482Y143255D02*
X456518D01*
X453656Y142488D01*
X451089Y141006D01*
X448994Y138911D01*
X447512Y136344D01*
X446745Y133482D01*
Y130518D01*
X447512Y127656D01*
X448994Y125089D01*
X451089Y122994D01*
X453656Y121512D01*
X456518Y120745D01*
X459482D01*
X462344Y121512D01*
X464911Y122994D01*
X467006Y125089D01*
X468488Y127656D01*
X469255Y130518D01*
Y133482D01*
X468488Y136344D01*
X467006Y138911D01*
X464911Y141006D01*
X462344Y142488D01*
X459482Y143255D01*
D02*
G37*
G36*
X952561Y82540D02*
X951270D01*
Y51270D01*
X982540D01*
Y52561D01*
X981739Y57620D01*
X980156Y62491D01*
X977831Y67055D01*
X974820Y71198D01*
X971198Y74820D01*
X967055Y77831D01*
X962491Y80156D01*
X957620Y81739D01*
X952561Y82540D01*
D02*
G37*
G36*
X948730D02*
X947439D01*
X942380Y81739D01*
X937509Y80156D01*
X932945Y77831D01*
X928802Y74820D01*
X925180Y71198D01*
X922169Y67055D01*
X919844Y62491D01*
X918261Y57620D01*
X917460Y52561D01*
Y51270D01*
X948730D01*
Y82540D01*
D02*
G37*
G36*
X52561D02*
X51270D01*
Y51270D01*
X82540D01*
Y52561D01*
X81739Y57620D01*
X80156Y62491D01*
X77831Y67055D01*
X74820Y71198D01*
X71198Y74820D01*
X67055Y77831D01*
X62491Y80156D01*
X57620Y81739D01*
X52561Y82540D01*
D02*
G37*
G36*
X48730D02*
X47439D01*
X42380Y81739D01*
X37509Y80156D01*
X32945Y77831D01*
X28802Y74820D01*
X25180Y71198D01*
X22169Y67055D01*
X19844Y62491D01*
X18261Y57620D01*
X17460Y52561D01*
Y51270D01*
X48730D01*
Y82540D01*
D02*
G37*
G36*
X982540Y48730D02*
X951270D01*
Y17460D01*
X952561D01*
X957620Y18261D01*
X962491Y19844D01*
X967055Y22169D01*
X971198Y25180D01*
X974820Y28802D01*
X977831Y32945D01*
X980156Y37509D01*
X981739Y42380D01*
X982540Y47439D01*
Y48730D01*
D02*
G37*
G36*
X948730D02*
X917460D01*
Y47439D01*
X918261Y42380D01*
X919844Y37509D01*
X922169Y32945D01*
X925180Y28802D01*
X928802Y25180D01*
X932945Y22169D01*
X937509Y19844D01*
X942380Y18261D01*
X947439Y17460D01*
X948730D01*
Y48730D01*
D02*
G37*
G36*
X82540D02*
X51270D01*
Y17460D01*
X52561D01*
X57620Y18261D01*
X62491Y19844D01*
X67055Y22169D01*
X71198Y25180D01*
X74820Y28802D01*
X77831Y32945D01*
X80156Y37509D01*
X81739Y42380D01*
X82540Y47439D01*
Y48730D01*
D02*
G37*
G36*
X48730D02*
X17460D01*
Y47439D01*
X18261Y42380D01*
X19844Y37509D01*
X22169Y32945D01*
X25180Y28802D01*
X28802Y25180D01*
X32945Y22169D01*
X37509Y19844D01*
X42380Y18261D01*
X47439Y17460D01*
X48730D01*
Y48730D01*
D02*
G37*
%LPD*%
G36*
X520465Y880555D02*
X519891Y881115D01*
X518763Y882057D01*
X518208Y882440D01*
X517660Y882764D01*
X517119Y883029D01*
X516585Y883235D01*
X516056Y883382D01*
X515535Y883471D01*
X515020Y883500D01*
Y886500D01*
X515535Y886529D01*
X516056Y886618D01*
X516585Y886765D01*
X517119Y886971D01*
X517660Y887236D01*
X518208Y887560D01*
X518763Y887943D01*
X519324Y888385D01*
X519891Y888885D01*
X520465Y889445D01*
Y880555D01*
D02*
G37*
G36*
X503630Y768370D02*
X503604Y768584D01*
X503525Y768776D01*
X503394Y768946D01*
X503210Y769093D01*
X502973Y769217D01*
X502683Y769319D01*
X502341Y769398D01*
X501947Y769455D01*
X501500Y769489D01*
X501000Y769500D01*
Y772500D01*
X501500Y772511D01*
X501947Y772545D01*
X502341Y772602D01*
X502683Y772681D01*
X502973Y772783D01*
X503210Y772907D01*
X503394Y773054D01*
X503525Y773223D01*
X503604Y773416D01*
X503630Y773631D01*
Y768370D01*
D02*
G37*
G36*
X489145Y681040D02*
X489190Y680529D01*
X489265Y680079D01*
X489370Y679689D01*
X489505Y679360D01*
X489670Y679090D01*
X489865Y678879D01*
X490090Y678729D01*
X490345Y678640D01*
X490630Y678609D01*
X484630D01*
X484915Y678640D01*
X485170Y678729D01*
X485395Y678879D01*
X485590Y679090D01*
X485755Y679360D01*
X485890Y679689D01*
X485995Y680079D01*
X486070Y680529D01*
X486115Y681040D01*
X486130Y681609D01*
X489130D01*
X489145Y681040D01*
D02*
G37*
G36*
X474521Y612600D02*
X474585Y612026D01*
X474691Y611470D01*
X474839Y610932D01*
X475030Y610411D01*
X475264Y609908D01*
X475539Y609422D01*
X475858Y608954D01*
X476218Y608503D01*
X476621Y608070D01*
Y603827D01*
X476218Y604200D01*
X475858Y604471D01*
X475539Y604639D01*
X475264Y604705D01*
X475030Y604668D01*
X474839Y604529D01*
X474691Y604288D01*
X474585Y603944D01*
X474521Y603498D01*
X474500Y602949D01*
X471500Y609570D01*
X474500Y613191D01*
X474521Y612600D01*
D02*
G37*
G36*
X450819Y746400D02*
X453730Y745624D01*
X454518Y744259D01*
X456259Y742518D01*
X457412Y741852D01*
Y575939D01*
X441218Y559744D01*
X438528Y561297D01*
X438855Y562518D01*
Y565482D01*
X438161Y568072D01*
X449244Y579156D01*
X450239Y580644D01*
X450588Y582400D01*
Y666388D01*
X450239Y668143D01*
X449244Y669632D01*
X448588Y670288D01*
Y745102D01*
X450357Y746402D01*
X450819Y746400D01*
D02*
G37*
G36*
X381715Y496381D02*
X381460Y496291D01*
X381235Y496141D01*
X381040Y495930D01*
X380875Y495661D01*
X380740Y495331D01*
X380635Y494940D01*
X380560Y494491D01*
X380515Y493980D01*
X380500Y493410D01*
X377500D01*
X377485Y493980D01*
X377440Y494491D01*
X377365Y494940D01*
X377260Y495331D01*
X377125Y495661D01*
X376960Y495930D01*
X376765Y496141D01*
X376540Y496291D01*
X376285Y496381D01*
X376000Y496410D01*
X382000D01*
X381715Y496381D01*
D02*
G37*
G36*
X481824Y321581D02*
X482320Y321244D01*
X482881Y320948D01*
X483507Y320692D01*
X484199Y320478D01*
X484956Y320305D01*
X485778Y320172D01*
X486665Y320080D01*
X488635Y320020D01*
X481210Y312595D01*
X481200Y313613D01*
X481058Y315452D01*
X480925Y316274D01*
X480752Y317031D01*
X480537Y317723D01*
X480282Y318349D01*
X479986Y318910D01*
X479649Y319407D01*
X479271Y319837D01*
X481393Y321959D01*
X481824Y321581D01*
D02*
G37*
G36*
X413619Y263595D02*
X413709Y263340D01*
X413859Y263115D01*
X414070Y262920D01*
X414339Y262755D01*
X414669Y262620D01*
X415060Y262515D01*
X415509Y262440D01*
X416020Y262395D01*
X416590Y262380D01*
Y259380D01*
X413590Y259410D01*
Y263880D01*
X413619Y263595D01*
D02*
G37*
G36*
X451627Y263649D02*
X451719Y263128D01*
X451870Y262601D01*
X452081Y262068D01*
X452350Y261529D01*
X452678Y260984D01*
X453066Y260432D01*
X453512Y259875D01*
X454017Y259312D01*
X454581Y258742D01*
X445691Y258671D01*
X446246Y259250D01*
X447180Y260386D01*
X447558Y260943D01*
X447878Y261494D01*
X448139Y262037D01*
X448340Y262573D01*
X448484Y263103D01*
X448568Y263625D01*
X448593Y264140D01*
X451593Y264164D01*
X451627Y263649D01*
D02*
G37*
G36*
X488635Y254220D02*
X487617Y254210D01*
X485778Y254068D01*
X484956Y253935D01*
X484199Y253762D01*
X483507Y253547D01*
X482881Y253292D01*
X482320Y252996D01*
X481824Y252659D01*
X481393Y252281D01*
X479271Y254403D01*
X479649Y254834D01*
X479986Y255330D01*
X480282Y255891D01*
X480537Y256517D01*
X480752Y257209D01*
X480925Y257966D01*
X481058Y258788D01*
X481150Y259675D01*
X481210Y261645D01*
X488635Y254220D01*
D02*
G37*
G36*
X463533Y251605D02*
X463631Y251076D01*
X463795Y250568D01*
X464024Y250080D01*
X464318Y249613D01*
X464678Y249167D01*
X465104Y248741D01*
X465595Y248336D01*
X466152Y247952D01*
X466774Y247588D01*
X458231Y245128D01*
X458662Y245911D01*
X459683Y248033D01*
X459933Y248666D01*
X460296Y249817D01*
X460409Y250336D01*
X460477Y250817D01*
X460500Y251261D01*
X463500Y252155D01*
X463533Y251605D01*
D02*
G37*
G36*
X433259Y231196D02*
X432366Y229975D01*
X432004Y229386D01*
X431697Y228812D01*
X431446Y228253D01*
X431251Y227708D01*
X431111Y227179D01*
X431028Y226664D01*
X431000Y226163D01*
X428000Y225919D01*
X427969Y226446D01*
X427877Y226972D01*
X427723Y227496D01*
X427508Y228019D01*
X427231Y228541D01*
X426893Y229061D01*
X426494Y229580D01*
X426033Y230098D01*
X425510Y230614D01*
X424926Y231129D01*
X433788Y231829D01*
X433259Y231196D01*
D02*
G37*
G36*
X431044Y201523D02*
X431176Y200884D01*
X431397Y200229D01*
X431706Y199561D01*
X432103Y198877D01*
X432588Y198178D01*
X433161Y197464D01*
X433823Y196736D01*
X434573Y195993D01*
X435411Y195234D01*
X423875Y194534D01*
X424659Y195431D01*
X425979Y197120D01*
X426515Y197914D01*
X426969Y198674D01*
X427340Y199400D01*
X427629Y200091D01*
X427835Y200749D01*
X427959Y201373D01*
X428000Y201962D01*
X431000Y202147D01*
X431044Y201523D01*
D02*
G37*
G36*
X466703Y170182D02*
X466303Y169721D01*
X465946Y169183D01*
X465633Y168567D01*
X465363Y167874D01*
X465137Y167103D01*
X464954Y166254D01*
X464814Y165328D01*
X464717Y164324D01*
X464655Y162083D01*
X456483Y170255D01*
X457642Y170264D01*
X459728Y170414D01*
X460654Y170554D01*
X461503Y170737D01*
X462274Y170963D01*
X462967Y171233D01*
X463583Y171546D01*
X464121Y171903D01*
X464582Y172303D01*
X466703Y170182D01*
D02*
G37*
G36*
X440903Y142182D02*
X440503Y141721D01*
X440146Y141183D01*
X439833Y140567D01*
X439563Y139874D01*
X439337Y139103D01*
X439154Y138254D01*
X439014Y137328D01*
X438917Y136324D01*
X438855Y134083D01*
X430683Y142255D01*
X431842Y142264D01*
X433928Y142414D01*
X434854Y142554D01*
X435703Y142737D01*
X436474Y142963D01*
X437167Y143233D01*
X437783Y143546D01*
X438321Y143903D01*
X438782Y144303D01*
X440903Y142182D01*
D02*
G37*
G36*
X371410Y646280D02*
X371381Y646565D01*
X371291Y646820D01*
X371141Y647045D01*
X370930Y647240D01*
X370661Y647405D01*
X370331Y647540D01*
X369940Y647645D01*
X369491Y647720D01*
X368980Y647765D01*
X368410Y647780D01*
Y650780D01*
X368980Y650795D01*
X369491Y650840D01*
X369940Y650915D01*
X370331Y651020D01*
X370661Y651155D01*
X370930Y651320D01*
X371141Y651515D01*
X371291Y651740D01*
X371381Y651995D01*
X371410Y652280D01*
Y646280D01*
D02*
G37*
G36*
X189322Y571966D02*
X190902Y570597D01*
X191656Y570040D01*
X192386Y569570D01*
X193091Y569185D01*
X193773Y568885D01*
X194429Y568671D01*
X195062Y568543D01*
X195671Y568500D01*
Y565500D01*
X195062Y565457D01*
X194429Y565329D01*
X193773Y565115D01*
X193091Y564815D01*
X192386Y564430D01*
X191656Y563960D01*
X190902Y563404D01*
X190124Y562762D01*
X188495Y561222D01*
Y572779D01*
X189322Y571966D01*
D02*
G37*
G36*
X728885Y859891D02*
X727943Y858763D01*
X727560Y858208D01*
X727236Y857661D01*
X726971Y857119D01*
X726765Y856584D01*
X726618Y856056D01*
X726529Y855535D01*
X726500Y855020D01*
X723500D01*
X723471Y855535D01*
X723382Y856056D01*
X723235Y856584D01*
X723029Y857119D01*
X722764Y857661D01*
X722440Y858208D01*
X722057Y858763D01*
X721615Y859324D01*
X721115Y859891D01*
X720555Y860465D01*
X729445D01*
X728885Y859891D01*
D02*
G37*
G36*
X608945Y740715D02*
X609328Y739412D01*
X608287Y737609D01*
X607650Y735231D01*
Y733139D01*
X588756Y714244D01*
X587761Y712756D01*
X587412Y711000D01*
Y679000D01*
X587761Y677244D01*
X588756Y675756D01*
X597412Y667100D01*
Y616559D01*
X594675Y614756D01*
X594412Y614766D01*
X592231Y615350D01*
X589769D01*
X587391Y614713D01*
X586588Y614249D01*
X583588Y615857D01*
Y730099D01*
X595900Y742412D01*
X607946D01*
X608945Y740715D01*
D02*
G37*
G36*
X580500Y610110D02*
X577500Y603489D01*
X577479Y604038D01*
X577415Y604484D01*
X577309Y604828D01*
X577161Y605069D01*
X576970Y605208D01*
X576736Y605245D01*
X576460Y605179D01*
X576142Y605011D01*
X575782Y604740D01*
X575379Y604367D01*
Y608610D01*
X575782Y609043D01*
X576142Y609494D01*
X576460Y609962D01*
X576736Y610448D01*
X576970Y610951D01*
X577161Y611472D01*
X577309Y612010D01*
X577415Y612566D01*
X577479Y613140D01*
X577500Y613731D01*
X580500Y610110D01*
D02*
G37*
G36*
X640041Y534427D02*
X640011Y534712D01*
X639921Y534967D01*
X639771Y535192D01*
X639561Y535387D01*
X639291Y535552D01*
X638960Y535687D01*
X638571Y535793D01*
X638120Y535868D01*
X637611Y535913D01*
X637040Y535928D01*
Y538927D01*
X637611Y538942D01*
X638120Y538988D01*
X638571Y539062D01*
X638960Y539168D01*
X639291Y539302D01*
X639561Y539468D01*
X639771Y539663D01*
X639921Y539888D01*
X640011Y540143D01*
X640041Y540428D01*
Y534427D01*
D02*
G37*
G36*
X594259Y573518D02*
X596391Y572287D01*
X598769Y571650D01*
X601231D01*
X603609Y572287D01*
X604412Y572751D01*
X607412Y571143D01*
Y563694D01*
X595001Y551283D01*
X594006Y549794D01*
X593657Y548038D01*
Y481832D01*
X594006Y480076D01*
X595001Y478587D01*
X596412Y477176D01*
Y465148D01*
X595259Y464482D01*
X593518Y462741D01*
X592588Y461130D01*
X590554Y461274D01*
X589588Y461644D01*
Y570777D01*
X592244Y573433D01*
X594156Y573622D01*
X594259Y573518D01*
D02*
G37*
G36*
X574349Y319837D02*
X573971Y319407D01*
X573634Y318910D01*
X573338Y318349D01*
X573083Y317723D01*
X572868Y317031D01*
X572695Y316274D01*
X572562Y315452D01*
X572470Y314565D01*
X572410Y312595D01*
X564985Y320020D01*
X566003Y320030D01*
X567842Y320172D01*
X568664Y320305D01*
X569421Y320478D01*
X570113Y320692D01*
X570739Y320948D01*
X571301Y321244D01*
X571797Y321581D01*
X572228Y321959D01*
X574349Y319837D01*
D02*
G37*
G36*
X610917Y266745D02*
X609758Y266736D01*
X607672Y266586D01*
X606746Y266446D01*
X605897Y266263D01*
X605126Y266037D01*
X604433Y265767D01*
X603817Y265454D01*
X603279Y265097D01*
X602818Y264697D01*
X600697Y266818D01*
X601097Y267279D01*
X601454Y267817D01*
X601767Y268433D01*
X602037Y269126D01*
X602263Y269897D01*
X602446Y270746D01*
X602586Y271672D01*
X602683Y272677D01*
X602745Y274918D01*
X610917Y266745D01*
D02*
G37*
G36*
X603279Y173903D02*
X603817Y173546D01*
X604433Y173233D01*
X605126Y172963D01*
X605897Y172737D01*
X606746Y172554D01*
X607672Y172414D01*
X608676Y172317D01*
X610917Y172255D01*
X602745Y164083D01*
X602736Y165242D01*
X602586Y167328D01*
X602446Y168254D01*
X602263Y169103D01*
X602037Y169874D01*
X601767Y170567D01*
X601454Y171183D01*
X601097Y171721D01*
X600697Y172182D01*
X602818Y174303D01*
X603279Y173903D01*
D02*
G37*
G36*
X568303Y170182D02*
X567903Y169721D01*
X567546Y169183D01*
X567233Y168567D01*
X566963Y167874D01*
X566737Y167103D01*
X566554Y166254D01*
X566414Y165328D01*
X566317Y164324D01*
X566255Y162083D01*
X558083Y170255D01*
X559242Y170264D01*
X561328Y170414D01*
X562254Y170554D01*
X563103Y170737D01*
X563874Y170963D01*
X564567Y171233D01*
X565183Y171546D01*
X565721Y171903D01*
X566182Y172303D01*
X568303Y170182D01*
D02*
G37*
G36*
X908391Y491600D02*
X908361Y491885D01*
X908270Y492140D01*
X908120Y492365D01*
X907911Y492560D01*
X907641Y492725D01*
X907310Y492860D01*
X906920Y492965D01*
X906470Y493040D01*
X905960Y493085D01*
X905390Y493100D01*
Y496100D01*
X905960Y496115D01*
X906470Y496160D01*
X906920Y496235D01*
X907310Y496340D01*
X907641Y496475D01*
X907911Y496640D01*
X908120Y496835D01*
X908270Y497060D01*
X908361Y497315D01*
X908391Y497600D01*
Y491600D01*
D02*
G37*
G36*
X708464Y413812D02*
X707256Y413488D01*
X704689Y412006D01*
X702594Y409911D01*
X701112Y407344D01*
X700345Y404482D01*
Y401518D01*
X701112Y398656D01*
X702306Y396588D01*
X701716Y394829D01*
X700852Y393588D01*
X620748D01*
X619884Y394829D01*
X619294Y396588D01*
X620488Y398656D01*
X621255Y401518D01*
Y404482D01*
X620488Y407344D01*
X619006Y409911D01*
X616911Y412006D01*
X616941Y415453D01*
X618300Y416812D01*
X708069D01*
X708464Y413812D01*
D02*
G37*
G36*
X711773Y394747D02*
X711547Y394723D01*
X711344Y394663D01*
X711166Y394565D01*
X711011Y394430D01*
X710880Y394258D01*
X710773Y394048D01*
X710689Y393802D01*
X710630Y393518D01*
X710594Y393197D01*
X710582Y392840D01*
X707582D01*
X707573Y393390D01*
X707500Y394359D01*
X707435Y394779D01*
X707353Y395155D01*
X707252Y395487D01*
X707133Y395776D01*
X706995Y396022D01*
X706839Y396224D01*
X706665Y396383D01*
X711773Y394747D01*
D02*
G37*
G36*
X611517Y384485D02*
X611568Y384008D01*
X611653Y383571D01*
X611772Y383173D01*
X611926Y382815D01*
X612113Y382495D01*
X612334Y382215D01*
X612590Y381973D01*
X612879Y381771D01*
X613203Y381609D01*
X606797D01*
X607121Y381771D01*
X607410Y381973D01*
X607666Y382215D01*
X607887Y382495D01*
X608074Y382815D01*
X608228Y383173D01*
X608347Y383571D01*
X608432Y384008D01*
X608483Y384485D01*
X608500Y385000D01*
X611500D01*
X611517Y384485D01*
D02*
G37*
G36*
X719743Y375592D02*
X719940Y375153D01*
X720178Y374766D01*
X720457Y374430D01*
X720778Y374146D01*
X721140Y373913D01*
X721543Y373732D01*
X721987Y373603D01*
X722473Y373526D01*
X723000Y373500D01*
Y370500D01*
X722335Y370479D01*
X721699Y370416D01*
X721092Y370312D01*
X720515Y370165D01*
X719968Y369977D01*
X719449Y369746D01*
X718961Y369474D01*
X718501Y369160D01*
X718072Y368804D01*
X717671Y368406D01*
X719588Y376083D01*
X719743Y375592D01*
D02*
G37*
G36*
X722903Y256182D02*
X722503Y255721D01*
X722146Y255183D01*
X721833Y254567D01*
X721563Y253874D01*
X721337Y253103D01*
X721154Y252254D01*
X721014Y251328D01*
X720917Y250324D01*
X720855Y248083D01*
X712682Y256255D01*
X713842Y256264D01*
X715928Y256414D01*
X716854Y256554D01*
X717703Y256737D01*
X718474Y256963D01*
X719167Y257233D01*
X719783Y257546D01*
X720321Y257903D01*
X720782Y258303D01*
X722903Y256182D01*
D02*
G37*
G36*
X614850Y213464D02*
X614566Y213235D01*
X614315Y212966D01*
X614098Y212659D01*
X613915Y212313D01*
X613765Y211929D01*
X613648Y211506D01*
X613564Y211043D01*
X613514Y210542D01*
X613498Y210002D01*
X610498D01*
X610480Y210499D01*
X610427Y210956D01*
X610339Y211374D01*
X610215Y211752D01*
X610057Y212090D01*
X609863Y212389D01*
X609633Y212648D01*
X609369Y212868D01*
X609069Y213047D01*
X608734Y213188D01*
X615167Y213654D01*
X614850Y213464D01*
D02*
G37*
G36*
X712489Y202689D02*
X712515Y202393D01*
X712559Y202131D01*
X712619Y201903D01*
X712697Y201709D01*
X712792Y201549D01*
X712904Y201422D01*
X713033Y201330D01*
X713180Y201272D01*
X713344Y201248D01*
X708785Y200098D01*
X708917Y200201D01*
X709036Y200347D01*
X709140Y200534D01*
X709230Y200764D01*
X709307Y201035D01*
X709370Y201348D01*
X709418Y201703D01*
X709474Y202539D01*
X709481Y203019D01*
X712481D01*
X712489Y202689D01*
D02*
G37*
G36*
X619664Y191758D02*
X619814Y189672D01*
X619954Y188746D01*
X620137Y187897D01*
X620363Y187126D01*
X620633Y186433D01*
X620946Y185817D01*
X621303Y185279D01*
X621703Y184818D01*
X619582Y182697D01*
X619121Y183097D01*
X618583Y183454D01*
X617967Y183767D01*
X617274Y184037D01*
X616503Y184263D01*
X615654Y184447D01*
X614728Y184586D01*
X613724Y184683D01*
X611483Y184746D01*
X619655Y192917D01*
X619664Y191758D01*
D02*
G37*
G36*
X703116Y201171D02*
X703706Y199412D01*
X702512Y197344D01*
X701745Y194482D01*
Y191518D01*
X702512Y188656D01*
X703994Y186089D01*
X704495Y185588D01*
X703252Y182588D01*
X628301D01*
X623720Y187168D01*
X623593Y187360D01*
X623428Y187684D01*
X623261Y188114D01*
X623103Y188652D01*
X622964Y189297D01*
X622856Y190011D01*
X622722Y191880D01*
X622713Y192943D01*
X622655Y193224D01*
Y194482D01*
X621888Y197344D01*
X620694Y199412D01*
X621284Y201171D01*
X622148Y202412D01*
X702252D01*
X703116Y201171D01*
D02*
G37*
G36*
X189322Y367966D02*
X190902Y366596D01*
X191656Y366040D01*
X192386Y365570D01*
X193091Y365185D01*
X193773Y364885D01*
X194429Y364671D01*
X195062Y364543D01*
X195671Y364500D01*
Y361500D01*
X195062Y361457D01*
X194429Y361329D01*
X193773Y361115D01*
X193091Y360816D01*
X192386Y360430D01*
X191656Y359960D01*
X190902Y359403D01*
X190124Y358762D01*
X188495Y357221D01*
Y368778D01*
X189322Y367966D01*
D02*
G37*
D22*
X696510Y537427D02*
D03*
X696110Y650440D02*
D03*
X671510Y537427D02*
D03*
X671110Y650440D02*
D03*
D23*
X725000Y885000D02*
D03*
X525000Y865000D02*
D03*
X325000Y885000D02*
D03*
Y865000D02*
D03*
X725000D02*
D03*
X525000Y885000D02*
D03*
X444000Y755000D02*
D03*
X429000Y236000D02*
D03*
X450172Y254172D02*
D03*
X444000Y449000D02*
D03*
X591000Y606000D02*
D03*
X612850Y621000D02*
D03*
X601000Y457000D02*
D03*
X600000Y581000D02*
D03*
X463757Y242000D02*
D03*
X462000Y423000D02*
D03*
X617000Y734000D02*
D03*
X462000Y750000D02*
D03*
D27*
X646110Y650440D02*
D03*
X646510Y537427D02*
D03*
D30*
X444000Y668388D02*
X446000Y666388D01*
Y582400D02*
Y666388D01*
X444000Y668388D02*
Y755000D01*
X430000Y469000D02*
X451000Y490000D01*
Y535000D01*
X429500Y189500D02*
X430000Y189000D01*
X429500Y189500D02*
Y235500D01*
X429000Y236000D02*
X429500Y235500D01*
X443355Y146755D02*
Y236989D01*
X419464Y260880D02*
X443355Y236989D01*
X412120Y260880D02*
X419464D01*
X406000Y267000D02*
X412120Y260880D01*
X444000Y407085D02*
X449000Y402085D01*
X450172Y254172D01*
X444000Y407085D02*
Y449000D01*
X601856Y587463D02*
X602000Y587607D01*
X600000Y581000D02*
X601856Y582856D01*
Y587463D01*
X602000Y587607D02*
Y669000D01*
X579000Y732000D02*
X594000Y747000D01*
X589144Y599537D02*
Y604144D01*
X589000Y576678D02*
Y599393D01*
X589144Y599537D01*
X579000Y610110D02*
Y732000D01*
Y326610D02*
Y610110D01*
X563830Y594940D02*
X579000Y610110D01*
X589144Y604144D02*
X591000Y606000D01*
X592000Y679000D02*
X602000Y669000D01*
X612000Y561793D02*
Y620150D01*
X612850Y621000D01*
X598245Y548038D02*
X612000Y561793D01*
X598245Y481832D02*
Y548038D01*
Y481832D02*
X601000Y479077D01*
Y457000D02*
Y479077D01*
X585000Y572678D02*
X589000Y576678D01*
X585000Y324125D02*
Y572678D01*
X462000Y243757D02*
X463757Y242000D01*
X462000Y243757D02*
Y423000D01*
X473000Y328230D02*
Y609570D01*
Y328230D02*
X488710Y312520D01*
X615000Y734000D02*
X617000D01*
X592000Y711000D02*
X615000Y734000D01*
X592000Y679000D02*
Y711000D01*
X704000Y747000D02*
X725000Y768000D01*
X594000Y747000D02*
X704000D01*
X427600Y564000D02*
X446000Y582400D01*
X462000Y574038D02*
Y750000D01*
X487630Y671140D02*
Y757630D01*
X501000Y771000D01*
X513600D01*
X428000Y540038D02*
X462000Y574038D01*
X428000Y537000D02*
Y540038D01*
X473000Y609570D02*
Y863000D01*
X495000Y885000D01*
X525000D01*
X725000Y768000D02*
Y865000D01*
X564910Y312520D02*
X579000Y326610D01*
X473000Y609570D02*
X487630Y594940D01*
X916400Y415400D02*
X919000Y412800D01*
X770400Y415400D02*
X916400D01*
Y494600D02*
X919000Y492000D01*
X830600Y494600D02*
X916400D01*
X182600Y567000D02*
X239000D01*
X279000Y607000D01*
X182600Y363000D02*
X249000D01*
X610000Y403000D02*
X610755Y403755D01*
Y415755D01*
X757400Y421400D02*
X830600Y494600D01*
X616400Y421400D02*
X757400D01*
X610755Y415755D02*
X616400Y421400D01*
X611400Y193000D02*
X626400Y178000D01*
X716038D01*
X753000Y214962D01*
Y398000D01*
X770400Y415400D01*
X378720Y649280D02*
X379000Y649000D01*
X302720Y649280D02*
X378720D01*
X712600Y248000D02*
X725355Y260755D01*
Y369645D01*
X723000Y372000D02*
X725355Y369645D01*
X713600Y372000D02*
X723000D01*
X711600Y374000D02*
X713600Y372000D01*
X558000Y162000D02*
X582000Y186000D01*
Y321125D01*
X585000Y324125D01*
X588000Y252000D02*
X611000Y275000D01*
X588000Y187000D02*
Y252000D01*
X705243Y389000D02*
X709082Y392840D01*
Y400482D01*
X711600Y403000D01*
X610000Y385000D02*
X614000Y389000D01*
X705243D01*
X610000Y374000D02*
Y385000D01*
X710981Y195019D02*
X713000Y193000D01*
X615000Y207000D02*
X707000D01*
X710981Y195019D02*
Y203019D01*
X707000Y207000D02*
X710981Y203019D01*
X611400Y221000D02*
X611998Y220403D01*
Y210002D02*
X615000Y207000D01*
X611998Y210002D02*
Y220403D01*
X588000Y187000D02*
X611000Y164000D01*
X249000Y363000D02*
X274000Y388000D01*
X326400D01*
X456400Y162000D02*
X476000Y181600D01*
Y249010D01*
X488710Y261720D01*
X430600Y134000D02*
X443355Y146755D01*
X485463Y287120D02*
X488710D01*
X279000Y607000D02*
Y711000D01*
X610000Y497000D02*
X611000Y496000D01*
X610000Y497000D02*
Y526000D01*
X621427Y537427D01*
X378600Y504000D02*
X379000Y503600D01*
Y482000D02*
Y503600D01*
Y482000D02*
X392000Y469000D01*
X430000D01*
X621427Y537427D02*
X646510D01*
X279000Y711000D02*
X307000Y739000D01*
X288000Y664000D02*
X302720Y649280D01*
X288000Y664000D02*
Y696000D01*
X303510Y711510D01*
X327310D01*
D31*
X563830Y594940D02*
D03*
X487630D02*
D03*
Y620340D02*
D03*
Y569540D02*
D03*
X563830Y620340D02*
D03*
Y518740D02*
D03*
Y544140D02*
D03*
Y569540D02*
D03*
Y645740D02*
D03*
Y671140D02*
D03*
X487630Y518740D02*
D03*
Y544140D02*
D03*
Y645740D02*
D03*
X564910Y337920D02*
D03*
X488710D02*
D03*
Y236320D02*
D03*
X564910Y261720D02*
D03*
Y287120D02*
D03*
Y363320D02*
D03*
X488710Y261720D02*
D03*
Y287120D02*
D03*
Y363320D02*
D03*
X564910Y236320D02*
D03*
Y388720D02*
D03*
X488710Y312520D02*
D03*
X564910D02*
D03*
D32*
X487630Y671140D02*
D03*
X488710Y388720D02*
D03*
D33*
X50000Y950000D02*
D03*
X950000Y50000D02*
D03*
X50000D02*
D03*
X950000Y950000D02*
D03*
D34*
X81000Y815400D02*
D03*
Y456400D02*
D03*
X919000D02*
D03*
X81000Y855000D02*
D03*
X919000Y416800D02*
D03*
X81000Y496000D02*
D03*
D36*
X559600Y132000D02*
D03*
X712600Y164000D02*
D03*
X713000Y221000D02*
D03*
X711600Y698000D02*
D03*
X712600Y496000D02*
D03*
X430600Y161000D02*
D03*
X610000Y403000D02*
D03*
X611400Y193000D02*
D03*
X558000Y162000D02*
D03*
X458000Y132000D02*
D03*
X456400Y162000D02*
D03*
X430600Y134000D02*
D03*
X611400Y221000D02*
D03*
X713000Y193000D02*
D03*
X611000Y248000D02*
D03*
X430000Y189000D02*
D03*
X427600Y415000D02*
D03*
X611000Y275000D02*
D03*
Y164000D02*
D03*
X610000Y344000D02*
D03*
X711600Y403000D02*
D03*
X610000Y374000D02*
D03*
X326000Y415000D02*
D03*
X81000Y567000D02*
D03*
Y363000D02*
D03*
X182600Y567000D02*
D03*
X326400Y537000D02*
D03*
X326000Y564000D02*
D03*
X428000Y537000D02*
D03*
X610000Y698000D02*
D03*
X327000Y684000D02*
D03*
X427600Y564000D02*
D03*
X611000Y496000D02*
D03*
X711600Y374000D02*
D03*
X712600Y248000D02*
D03*
X711600Y344000D02*
D03*
X712600Y275000D02*
D03*
X182600Y363000D02*
D03*
X428600Y684000D02*
D03*
X329000Y161000D02*
D03*
Y134000D02*
D03*
X328400Y189000D02*
D03*
X326400Y388000D02*
D03*
X428000D02*
D03*
X430000Y712000D02*
D03*
X328400D02*
D03*
D37*
X515000Y459000D02*
D03*
X540400D02*
D03*
X513600Y771000D02*
D03*
X539000D02*
D03*
X513000Y739000D02*
D03*
X538400D02*
D03*
X515000Y431000D02*
D03*
X540400D02*
D03*
D39*
X81000Y775800D02*
D03*
X919000Y496000D02*
D03*
X81000Y416800D02*
D03*
D40*
X451000Y535000D02*
D03*
X307000Y739000D02*
D03*
D41*
X660400Y309000D02*
D03*
X379600Y312000D02*
D03*
X659400Y593000D02*
D03*
X379000Y595000D02*
D03*
X380600Y267000D02*
D03*
X404400Y649000D02*
D03*
X379000D02*
D03*
X634000Y593000D02*
D03*
X635000Y309000D02*
D03*
X404400Y595000D02*
D03*
X405000Y312000D02*
D03*
X406000Y224000D02*
D03*
Y267000D02*
D03*
X378600Y357000D02*
D03*
Y504000D02*
D03*
X404000D02*
D03*
X380600Y224000D02*
D03*
X404000Y357000D02*
D03*
M02*
